#N canvas 134 50 812 644 10;
#X obj -276 -36 r speed;
#X obj -74 -36 r amp;
#X obj 119 -36 r acceleration;
#X obj -294 513 dac~;
#X obj -292 223 loadbang;
#X obj -292 297 osc~;
#X obj -292 372 *~;
#X obj -276 -6 vsl 15 80 0 100 0 0 empty empty empty 0 -9 0 10 -262144
-1 -1 0 1;
#X obj -292 395 *~ 0.5;
#X obj -74 -7 vsl 15 80 -40 40 0 0 empty empty empty 0 -9 0 10 -262144
-1 -1 0 1;
#X obj -292 335 +~;
#X obj 216 329 osc~;
#X obj 216 352 *~;
#X obj -74 190 spigot;
#X obj 217 515 *~;
#X obj -35 165 < 0;
#X obj -292 435 *~;
#X obj 119 -7 vsl 15 80 -10 10 0 0 empty empty empty 0 -9 0 10 -262144
-1 -1 0 1;
#X obj 216 306 mtof~;
#X obj 216 180 metro 100;
#X obj 216 203 f;
#X obj 253 203 + 1;
#X obj 216 252 select 0 1 2;
#X obj 216 227 mod 3;
#X obj -292 273 mtof~;
#X msg 289 277 71;
#X msg 252 277 68;
#X msg 216 277 64;
#X msg -292 249 59;
#X obj 216 491 phasor~;
#X obj 256 443 * 50;
#X obj 216 467 +;
#X msg 216 443 130;
#X obj 66 166 > 0;
#X obj 27 190 spigot;
#X text 214 135 Arpeggio;
#X obj 216 156 loadbang;
#X obj 216 417 loadbang;
#X obj -74 216 s amp_low_val;
#X obj 30 216 s amp_high_val;
#X text 214 393 Bad buzz;
#X obj -293 472 sub/delay sine 0.2 200;
#X obj -276 87 sub/clipscale 0 100 0 1;
#X obj -74 87 sub/clipscale -40 40 -1 1;
#X obj 119 87 sub/clipscale -3 3 -1 1;
#X obj 251 352 r amp_high_val;
#X obj 256 515 r amp_low_val;
#X connect 0 0 7 0;
#X connect 1 0 9 0;
#X connect 2 0 17 0;
#X connect 4 0 28 0;
#X connect 5 0 10 0;
#X connect 6 0 8 0;
#X connect 7 0 42 0;
#X connect 8 0 16 0;
#X connect 9 0 43 0;
#X connect 10 0 6 0;
#X connect 11 0 12 0;
#X connect 12 0 10 1;
#X connect 13 0 38 0;
#X connect 14 0 10 1;
#X connect 15 0 13 1;
#X connect 16 0 41 0;
#X connect 17 0 44 0;
#X connect 18 0 11 0;
#X connect 19 0 20 0;
#X connect 20 0 21 0;
#X connect 20 0 23 0;
#X connect 21 0 20 1;
#X connect 22 0 27 0;
#X connect 22 1 26 0;
#X connect 22 2 25 0;
#X connect 23 0 22 0;
#X connect 24 0 5 0;
#X connect 25 0 18 0;
#X connect 26 0 18 0;
#X connect 27 0 18 0;
#X connect 28 0 24 0;
#X connect 29 0 14 0;
#X connect 30 0 32 0;
#X connect 30 0 31 1;
#X connect 31 0 29 0;
#X connect 32 0 31 0;
#X connect 33 0 34 1;
#X connect 34 0 39 0;
#X connect 36 0 19 0;
#X connect 37 0 32 0;
#X connect 41 0 3 0;
#X connect 41 0 3 1;
#X connect 42 0 6 1;
#X connect 43 0 15 0;
#X connect 43 0 13 0;
#X connect 43 0 34 0;
#X connect 43 0 33 0;
#X connect 44 0 16 1;
#X connect 45 0 12 1;
#X connect 46 0 14 1;
#X connect 46 0 30 0;
