#N canvas 554 288 741 723 10;
#X obj 29 52 r amp_high;
#X obj 298 54 r amp_low;
#X text 374 54 bang;
#X text 112 53 bang;
#X obj 138 402 bng 15 250 50 0 empty empty empty 17 7 0 10 -262144
-1 -1;
#X obj 280 645 dac~;
#X floatatom 277 365 5 0 0 0 - - -, f 5;
#X obj 193 54 r amp;
#X obj 294 457 sub/seq 55 64 67;
#X floatatom 335 226 5 0 0 0 - - -, f 5;
#X floatatom 337 388 5 0 0 0 - - -, f 5;
#X obj 187 400 loadbang;
#X obj 431 131 abs;
#X floatatom 502 228 5 0 0 0 - - -, f 5;
#X floatatom 500 285 5 0 0 0 - - -, f 5;
#X obj 501 258 sub/scale 0 20 -3 3;
#X obj 288 556 *~;
#X obj 336 557 *~;
#X obj 428 474 vsl 15 70 0 1 0 0 empty empty empty 0 -9 0 10 -262144
-1 -1 4600 1;
#X text 478 483 volum :>;
#X text 335 205 tempo;
#X text 497 205 pitch/transpose;
#X floatatom 501 416 5 0 0 0 - - -, f 5;
#X obj 465 445 sub/scale 0 30 0 1;
#X floatatom 557 470 5 0 0 0 - - -, f 5;
#X floatatom 469 100 5 0 0 0 - - -, f 5;
#X obj 337 258 sub/scale 0 30 20 800;
#X obj 336 285 expr 800 - $f1;
#X obj 258 324 expr $f1 \; if ($f1 > $f2 \, $f1 \, $f2) \;;
#X msg 445 304 50;
#X text 186 329 floor -->;
#X obj 336 615 sub/delay;
#X obj 236 604 sub/delay;
#X connect 4 0 8 0;
#X connect 6 0 8 1;
#X connect 7 0 12 0;
#X connect 8 0 16 0;
#X connect 8 1 17 0;
#X connect 9 0 26 0;
#X connect 10 0 8 1;
#X connect 11 0 8 0;
#X connect 11 0 29 0;
#X connect 12 0 15 0;
#X connect 12 0 23 0;
#X connect 12 0 26 0;
#X connect 13 0 15 0;
#X connect 14 0 8 2;
#X connect 15 0 14 0;
#X connect 16 0 32 0;
#X connect 17 0 31 0;
#X connect 18 0 17 1;
#X connect 18 0 16 1;
#X connect 22 0 23 0;
#X connect 23 0 18 0;
#X connect 23 0 24 0;
#X connect 25 0 12 0;
#X connect 26 0 27 0;
#X connect 27 0 28 0;
#X connect 28 1 10 0;
#X connect 29 0 28 1;
#X connect 31 0 5 1;
#X connect 32 0 5 0;
