#N canvas 938 227 596 517 10;
#X obj 235 55 r amp;
#N canvas 0 50 450 300 amping_down 0;
#X restore 132 145 pd amping_down;
#N canvas 163 60 868 684 amping_up 1;
#X obj 168 65 inlet;
#X obj 157 570 outlet~;
#X obj 265 573 outlet~;
#X floatatom 214 249 5 0 0 0 - - -, f 5;
#X obj 214 224 +;
#X text 250 221 <- Counts up as long as input is above 0;
#X obj 168 94 moses 0;
#X msg 214 199 1;
#X obj 157 419 sub/seq 55 64 67;
#X obj 211 362 loadbang;
#X obj 105 362 loadbang;
#X msg 211 384 40;
#X obj 317 394 line;
#X floatatom 317 419 5 0 0 0 - - -, f 5;
#X msg 351 279 0;
#X obj 317 279 * 1;
#X obj 351 252 r play_sound;
#X obj 317 317 +;
#X msg 369 352 0;
#X obj 109 173 s play_sound;
#X msg 317 339 1 \$1;
#X obj 369 327 r reset_sound;
#X obj 383 93 r play_sound;
#X obj 383 119 bng 15 250 50 0 empty empty empty 17 7 0 10 -260145
-1 -1;
#X msg 383 166 0;
#X obj 157 458 *~;
#X obj 262 464 *~;
#X obj 383 188 s reset_sound;
#X text 362 390 <- use number of "positive amp steps taken" for the
duration (volume and pitch transition) of the reward sound effect;
#X obj 271 392 * 20;
#X obj 75 506 sub/delay licketysplit 0.212 139;
#X obj 415 117 + 20;
#X obj 328 506 sub/delay gooddaymygooddeladylay 0.212 139;
#X msg 118 235 0;
#X floatatom 462 148 5 0 0 0 - - -, f 5;
#X obj 385 480 tgl 15 0 empty empty empty 17 7 0 10 -262144 -1 -1 0
1;
#X obj 386 424 r reset_sound;
#X msg 386 446 0;
#X obj 257 122 s activate;
#X obj 501 425 r activate;
#X msg 501 447 1;
#X obj 317 445 *~ 1;
#X obj 277 65 > 2;
#X obj 383 141 del;
#X connect 0 0 6 0;
#X connect 3 0 4 1;
#X connect 3 0 15 0;
#X connect 3 0 31 0;
#X connect 4 0 3 0;
#X connect 6 0 19 0;
#X connect 6 0 33 0;
#X connect 6 1 7 0;
#X connect 6 1 42 0;
#X connect 7 0 4 0;
#X connect 8 0 25 0;
#X connect 8 1 26 0;
#X connect 9 0 11 0;
#X connect 10 0 8 0;
#X connect 11 0 8 1;
#X connect 12 0 13 0;
#X connect 12 0 29 0;
#X connect 13 0 41 0;
#X connect 14 0 17 0;
#X connect 15 0 17 1;
#X connect 16 0 14 0;
#X connect 17 0 20 0;
#X connect 18 0 12 0;
#X connect 20 0 12 0;
#X connect 21 0 18 0;
#X connect 22 0 23 0;
#X connect 23 0 43 0;
#X connect 24 0 3 0;
#X connect 24 0 27 0;
#X connect 25 0 30 0;
#X connect 26 0 32 0;
#X connect 29 0 8 2;
#X connect 30 0 1 0;
#X connect 31 0 34 0;
#X connect 31 0 43 1;
#X connect 32 0 2 0;
#X connect 35 0 41 1;
#X connect 36 0 37 0;
#X connect 37 0 35 0;
#X connect 37 0 8 2;
#X connect 39 0 40 0;
#X connect 40 0 35 0;
#X connect 41 0 26 1;
#X connect 42 0 38 0;
#X connect 43 0 24 0;
#X restore 287 146 pd amping_up;
#X obj 307 212 dac~;
#X floatatom 287 103 5 0 0 0 - - -, f 5;
#X obj 431 31 vsl 15 300 -1000 1000 0 0 empty empty empty 0 -9 0 10
-262144 -1 -1 5400 1;
#X obj 423 381 + 0.5;
#X obj 423 403 div;
#X connect 0 0 2 0;
#X connect 2 0 3 0;
#X connect 2 1 3 1;
#X connect 4 0 2 0;
#X connect 5 0 6 0;
#X connect 6 0 7 0;
#X connect 7 0 4 0;
