#N canvas 994 301 450 484 10;
#X obj 116 -13 r fan;
#X obj 54 -13 r speed;
#X obj 7 -13 r soc;
#X obj 165 -13 r climate;
#X obj 241 -12 r amp;
#X obj 244 93 + 300;
#X obj 244 143 osc~;
#X obj 250 301 dac~;
#X obj 306 144 osc~ 300;
#X obj 251 255 +~;
#X obj 308 193 *~ 0.5;
#X obj 245 193 *~ 0.5;
#X obj 243 43 * -5;
#X connect 4 0 12 0;
#X connect 5 0 6 0;
#X connect 6 0 11 0;
#X connect 8 0 10 0;
#X connect 9 0 7 0;
#X connect 9 0 7 1;
#X connect 10 0 9 1;
#X connect 11 0 9 0;
#X connect 12 0 5 0;
