#N canvas 623 58 693 597 10;
#X obj -145 170 readsf~ 2;
#X obj -144 290 dac~;
#X msg -145 87 start;
#X obj -79 16 r amp_high;
#X obj 52 16 r amp_low;
#X obj -79 54 t b b;
#X obj 52 54 t b b;
#X msg 79 85 open loss_1.wav;
#X msg -52 85 open gain_1.wav;
#X obj 228 16 r amp_gain_time;
#X floatatom 228 111 5 0 0 0 - - -;
#X obj 228 51 / 10;
#X obj 226 511 *~;
#X msg 342 335 1;
#X msg 375 334 0;
#X obj 226 556 dac~;
#X obj 230 168 bng 15 250 50 0 empty empty empty 17 7 0 10 -262144
-1 -1;
#X obj 375 276 delay 0;
#X msg 225 339 330;
#X obj 260 377 list;
#X obj 226 413 line;
#X floatatom 226 441 5 0 0 0 - - -;
#X msg 260 339 880;
#X obj 225 478 osc~;
#X obj 140 21 bng 15 250 50 0 empty empty empty 17 7 0 10 -262144 -1
-1;
#X obj -144 232 *~ 1;
#X msg -50 212 1;
#X msg -51 182 0;
#X obj 260 310 delay 1;
#X connect 0 0 25 0;
#X connect 2 0 0 0;
#X connect 4 0 6 0;
#X connect 5 0 2 0;
#X connect 5 1 8 0;
#X connect 6 0 2 0;
#X connect 6 1 7 0;
#X connect 7 0 0 0;
#X connect 8 0 0 0;
#X connect 9 0 11 0;
#X connect 10 0 13 0;
#X connect 10 0 16 0;
#X connect 10 0 17 0;
#X connect 10 0 19 1;
#X connect 11 0 10 0;
#X connect 12 0 15 0;
#X connect 12 0 15 1;
#X connect 13 0 12 1;
#X connect 14 0 12 1;
#X connect 16 0 18 0;
#X connect 16 0 27 0;
#X connect 16 0 28 0;
#X connect 17 0 14 0;
#X connect 17 0 5 0;
#X connect 17 0 26 0;
#X connect 18 0 20 0;
#X connect 19 0 20 0;
#X connect 20 0 21 0;
#X connect 21 0 23 0;
#X connect 22 0 19 0;
#X connect 23 0 12 0;
#X connect 24 0 6 0;
#X connect 25 0 1 0;
#X connect 25 0 1 1;
#X connect 26 0 25 1;
#X connect 27 0 25 1;
#X connect 28 0 22 0;
