#N canvas 1079 360 648 466 10;
#X obj -75 -42 r amp;
#X obj -28 -42 r avg_amp_step;
#X obj -75 37 >;
#X obj -75 59 pack f f;
#X msg -75 81 \$1 \$2;
#X floatatom -75 -20 5 0 0 0 - - -, f 5;
#X floatatom -28 -20 5 0 0 0 - - -, f 5;
#X obj -74 103 route 0 1;
#X floatatom -74 127 5 0 0 0 - - -, f 5;
#X floatatom -14 127 5 0 0 0 - - -, f 5;
#X obj -40 320 *~;
#X obj -40 346 dac~;
#X floatatom -40 298 5 0 0 0 - - -, f 5;
#X obj -40 272 line;
#X msg -74 231 0 500;
#X msg -14 231 1 5000;
#N canvas 0 50 315 153 b 0;
#X obj 17 38 inlet;
#X msg 17 60 bang;
#X obj 17 82 sub/only_one_bang_please;
#X obj 17 104 outlet;
#X obj 151 59 inlet;
#X text 32 9 help me help you;
#X connect 0 0 1 0;
#X connect 1 0 2 0;
#X connect 2 0 3 0;
#X connect 4 0 2 1;
#X restore -14 147 pd b;
#N canvas 0 50 450 300 b 0;
#X obj 143 38 inlet;
#X msg 143 60 bang;
#X obj 143 82 sub/only_one_bang_please;
#X obj 143 104 outlet;
#X obj 277 59 inlet;
#X connect 0 0 1 0;
#X connect 1 0 2 0;
#X connect 2 0 3 0;
#X connect 4 0 2 1;
#X restore -74 147 pd b;
#X obj -14 207 del 5000;
#X msg -60 179 stop, f 5;
#X text 50 207 <- how long over avg?;
#X connect 0 0 5 0;
#X connect 1 0 6 0;
#X connect 2 0 3 0;
#X connect 3 0 4 0;
#X connect 4 0 7 0;
#X connect 5 0 2 0;
#X connect 5 0 3 1;
#X connect 6 0 2 1;
#X connect 7 0 8 0;
#X connect 7 1 9 0;
#X connect 8 0 17 0;
#X connect 9 0 16 0;
#X connect 10 0 11 0;
#X connect 12 0 10 1;
#X connect 13 0 12 0;
#X connect 14 0 13 0;
#X connect 15 0 13 0;
#X connect 16 0 17 1;
#X connect 16 0 18 0;
#X connect 17 0 16 1;
#X connect 17 0 14 0;
#X connect 17 0 19 0;
#X connect 18 0 15 0;
#X connect 19 0 18 0;
