#N canvas 110 43 961 911 10;
#X obj 18 19 r amp_high;
#X obj 287 21 r amp_low;
#X text 363 21 bang;
#X text 101 20 bang;
#X obj 418 453 bng 15 250 50 0 empty empty empty 17 7 0 10 -262144
-1 -1;
#X obj 183 352 dac~;
#X floatatom 549 376 5 0 0 0 - - -, f 5;
#X obj 182 21 r amp;
#X obj 566 468 sub/seq 55 64 67;
#X floatatom 607 237 5 0 0 0 - - -, f 5;
#X floatatom 609 399 5 0 0 0 - - -, f 5;
#X obj 459 411 loadbang;
#X obj 703 142 abs;
#X floatatom 774 239 5 0 0 0 - - -, f 5;
#X floatatom 772 296 5 0 0 0 - - -, f 5;
#X obj 565 567 *~;
#X obj 675 568 *~;
#X obj 725 494 vsl 15 70 0 1 0 0 empty empty empty 0 -9 0 10 -262144
-1 -1 6600 1;
#X text 750 494 volum :>;
#X text 607 216 tempo;
#X text 769 216 pitch/transpose;
#X floatatom 773 427 5 0 0 0 - - -, f 5;
#X floatatom 829 481 5 0 0 0 - - -, f 5;
#X floatatom 757 104 5 0 0 0 - - -, f 5;
#X text 458 340 floor -->;
#X floatatom 418 478 5 0 0 0 - - -, f 5;
#X obj 689 657 hip~ 600;
#X obj 542 658 hip~ 600;
#X obj 742 453 sub/scale 10 30 0 1;
#N canvas 736 555 567 481 delay1 0;
#X obj 70 26 inlet~;
#X obj 75 212 outlet~;
#X text 75 123 <-- feedebeck --->;
#X obj 21 121 *~ 0.212;
#X obj 67 74 delwrite~ del_1 500;
#X obj 76 164 delread~ del_1 139.3;
#X connect 0 0 4 0;
#X connect 3 0 4 0;
#X connect 5 0 1 0;
#X connect 5 0 3 0;
#X restore 686 615 pd delay1;
#N canvas 0 50 450 300 delay2 0;
#X obj 84 31 inlet~;
#X obj 89 217 outlet~;
#X text 89 128 <-- feedebeck --->;
#X obj 35 126 *~ 0.212;
#X obj 90 169 delread~ del_2 139.3;
#X obj 81 79 delwrite~ del_2 500;
#X connect 0 0 5 0;
#X connect 3 0 5 0;
#X connect 4 0 1 0;
#X connect 4 0 3 0;
#X restore 553 615 pd delay2;
#X obj 773 269 sub/scale 0 20 -3 3;
#X obj 607 269 sub/scale 10 30 20 800;
#X obj 157 165 r amp_speed;
#N canvas 457 123 558 714 amp_speed_sound 1;
#X obj -421 392 bng 15 250 50 0 empty empty empty 17 7 0 10 -262144
-1 -1;
#X floatatom -263 343 5 0 0 0 - - -, f 5;
#X obj -273 407 sub/seq 55 64 67;
#X floatatom -232 176 5 0 0 0 - - -, f 5;
#X floatatom -219 343 5 0 0 0 - - -, f 5;
#X obj -380 350 loadbang;
#X obj -136 81 abs;
#X floatatom -65 181 5 0 0 0 - - -, f 5;
#X floatatom -65 234 5 0 0 0 - - -, f 5;
#X obj -274 506 *~;
#X obj -164 507 *~;
#X obj -114 433 vsl 15 70 0 1 0 0 empty empty empty 0 -9 0 10 -262144
-1 -1 345 1;
#X text -89 433 volum :>;
#X text -232 155 tempo;
#X text -70 158 pitch/transpose;
#X floatatom -66 366 5 0 0 0 - - -, f 5;
#X floatatom -10 420 5 0 0 0 - - -, f 5;
#X floatatom -82 43 5 0 0 0 - - -, f 5;
#X obj -231 235 expr 800 - $f1;
#X text -381 279 floor -->;
#X floatatom -421 417 5 0 0 0 - - -, f 5;
#X obj -150 596 hip~ 600;
#X obj -297 597 hip~ 600;
#X obj -97 392 sub/scale 10 30 0 1;
#N canvas 736 555 567 481 delay1 0;
#X obj 70 26 inlet~;
#X obj 75 212 outlet~;
#X text 75 123 <-- feedebeck --->;
#X obj 21 121 *~ 0.212;
#X obj 69 74 delwrite~ del_4 500;
#X obj 76 164 delread~ del_4 139.3;
#X connect 0 0 4 0;
#X connect 3 0 4 0;
#X connect 5 0 1 0;
#X connect 5 0 3 0;
#X restore -153 554 pd delay1;
#N canvas 530 543 450 300 delay2 0;
#X obj 84 31 inlet~;
#X obj 89 217 outlet~;
#X text 89 128 <-- feedebeck --->;
#X obj 35 126 *~ 0.212;
#X obj 81 79 delwrite~ del_3 500;
#X obj 90 169 delread~ del_3 139.3;
#X connect 0 0 4 0;
#X connect 3 0 4 0;
#X connect 5 0 1 0;
#X connect 5 0 3 0;
#X restore -286 554 pd delay2;
#X obj -64 207 sub/scale 0 20 -3 3;
#X obj -230 37 inlet;
#X obj -297 636 outlet~;
#X obj -151 627 outlet~;
#X obj -232 208 sub/scale 10 30 800 20;
#X obj -309 273 expr $f1 \; if ($f1 > 50 \, $f1 \, 50) \;;
#X connect 0 0 2 0;
#X connect 0 0 20 0;
#X connect 1 0 2 1;
#X connect 2 0 9 0;
#X connect 2 1 10 0;
#X connect 3 0 30 0;
#X connect 4 0 2 1;
#X connect 5 0 2 0;
#X connect 6 0 23 0;
#X connect 6 0 26 0;
#X connect 6 0 30 0;
#X connect 7 0 26 0;
#X connect 8 0 2 2;
#X connect 9 0 25 0;
#X connect 10 0 24 0;
#X connect 11 0 10 1;
#X connect 11 0 9 1;
#X connect 15 0 23 0;
#X connect 17 0 6 0;
#X connect 20 0 11 0;
#X connect 21 0 29 0;
#X connect 22 0 28 0;
#X connect 23 0 11 0;
#X connect 23 0 16 0;
#X connect 24 0 21 0;
#X connect 25 0 22 0;
#X connect 26 0 8 0;
#X connect 27 0 6 0;
#X connect 30 0 31 0;
#X connect 31 1 4 0;
#X restore 133 248 pd amp_speed_sound;
#X obj 530 335 expr $f1 \; if ($f1 > 50 \, $f1 \, 50) \;;
#X connect 4 0 8 0;
#X connect 4 0 25 0;
#X connect 6 0 8 1;
#X connect 7 0 12 0;
#X connect 8 0 15 0;
#X connect 8 1 16 0;
#X connect 9 0 32 0;
#X connect 10 0 8 1;
#X connect 11 0 8 0;
#X connect 12 0 28 0;
#X connect 12 0 31 0;
#X connect 12 0 32 0;
#X connect 13 0 31 0;
#X connect 14 0 8 2;
#X connect 15 0 30 0;
#X connect 16 0 29 0;
#X connect 17 0 16 1;
#X connect 17 0 15 1;
#X connect 21 0 28 0;
#X connect 23 0 12 0;
#X connect 25 0 17 0;
#X connect 28 0 17 0;
#X connect 28 0 22 0;
#X connect 29 0 26 0;
#X connect 30 0 27 0;
#X connect 31 0 14 0;
#X connect 32 0 35 0;
#X connect 33 0 34 0;
#X connect 34 0 5 0;
#X connect 34 1 5 1;
#X connect 35 1 10 0;
