#N canvas 1038 185 776 645 10;
#X obj 88 -4 f;
#X obj 125 -4 + 1;
#X obj 88 -51 loadbang;
#X obj 88 100 synth/samplesynth_1;
#X obj 34 -46 tgl 15 0 empty empty empty 17 7 0 10 -262144 -1 -1 1
1;
#X obj 89 45 select 0 1;
#X obj 88 20 mod 2;
#X msg 88 70 54;
#X msg 124 70 58;
#X obj 88 -27 metro 900;
#X obj 106 135 lop~;
#X floatatom -192 33 5 0 0 0 - - -, f 5;
#X obj 202 208 sub/delay dededaly 0.4 300;
#X obj 61 136 lop~;
#X obj -27 209 sub/delay dedasfdaly 0.45 260;
#X obj -192 -188 inlet;
#X obj -28 239 outlet~;
#X obj 203 241 outlet~;
#X obj -192 -135 vsl 15 128 1 90 0 0 empty empty empty 0 -9 0 10 -262144
-1 -1 0 1;
#X obj -192 -162 sub/clipscale 0 1 0 90;
#X obj -192 6 expr pow($f1 \, 2)-1;
#X connect 0 0 1 0;
#X connect 0 0 6 0;
#X connect 1 0 0 1;
#X connect 2 0 9 0;
#X connect 3 0 13 0;
#X connect 3 0 10 0;
#X connect 4 0 9 0;
#X connect 5 0 7 0;
#X connect 5 1 8 0;
#X connect 6 0 5 0;
#X connect 7 0 3 0;
#X connect 8 0 3 0;
#X connect 9 0 0 0;
#X connect 10 0 12 0;
#X connect 11 0 10 1;
#X connect 11 0 13 1;
#X connect 12 0 17 0;
#X connect 13 0 14 0;
#X connect 14 0 16 0;
#X connect 15 0 19 0;
#X connect 18 0 20 0;
#X connect 19 0 18 0;
#X connect 20 0 11 0;
