#N canvas 990 120 830 771 10;
#X obj 561 67 dac~;
#X obj 270 122 r amp;
#N canvas 1195 74 558 714 amp_speed_sound 0;
#X obj -421 392 bng 15 250 50 0 empty empty empty 17 7 0 10 -262144
-1 -1;
#X floatatom -263 343 5 0 0 0 - - -, f 5;
#X floatatom -232 176 5 0 0 0 - - -, f 5;
#X floatatom -219 343 5 0 0 0 - - -, f 5;
#X obj -380 350 loadbang;
#X obj -136 81 abs;
#X floatatom -65 181 5 0 0 0 - - -, f 5;
#X floatatom -65 234 5 0 0 0 - - -, f 5;
#X obj -274 506 *~;
#X obj -164 507 *~;
#X obj -114 433 vsl 15 70 0 1 0 0 empty empty empty 0 -9 0 10 -262144
-1 -1 0 1;
#X text -89 433 volum :>;
#X text -232 155 tempo;
#X text -70 158 pitch/transpose;
#X floatatom -66 366 5 0 0 0 - - -, f 5;
#X floatatom -10 420 5 0 0 0 - - -, f 5;
#X floatatom -82 43 5 0 0 0 - - -, f 5;
#X obj -231 235 expr 800 - $f1;
#X text -381 279 floor -->;
#X floatatom -421 417 5 0 0 0 - - -, f 5;
#X obj -150 596 hip~ 600;
#X obj -297 597 hip~ 600;
#N canvas 736 555 567 481 delay1 0;
#X obj 70 26 inlet~;
#X obj 75 212 outlet~;
#X text 75 123 <-- feedebeck --->;
#X obj 21 121 *~ 0.212;
#X obj 69 74 delwrite~ del_4 500;
#X obj 76 164 delread~ del_4 139.3;
#X connect 0 0 4 0;
#X connect 3 0 4 0;
#X connect 5 0 1 0;
#X connect 5 0 3 0;
#X restore -153 554 pd delay1;
#N canvas 530 543 450 300 delay2 0;
#X obj 84 31 inlet~;
#X obj 89 217 outlet~;
#X text 89 128 <-- feedebeck --->;
#X obj 35 126 *~ 0.212;
#X obj 81 79 delwrite~ del_3 500;
#X obj 90 169 delread~ del_3 139.3;
#X connect 0 0 4 0;
#X connect 3 0 4 0;
#X connect 5 0 1 0;
#X connect 5 0 3 0;
#X restore -286 554 pd delay2;
#X obj -230 37 inlet;
#X obj -297 636 outlet~;
#X obj -151 627 outlet~;
#X obj -309 273 expr $f1 \; if ($f1 > 50 \, $f1 \, 50) \;;
#X obj -234 207 sub/scale 3 30 800 20;
#X obj -101 389 sub/scale 3 30 0 1;
#X obj -64 207 sub/scale 0 20 -3 3;
#X obj -273 407 sub/seq 55 64 67;
#X connect 0 0 19 0;
#X connect 0 0 31 0;
#X connect 1 0 31 1;
#X connect 2 0 28 0;
#X connect 3 0 31 1;
#X connect 4 0 31 0;
#X connect 5 0 28 0;
#X connect 5 0 29 0;
#X connect 5 0 30 0;
#X connect 6 0 30 0;
#X connect 7 0 31 2;
#X connect 8 0 23 0;
#X connect 9 0 22 0;
#X connect 10 0 9 1;
#X connect 10 0 8 1;
#X connect 14 0 29 0;
#X connect 16 0 5 0;
#X connect 19 0 10 0;
#X connect 20 0 26 0;
#X connect 21 0 25 0;
#X connect 22 0 20 0;
#X connect 23 0 21 0;
#X connect 24 0 5 0;
#X connect 27 1 3 0;
#X connect 28 0 27 0;
#X connect 29 0 10 0;
#X connect 29 0 15 0;
#X connect 30 0 7 0;
#X connect 31 0 8 0;
#X connect 31 1 9 0;
#X restore 518 33 pd amp_speed_sound;
#X obj 584 12 r speed;
#X obj 518 10 /;
#N canvas 249 33 1127 1119 amp_positive 1;
#X obj 277 1060 hip~ 600;
#X obj 165 1120 hip~ 600;
#X obj 39 26 inlet;
#X obj 165 1166 outlet~;
#X obj 278 1165 outlet~;
#X obj 277 909 sub/delay del2 0.211 139;
#X text 39 5 Get amp and send to the different parts;
#X obj 87 26 s amp_in_pos;
#X obj 165 1142 sub/dirty_limiter;
#X obj 277 1082 sub/dirty_limiter;
#X obj 638 63 loadbang;
#X msg 638 86 1.5;
#X obj 638 109 s \$0-factor;
#X obj 166 881 sub/delay del1 0.212 139;
#X text 189 837 > Delays <;
#X obj 33 62 cnv 15 580 430 empty empty empty 20 12 0 14 -262016 -66577
0;
#X obj 92 280 bng 15 250 50 0 empty empty empty 17 7 0 10 -240447 -206012
-1;
#X floatatom 221 124 5 0 0 0 - - -, f 5;
#X floatatom 221 193 5 0 0 0 - - -, f 5;
#X obj 89 248 loadbang;
#X obj 167 454 *~;
#X obj 276 455 *~;
#X obj 327 351 vsl 15 70 0 1 0 0 empty empty empty 0 -9 0 10 -231933
-1 -1 5520 1;
#X text 124 98 tempo;
#X floatatom 336 301 5 0 0 0 - - -, f 5;
#X floatatom 92 305 5 0 0 0 - - -, f 5;
#X text 405 191 Send ->;
#X obj 327 278 r amp_in_pos;
#X obj 126 122 r amp_in_pos;
#X text 49 278 Stop!;
#X text 380 298 Higher amp = louder;
#X obj 167 295 sub/seq 55 64 67;
#X msg 351 385 \$1 20;
#X obj 351 407 line~;
#X text 400 396 <- prevents clicks/scratchs;
#X obj 221 163 sub/clipscale 5 50 300 50;
#X text 230 141 Arp gets faster as amp gets higher;
#X text 232 72 >>>>>> ARPEGGIATORS <<<<<<;
#X obj 320 551 cnv 15 500 320 empty empty empty 20 12 0 14 -261821
-66577 0;
#X text 483 557 == Super harmonics? ==;
#X obj 394 685 loadbang;
#X obj 373 685 bng 15 250 50 0 empty empty empty 17 7 0 10 -244863
-193083 -1;
#X obj 440 769 +~;
#X obj 441 815 *~;
#X msg 503 683 24;
#X obj 441 791 /~ 2;
#X obj 484 644 / 1.5;
#X text 348 644 Slightly faster ->;
#X text 359 576 Creates a brighter "bllrlrl" for when shit really hits
the fan (i.e. amp is "really high");
#X obj 536 733 r amp_in_pos;
#X obj 539 683 loadbang;
#X text 606 682 <- transpose;
#X text 534 714 Volume: only audible when amp is high;
#X text 427 845 <- mix with the other sounds;
#X obj 536 756 sub/clipscale 40 80 0 0.6;
#X obj 394 709 sub/seq 55 64 67;
#X text 582 777 <- prevents clicks/scratchs;
#X msg 536 777 \$1 20;
#X obj 536 799 line~;
#X obj -265 734 cnv 15 400 230 empty empty empty 20 12 0 14 -261689
-66577 0;
#X obj -238 836 osc~;
#X obj -237 860 *~;
#X text -91 781 Only play when amp is going up;
#X obj -24 802 >;
#X msg -24 824 \$1 100;
#X obj -238 785 r amp_in_pos;
#X obj -237 885 *~ 0.3;
#X obj -238 813 sub/clipscale 5 100 20 1600;
#X obj -238 910 sub/delay spliffycrack 0.3 200;
#X obj -24 846 line~;
#X text -109 936 mix with the other sounds ->;
#X text -255 746 >>>> Play a rising sine in the background when amp
is increasing <<<<;
#X obj 341 189 cnv 15 60 25 empty empty empty 20 12 0 14 -261682 -66577
0;
#X obj 346 192 s tempo;
#X obj 482 616 cnv 15 60 25 empty empty empty 20 12 0 14 -261682 -66577
0;
#X obj 484 622 r tempo;
#X text 326 257 Volume;
#X obj 327 322 sub/clipscale 5 50 0 1;
#X connect 0 0 9 0;
#X connect 1 0 8 0;
#X connect 2 0 7 0;
#X connect 5 0 0 0;
#X connect 8 0 3 0;
#X connect 9 0 4 0;
#X connect 10 0 11 0;
#X connect 11 0 12 0;
#X connect 13 0 1 0;
#X connect 16 0 25 0;
#X connect 16 0 31 0;
#X connect 17 0 35 0;
#X connect 18 0 31 1;
#X connect 19 0 31 0;
#X connect 20 0 13 0;
#X connect 21 0 5 0;
#X connect 22 0 32 0;
#X connect 24 0 77 0;
#X connect 25 0 22 0;
#X connect 27 0 77 0;
#X connect 28 0 35 0;
#X connect 31 0 20 0;
#X connect 31 1 21 0;
#X connect 32 0 33 0;
#X connect 33 0 21 1;
#X connect 33 0 20 1;
#X connect 35 0 18 0;
#X connect 35 0 73 0;
#X connect 40 0 55 0;
#X connect 41 0 55 0;
#X connect 42 0 45 0;
#X connect 43 0 5 0;
#X connect 43 0 13 0;
#X connect 44 0 55 2;
#X connect 45 0 43 0;
#X connect 46 0 55 1;
#X connect 49 0 54 0;
#X connect 50 0 44 0;
#X connect 54 0 57 0;
#X connect 55 0 42 0;
#X connect 55 1 42 1;
#X connect 57 0 58 0;
#X connect 58 0 43 1;
#X connect 60 0 61 0;
#X connect 61 0 66 0;
#X connect 63 0 64 0;
#X connect 64 0 69 0;
#X connect 65 0 63 0;
#X connect 65 0 63 1;
#X connect 65 0 67 0;
#X connect 66 0 68 0;
#X connect 67 0 60 0;
#X connect 68 0 1 0;
#X connect 68 0 0 0;
#X connect 69 0 61 1;
#X connect 75 0 46 0;
#X connect 77 0 22 0;
#X restore 364 379 pd amp_positive;
#X obj 339 531 dac~;
#X obj 221 178 abs;
#X obj 318 149 moses 0;
#X floatatom 373 117 5 0 0 0 - - -, f 5;
#X text -1 415 Negative amp goes here ->;
#X text 480 378 <- positive amp goes here;
#X text 648 8 <- not used as of now;
#X text 56 122 Recieve amp value from car ->;
#X obj 501 427 tgl 15 0 empty empty empty 17 7 0 10 -262144 -1 -1 1
1;
#N canvas 0 50 450 250 (subpatch) 0;
#X array tabr 2000 float 0;
#X coords 0 1 1999 -1 300 140 1 0 0;
#X restore 455 585 graph;
#N canvas 0 50 450 250 (subpatch) 0;
#X array tabl 2000 float 0;
#X coords 0 1 1999 -1 300 140 1 0 0;
#X restore 78 585 graph;
#X obj 501 470 tabwrite~ tabr;
#N canvas 0 50 1920 1128 amp_negative_smooth 0;
#X obj 390 1395 hip~ 600;
#X obj 46 1398 hip~ 600;
#X obj 47 1510 outlet~;
#X obj 390 1510 outlet~;
#X obj 46 1269 *~;
#X obj 388 1266 *~;
#X obj 389 1370 sub/dirty_limiter;
#X obj 46 1373 sub/dirty_limiter;
#X obj 176 -21 inlet;
#X text 209 0 <- offset;
#X obj 176 2 - 7;
#X obj 390 1479 +~;
#X obj 47 1478 +~;
#X obj 46 1420 *~ 0.8;
#X obj 389 1419 *~ 0.8;
#X msg 78 1290 \$1 20;
#X obj 78 1312 line~;
#X msg 420 1286 \$1 20;
#X obj 420 1308 line~;
#X obj 545 979 cnv 15 600 500 empty empty empty 20 12 0 14 -249595
-66577 0;
#X floatatom 640 1141 5 0 0 0 - - -, f 5;
#X floatatom 573 1104 5 0 0 0 - - -, f 5;
#X floatatom 864 1273 5 0 0 0 - - -, f 5;
#X floatatom 803 1210 5 0 0 0 - - -, f 5;
#X obj 864 1250 sub/clipscale 50 100 0.8 1;
#X obj 793 1305 sub/only_one_bang_please;
#X obj 838 1275 bng 15 250 50 0 empty empty empty 17 7 0 10 -241014
-132113 -1;
#X obj 793 1279 bng 15 250 50 0 empty empty empty 17 7 0 10 -241014
-132113 -1;
#X obj 570 1357 *~;
#X msg 793 1250 0 500;
#X msg 793 1327 1 500;
#X obj 570 1380 sub/delay ab 0.3 120;
#X obj 570 1402 sub/dirty_limiter;
#X obj 572 1123 osc~ 55;
#X obj 640 1096 * 0.1;
#X obj 640 1119 +;
#X obj 571 1179 +~;
#X obj 640 1163 osc~ 62;
#X obj 573 1052 sub/clipscale 0 100 35 70;
#X text 780 1135 VOLUME CONTROL;
#X text 781 1148 Activates/deactivates at a threshold set by moses
;
#X text 721 1228 thresh ->;
#X text 569 1003 Bass oscillators ("engine");
#X floatatom 639 1194 5 0 0 0 - - -, f 5;
#X obj 639 1236 *~ 0.1;
#X obj 571 1201 +~;
#X obj 792 1229 moses 0;
#X obj 639 1214 osc~ 123;
#X obj 569 1425 *~ 0.4;
#X obj 746 1327 line~;
#X obj 100 992 cnv 15 250 200 empty empty empty 20 12 0 14 -241467
-66577 0;
#X obj 114 1068 osc~;
#X obj 178 1126 osc~;
#X obj 178 1104 sub/scale 0 100 50 500;
#X obj 115 1099 *~ 0.5;
#X obj 178 1157 *~ 0.5;
#X obj 114 1046 sub/scale 0 100 50 700;
#X text 110 998 Background "engine sound" (sines);
#X obj -5 79 cnv 15 570 480 empty empty empty 20 12 0 14 -262130 -66577
0;
#X obj 124 348 bng 15 250 50 0 empty empty empty 17 7 0 10 -257985
-261682 -1;
#X floatatom 53 159 5 0 0 0 - - -, f 5;
#X floatatom 53 201 5 0 0 0 - - -, f 5;
#X obj 27 293 loadbang;
#X floatatom 283 159 5 0 0 0 - - -, f 5;
#X floatatom 283 201 5 0 0 0 - - -, f 5;
#X obj 96 469 *~;
#X obj 205 469 *~;
#X obj 285 324 vsl 15 70 0 1 0 0 empty empty empty 0 -9 0 10 -257985
-1 -1 6900 1;
#X text 49 137 tempo;
#X text 280 142 pitch/transpose;
#X floatatom 309 272 5 0 0 0 - - -, f 5;
#X floatatom 311 316 5 0 0 0 - - -, f 5;
#X floatatom 124 373 5 0 0 0 - - -, f 5;
#X obj 285 293 sub/scale 1 30 0 1;
#X obj 95 293 sub/seq 77 70 68;
#X obj 47 517 sub/delay del3 0.212 139;
#X obj 388 523 sub/delay del4 0.212 139;
#X obj 283 179 sub/clipscale 0 60 -20 3;
#X msg 285 406 \$1 20;
#X obj 285 428 line~;
#X text 331 405 <- prevents clicks/scratchs;
#X obj 53 179 sub/clipscale 0 60 200 50;
#X text 13 93 >>>> ARPEGGIATORS;
#X text 284 247 volume :>;
#X text 121 329 start/stop;
#X obj -4 576 cnv 15 480 390 empty empty empty 20 12 0 14 -261874 -66577
0;
#X obj 64 681 osc~;
#X obj 46 802 *~;
#X obj 46 934 +~;
#X obj 388 935 +~;
#X obj 389 795 *~;
#X obj 213 836 *~ 0.1;
#X obj 240 683 osc~;
#X floatatom 64 626 5 0 0 0 - - -, f 5;
#X obj 240 657 sub/clipscale 0 60 0 0.5;
#X floatatom 101 681 5 0 0 0 - - -, f 5;
#X floatatom 277 684 5 0 0 0 - - -, f 5;
#X obj 64 657 sub/clipscale 0 90 0 15;
#X text 129 589 >>>>>> Phaser/ring mod? <<<<<;
#X obj 211 24 cnv 15 80 25 empty empty empty 20 12 0 14 -261632 -66577
0;
#X obj 216 27 s to_phas;
#X obj 569 1025 cnv 15 80 25 empty empty empty 20 12 0 14 -261632 -66577
0;
#X obj 573 1030 r to_phas;
#X obj 785 1183 cnv 15 80 25 empty empty empty 20 12 0 14 -261632 -66577
0;
#X obj 792 1187 r to_phas;
#X obj 111 1019 cnv 15 80 25 empty empty empty 20 12 0 14 -261632 -66577
0;
#X obj 114 1024 r to_phas;
#X obj 174 1077 cnv 15 80 25 empty empty empty 20 12 0 14 -261632 -66577
0;
#X obj 178 1082 r to_phas;
#X obj 233 619 cnv 15 80 25 empty empty empty 20 12 0 14 -261632 -66577
0;
#X obj 240 622 r to_phas;
#X obj 302 375 cnv 15 50 25 empty empty empty 20 12 0 14 -221184 -66577
0;
#X obj 305 379 s vol;
#X obj 74 1263 cnv 15 50 25 empty empty empty 20 12 0 14 -221184 -66577
0;
#X obj 416 1259 cnv 15 50 25 empty empty empty 20 12 0 14 -221184 -66577
0;
#X obj 78 1268 r vol;
#X obj 420 1265 r vol;
#X connect 0 0 14 0;
#X connect 1 0 13 0;
#X connect 4 0 7 0;
#X connect 5 0 6 0;
#X connect 6 0 0 0;
#X connect 7 0 1 0;
#X connect 8 0 10 0;
#X connect 10 0 77 0;
#X connect 10 0 73 0;
#X connect 10 0 81 0;
#X connect 10 0 100 0;
#X connect 11 0 3 0;
#X connect 12 0 2 0;
#X connect 13 0 12 0;
#X connect 14 0 11 0;
#X connect 15 0 16 0;
#X connect 16 0 4 1;
#X connect 17 0 18 0;
#X connect 18 0 5 1;
#X connect 20 0 37 0;
#X connect 21 0 33 0;
#X connect 21 0 34 0;
#X connect 21 0 35 0;
#X connect 24 0 22 0;
#X connect 25 0 30 0;
#X connect 26 0 25 0;
#X connect 27 0 25 1;
#X connect 28 0 31 0;
#X connect 29 0 27 0;
#X connect 29 0 49 0;
#X connect 30 0 49 0;
#X connect 31 0 32 0;
#X connect 32 0 48 0;
#X connect 33 0 36 0;
#X connect 34 0 35 1;
#X connect 35 0 20 0;
#X connect 36 0 45 0;
#X connect 37 0 36 1;
#X connect 38 0 21 0;
#X connect 43 0 47 0;
#X connect 44 0 45 1;
#X connect 45 0 28 0;
#X connect 46 0 29 0;
#X connect 46 1 24 0;
#X connect 46 1 26 0;
#X connect 47 0 44 0;
#X connect 48 0 11 1;
#X connect 48 0 12 1;
#X connect 49 0 28 1;
#X connect 51 0 54 0;
#X connect 52 0 55 0;
#X connect 53 0 52 0;
#X connect 54 0 4 0;
#X connect 54 0 5 0;
#X connect 55 0 4 0;
#X connect 55 0 5 0;
#X connect 56 0 51 0;
#X connect 59 0 72 0;
#X connect 59 0 74 0;
#X connect 60 0 81 0;
#X connect 61 0 74 1;
#X connect 62 0 74 0;
#X connect 63 0 77 0;
#X connect 64 0 74 2;
#X connect 65 0 75 0;
#X connect 66 0 76 0;
#X connect 67 0 78 0;
#X connect 67 0 112 0;
#X connect 70 0 73 0;
#X connect 72 0 67 0;
#X connect 73 0 71 0;
#X connect 73 0 67 0;
#X connect 74 0 65 0;
#X connect 74 1 66 0;
#X connect 75 0 87 0;
#X connect 76 0 90 0;
#X connect 77 0 64 0;
#X connect 78 0 79 0;
#X connect 79 0 66 1;
#X connect 79 0 65 1;
#X connect 81 0 61 0;
#X connect 86 0 87 1;
#X connect 86 0 90 0;
#X connect 86 0 91 0;
#X connect 87 0 88 0;
#X connect 88 0 4 0;
#X connect 89 0 5 0;
#X connect 90 0 89 0;
#X connect 91 0 88 1;
#X connect 91 0 89 1;
#X connect 92 0 87 1;
#X connect 92 0 90 1;
#X connect 93 0 94 0;
#X connect 93 0 97 0;
#X connect 94 0 92 0;
#X connect 94 0 96 0;
#X connect 97 0 86 0;
#X connect 97 0 95 0;
#X connect 102 0 38 0;
#X connect 104 0 23 0;
#X connect 104 0 46 0;
#X connect 106 0 56 0;
#X connect 108 0 53 0;
#X connect 110 0 94 0;
#X connect 110 0 97 0;
#X connect 115 0 15 0;
#X connect 116 0 17 0;
#X restore 181 415 pd amp_negative_smooth;
#X obj 501 493 tabwrite~ tabl;
#X obj 614 465 bng 15 250 50 0 empty empty empty 17 7 0 10 -262144
-1 -1;
#X obj 543 446 metro 48;
#X text 478 142 offset;
#X floatatom 547 144 5 0 0 0 - - -, f 5;
#X obj 547 163 s slider1;
#X obj 221 200 - 0;
#X obj 364 200 - 0;
#X obj 404 164 * 20;
#X obj 404 142 r slider1;
#X obj 405 229 r slider2;
#X text 479 230 scale;
#X obj 221 290 * 1;
#X obj 364 290 * 1;
#X floatatom 545 228 5 0 0 0 - - -, f 5;
#X obj 545 247 / 1000;
#X obj 596 247 s slider2;
#X floatatom 545 269 5 0 0 0 - - -, f 5;
#X floatatom 428 271 5 0 0 0 - - -, f 5;
#X obj 406 251 + 1;
#N canvas 59 50 1080 764 amp_negative_2 0;
#X obj 215 324 osc~;
#X obj 240 398 *~;
#X obj 333 337 osc~;
#X obj 333 359 +~ 1;
#X obj 333 381 *~ 0.5;
#X obj 240 372 *~;
#X floatatom 274 284 5 0 0 0 - - -, f 5;
#X obj 333 315 / 20;
#X floatatom 274 136 5 0 0 0 - - -, f 5;
#X floatatom 215 222 5 0 0 0 - - -, f 5;
#X obj 274 314 phasor~;
#X obj 472 230 osc~;
#X floatatom 472 211 5 0 0 0 - - -, f 5;
#X obj 563 273 osc~;
#X obj 563 295 +~ 1;
#X obj 472 349 *~;
#X msg 563 250 0.7;
#X obj 422 423 *~;
#X obj 472 488 *~;
#X obj 391 293 phasor~;
#X obj 650 312 osc~;
#X obj 650 335 +~ 1;
#X msg 650 288 30;
#X obj 391 315 *~ 0.4;
#X obj 274 336 *~ 0.4;
#X obj 641 517 osc~;
#X msg 641 494 0.2;
#X obj 641 539 *~ 0.5;
#X obj 790 337 osc~;
#X obj 790 359 +~ 1;
#X obj 790 382 *~;
#X msg 790 315 400;
#X obj 274 112 inlet;
#X obj 423 578 outlet~;
#X obj 240 576 outlet~;
#X obj 51 280 vsl 15 128 0 1 0 0 empty empty empty 0 -9 0 10 -262144
-1 -1 12700 1;
#X obj 325 112 s amp_in_neg;
#X obj 51 230 r amp_in_neg;
#X obj 423 547 *~;
#X obj 241 504 *~;
#X obj 790 233 loadbang;
#X text 50 207 Volume;
#X obj 842 341 r amp_in_neg;
#X text 841 322 volume;
#X text -38 8 This one is hard to explain but lower amp (higher as
it gets here) means more unpleasant sound. Try it out to hear for yourself
\, and look at the clipscale parameter numbers to figure out when certain
effects kick in.;
#X obj 274 212 sub/scale 0 30 20 100;
#X text 678 446 <- prevent clipping;
#X obj 551 445 sub/dirty_limiter;
#X obj 422 445 sub/dirty_limiter;
#X obj 563 317 *~ 0.3;
#X obj 649 357 *~ 0.5;
#X obj 790 407 *~ 0.3;
#X obj 486 553 -~ 0.1;
#X obj 486 575 sub/dirty_limiter;
#X obj 215 186 sub/clipscale 0 30 50 200;
#X obj 472 188 sub/clipscale 0 30 50 200;
#X obj 51 255 sub/clipscale 3 30 0 1;
#X obj 842 364 sub/clipscale 30 50 0 1.2;
#X connect 0 0 5 0;
#X connect 1 0 39 0;
#X connect 1 0 38 0;
#X connect 2 0 3 0;
#X connect 3 0 4 0;
#X connect 4 0 1 1;
#X connect 5 0 1 0;
#X connect 6 0 7 0;
#X connect 6 0 10 0;
#X connect 7 0 2 0;
#X connect 8 0 45 0;
#X connect 8 0 54 0;
#X connect 8 0 55 0;
#X connect 9 0 0 0;
#X connect 10 0 24 0;
#X connect 11 0 15 0;
#X connect 12 0 11 0;
#X connect 13 0 14 0;
#X connect 14 0 49 0;
#X connect 15 0 17 0;
#X connect 15 0 18 0;
#X connect 16 0 13 0;
#X connect 17 0 48 0;
#X connect 18 0 39 0;
#X connect 19 0 23 0;
#X connect 20 0 21 0;
#X connect 21 0 50 0;
#X connect 22 0 20 0;
#X connect 24 0 5 1;
#X connect 25 0 27 0;
#X connect 26 0 25 0;
#X connect 27 0 18 1;
#X connect 28 0 29 0;
#X connect 29 0 30 0;
#X connect 30 0 47 0;
#X connect 30 0 51 0;
#X connect 31 0 28 0;
#X connect 32 0 8 0;
#X connect 32 0 36 0;
#X connect 35 0 39 1;
#X connect 35 0 38 1;
#X connect 37 0 56 0;
#X connect 38 0 52 0;
#X connect 39 0 34 0;
#X connect 40 0 16 0;
#X connect 40 0 22 0;
#X connect 40 0 26 0;
#X connect 40 0 31 0;
#X connect 42 0 57 0;
#X connect 45 0 6 0;
#X connect 45 0 19 0;
#X connect 47 0 18 1;
#X connect 48 0 38 0;
#X connect 49 0 15 1;
#X connect 50 0 17 1;
#X connect 51 0 17 0;
#X connect 52 0 53 0;
#X connect 53 0 33 0;
#X connect 54 0 9 0;
#X connect 55 0 12 0;
#X connect 56 0 35 0;
#X connect 57 0 30 1;
#X restore 221 380 pd amp_negative_2;
#X text 36 379 Negative amp goes here ->;
#X obj -19 -15 cnv 15 444 90 empty empty empty 20 12 0 14 -241659 -66577
0;
#X text -5 6 Uses amp to provide continuous feedback to the driver.
When amp is positive \, a pleasant crescendo-arpeggio is heard. When
amp is negative \, an unpleasant sound environment is created.;
#X text -4 -10 >>>>> Original description:;
#X connect 1 0 8 0;
#X connect 2 0 0 0;
#X connect 2 1 0 1;
#X connect 3 0 4 0;
#X connect 5 0 6 0;
#X connect 5 0 19 0;
#X connect 5 1 6 1;
#X connect 5 1 17 0;
#X connect 7 0 25 0;
#X connect 8 0 7 0;
#X connect 8 1 26 0;
#X connect 9 0 8 0;
#X connect 14 0 21 0;
#X connect 18 0 6 0;
#X connect 18 0 19 0;
#X connect 18 1 6 1;
#X connect 18 1 17 0;
#X connect 21 0 17 0;
#X connect 21 0 19 0;
#X connect 21 0 20 0;
#X connect 23 0 24 0;
#X connect 25 0 31 0;
#X connect 26 0 32 0;
#X connect 27 0 26 1;
#X connect 27 0 25 1;
#X connect 28 0 27 0;
#X connect 29 0 38 0;
#X connect 31 0 18 0;
#X connect 31 0 39 0;
#X connect 32 0 5 0;
#X connect 33 0 34 0;
#X connect 34 0 35 0;
#X connect 34 0 36 0;
#X connect 38 0 31 1;
#X connect 38 0 32 1;
#X connect 38 0 37 0;
