#N canvas 1187 153 440 322 10;
#X obj 18 19 r amp_high;
#X obj 267 21 r amp_low;
#X text 363 21 bang;
#X text 101 20 bang;
#X obj 264 467 dac~;
#X obj 189 20 r amp;
#N canvas 1195 74 558 714 amp_speed_sound 0;
#X obj -421 392 bng 15 250 50 0 empty empty empty 17 7 0 10 -262144
-1 -1;
#X floatatom -263 343 5 0 0 0 - - -, f 5;
#X floatatom -232 176 5 0 0 0 - - -, f 5;
#X floatatom -219 343 5 0 0 0 - - -, f 5;
#X obj -380 350 loadbang;
#X obj -136 81 abs;
#X floatatom -65 181 5 0 0 0 - - -, f 5;
#X floatatom -65 234 5 0 0 0 - - -, f 5;
#X obj -274 506 *~;
#X obj -164 507 *~;
#X obj -114 433 vsl 15 70 0 1 0 0 empty empty empty 0 -9 0 10 -262144
-1 -1 6900 1;
#X text -89 433 volum :>;
#X text -232 155 tempo;
#X text -70 158 pitch/transpose;
#X floatatom -66 366 5 0 0 0 - - -, f 5;
#X floatatom -10 420 5 0 0 0 - - -, f 5;
#X floatatom -82 43 5 0 0 0 - - -, f 5;
#X obj -231 235 expr 800 - $f1;
#X text -381 279 floor -->;
#X floatatom -421 417 5 0 0 0 - - -, f 5;
#X obj -150 596 hip~ 600;
#X obj -297 597 hip~ 600;
#N canvas 736 555 567 481 delay1 0;
#X obj 70 26 inlet~;
#X obj 75 212 outlet~;
#X text 75 123 <-- feedebeck --->;
#X obj 21 121 *~ 0.212;
#X obj 69 74 delwrite~ del_4 500;
#X obj 76 164 delread~ del_4 139.3;
#X connect 0 0 4 0;
#X connect 3 0 4 0;
#X connect 5 0 1 0;
#X connect 5 0 3 0;
#X restore -153 554 pd delay1;
#N canvas 530 543 450 300 delay2 0;
#X obj 84 31 inlet~;
#X obj 89 217 outlet~;
#X text 89 128 <-- feedebeck --->;
#X obj 35 126 *~ 0.212;
#X obj 81 79 delwrite~ del_3 500;
#X obj 90 169 delread~ del_3 139.3;
#X connect 0 0 4 0;
#X connect 3 0 4 0;
#X connect 5 0 1 0;
#X connect 5 0 3 0;
#X restore -286 554 pd delay2;
#X obj -230 37 inlet;
#X obj -297 636 outlet~;
#X obj -151 627 outlet~;
#X obj -309 273 expr $f1 \; if ($f1 > 50 \, $f1 \, 50) \;;
#X obj -234 207 sub/scale 3 30 800 20;
#X obj -101 389 sub/scale 3 30 0 1;
#X obj -64 207 sub/scale 0 20 -3 3;
#X obj -273 407 sub/seq 55 64 67;
#X connect 0 0 19 0;
#X connect 0 0 31 0;
#X connect 1 0 31 1;
#X connect 2 0 28 0;
#X connect 3 0 31 1;
#X connect 4 0 31 0;
#X connect 5 0 28 0;
#X connect 5 0 29 0;
#X connect 5 0 30 0;
#X connect 6 0 30 0;
#X connect 7 0 31 2;
#X connect 8 0 23 0;
#X connect 9 0 22 0;
#X connect 10 0 9 1;
#X connect 10 0 8 1;
#X connect 14 0 29 0;
#X connect 16 0 5 0;
#X connect 19 0 10 0;
#X connect 20 0 26 0;
#X connect 21 0 25 0;
#X connect 22 0 20 0;
#X connect 23 0 21 0;
#X connect 24 0 5 0;
#X connect 27 1 3 0;
#X connect 28 0 27 0;
#X connect 29 0 10 0;
#X connect 29 0 15 0;
#X connect 30 0 7 0;
#X connect 31 0 8 0;
#X connect 31 1 9 0;
#X restore 230 410 pd amp_speed_sound;
#X obj 290 360 r speed;
#X obj 220 381 /;
#N canvas 475 244 1217 778 amp_positive 1;
#X obj 19 294 bng 15 250 50 0 empty empty empty 17 7 0 10 -262144 -1
-1;
#X floatatom 168 240 5 0 0 0 - - -, f 5;
#X floatatom 131 124 5 0 0 0 - - -, f 5;
#X floatatom 210 240 5 0 0 0 - - -, f 5;
#X obj 60 252 loadbang;
#X floatatom 452 64 5 0 0 0 - - -, f 5;
#X floatatom 452 112 5 0 0 0 - - -, f 5;
#X obj 166 408 *~;
#X obj 276 409 *~;
#X obj 326 335 vsl 15 70 0 1 0 0 empty empty empty 0 -9 0 10 -262144
-1 -1 276 1;
#X text 351 335 volum :>;
#X text 131 103 tempo;
#X text 447 41 pitch/transpose;
#X floatatom 374 268 5 0 0 0 - - -, f 5;
#X floatatom 430 322 5 0 0 0 - - -, f 5;
#X text 59 181 floor -->;
#X floatatom 19 319 5 0 0 0 - - -, f 5;
#X obj 276 502 hip~ 600;
#X obj 143 499 hip~ 600;
#X obj 452 88 sub/scale 0 20 -3 3;
#X obj 131 176 expr $f1 \; if ($f1 > 50 \, $f1 \, 50) \;;
#X obj 29 32 inlet;
#X obj 144 539 outlet~;
#X obj 276 541 outlet~;
#X obj 57 452 sub/delay del1 0.212 139;
#X obj 276 470 sub/delay del2 0.211 139;
#X obj 167 309 sub/seq 55 64 67;
#X obj 622 308 sub/seq 55 64 67;
#X obj 712 221 r tempo;
#X obj 325 214 s tempo;
#X text 630 166 == Super harmonics? ==;
#X obj 622 276 loadbang;
#X obj 601 276 bng 15 250 50 0 empty empty empty 17 7 0 10 -262144
-1 -1;
#X obj 668 368 +~;
#X obj 669 414 *~;
#X msg 731 275 24, f 2;
#X obj 131 149 sub/scale 0 30 300 20;
#X obj 326 296 sub/scale 5 30 0 1;
#X obj 669 390 /~ 2;
#X obj 712 243 / 1.5;
#X text 730 355 Volume;
#X text 578 222 Slightly faster ->;
#X text 25 10 Get amp and send to the different parts;
#X text 384 213 Send ->;
#X obj 484 630 osc~;
#X obj 485 654 *~;
#X text 613 584 Only play when amp is going up;
#X obj 698 602 >;
#X obj 698 655 line;
#X msg 698 629 \$1 100;
#X obj 239 615 sub/delay spliffycrack 0.3 200;
#X text 449 552 == Play a rising sine in the background when amp is
increasing ==;
#X text 579 184 Creates a brighter "bllrlrl" for when shit really hits
the fan (i.e. amp is "really high");
#X obj 77 32 s amp_in_pos;
#X obj 484 585 r amp_in_pos;
#X obj 732 374 r amp_in_pos;
#X obj 326 245 r amp_in_pos;
#X obj 360 61 r amp_in_pos;
#X obj 36 122 r amp_in_pos;
#X obj 732 398 sub/clipscale 20 60 0 0.6;
#X obj 821 280 loadbang;
#X obj 485 684 *~ 0.3;
#X obj 484 607 sub/scale 0 30 20 600;
#X connect 0 0 16 0;
#X connect 0 0 26 0;
#X connect 1 0 26 1;
#X connect 2 0 36 0;
#X connect 3 0 26 1;
#X connect 4 0 26 0;
#X connect 5 0 19 0;
#X connect 7 0 24 0;
#X connect 8 0 25 0;
#X connect 9 0 8 1;
#X connect 9 0 7 1;
#X connect 13 0 37 0;
#X connect 16 0 9 0;
#X connect 17 0 23 0;
#X connect 18 0 22 0;
#X connect 19 0 6 0;
#X connect 20 1 3 0;
#X connect 20 1 29 0;
#X connect 21 0 53 0;
#X connect 24 0 18 0;
#X connect 25 0 17 0;
#X connect 26 0 7 0;
#X connect 26 1 8 0;
#X connect 27 0 33 0;
#X connect 27 1 33 1;
#X connect 28 0 39 0;
#X connect 31 0 27 0;
#X connect 32 0 27 0;
#X connect 33 0 38 0;
#X connect 34 0 24 0;
#X connect 34 0 25 0;
#X connect 35 0 27 2;
#X connect 36 0 20 0;
#X connect 37 0 9 0;
#X connect 37 0 14 0;
#X connect 38 0 34 0;
#X connect 39 0 27 1;
#X connect 44 0 45 0;
#X connect 45 0 61 0;
#X connect 47 0 49 0;
#X connect 48 0 45 1;
#X connect 49 0 48 0;
#X connect 50 0 17 0;
#X connect 50 0 18 0;
#X connect 54 0 47 0;
#X connect 54 0 47 1;
#X connect 54 0 62 0;
#X connect 55 0 59 0;
#X connect 56 0 37 0;
#X connect 57 0 19 0;
#X connect 58 0 36 0;
#X connect 59 0 34 1;
#X connect 60 0 35 0;
#X connect 61 0 50 0;
#X connect 62 0 44 0;
#X restore 287 210 pd amp_positive;
#X obj 257 269 dac~;
#N canvas 907 78 812 848 amp_negative 0;
#X obj 19 294 bng 15 250 50 0 empty empty empty 17 7 0 10 -262144 -1
-1;
#X floatatom 150 217 5 0 0 0 - - -, f 5;
#X floatatom 131 124 5 0 0 0 - - -, f 5;
#X floatatom 263 214 5 0 0 0 - - -, f 5;
#X obj 60 252 loadbang;
#X floatatom 388 115 5 0 0 0 - - -, f 5;
#X floatatom 388 163 5 0 0 0 - - -, f 5;
#X obj 166 408 *~;
#X obj 276 409 *~;
#X obj 319 335 vsl 15 70 0 1 0 0 empty empty empty 0 -9 0 10 -262144
-1 -1 0 1;
#X text 351 335 volum :>;
#X text 131 103 tempo;
#X text 383 92 pitch/transpose;
#X floatatom 374 268 5 0 0 0 - - -, f 5;
#X floatatom 430 322 5 0 0 0 - - -, f 5;
#X text 59 181 floor -->;
#X floatatom 19 319 5 0 0 0 - - -, f 5;
#X obj 337 668 hip~ 600;
#X obj 19 671 hip~ 600;
#X obj 131 176 expr $f1 \; if ($f1 > 50 \, $f1 \, 50) \;;
#X obj 284 25 inlet;
#X obj 19 692 outlet~;
#X obj 337 690 outlet~;
#X obj 70 457 sub/delay del3 0.212 139;
#X obj 298 454 sub/delay del4 0.212 139;
#X obj 343 294 sub/scale 1 30 0 1;
#X obj 388 139 sub/scale 0 20 3 -3;
#X obj 131 149 sub/scale 0 30 200 800;
#X obj 346 52 s to_phas;
#X obj 159 494 r to_phas;
#X obj 175 689 print;
#X obj 119 547 osc~;
#X obj 68 573 *~;
#X obj 124 586 *~;
#X obj 172 643 phasor~;
#X obj 41 613 +~;
#X obj 118 516 sub/scale 0 30 0 5;
#X obj 386 392 s vol;
#X obj -3 578 r vol;
#X obj 28 644 *~;
#X obj 159 555 sub/scale 0 30 0 100;
#X obj 286 638 +~;
#X obj 242 603 r vol;
#X obj 273 669 *~;
#X obj 307 608 *~;
#X obj 99 617 *~ 0.1;
#X obj 167 309 sub/seq 70 70 70;
#X connect 0 0 16 0;
#X connect 0 0 46 0;
#X connect 1 0 46 1;
#X connect 2 0 27 0;
#X connect 3 0 46 1;
#X connect 4 0 46 0;
#X connect 5 0 26 0;
#X connect 6 0 46 2;
#X connect 7 0 23 0;
#X connect 8 0 24 0;
#X connect 9 0 8 1;
#X connect 9 0 7 1;
#X connect 9 0 37 0;
#X connect 13 0 25 0;
#X connect 16 0 9 0;
#X connect 17 0 22 0;
#X connect 18 0 21 0;
#X connect 19 1 3 0;
#X connect 20 0 25 0;
#X connect 20 0 26 0;
#X connect 20 0 27 0;
#X connect 20 0 28 0;
#X connect 23 0 32 0;
#X connect 24 0 44 1;
#X connect 25 0 9 0;
#X connect 25 0 14 0;
#X connect 26 0 6 0;
#X connect 27 0 19 0;
#X connect 29 0 36 0;
#X connect 29 0 40 0;
#X connect 31 0 32 1;
#X connect 31 0 33 0;
#X connect 31 0 44 0;
#X connect 32 0 35 0;
#X connect 33 0 45 0;
#X connect 34 0 33 1;
#X connect 35 0 39 0;
#X connect 36 0 31 0;
#X connect 38 0 39 1;
#X connect 39 0 18 0;
#X connect 40 0 34 0;
#X connect 41 0 43 0;
#X connect 42 0 43 1;
#X connect 43 0 17 0;
#X connect 44 0 41 0;
#X connect 45 0 35 1;
#X connect 45 0 41 1;
#X connect 46 0 7 0;
#X connect 46 1 8 0;
#X restore 60 117 pd amp_negative;
#X obj 149 178 abs;
#X obj 241 94 moses 0;
#X floatatom 241 68 5 0 0 0 - - -, f 5;
#N canvas 240 214 871 728 amp_negative_2 0;
#X obj 60 226 osc~;
#X obj 83 300 *~;
#X obj 172 236 osc~;
#X obj 172 258 +~ 1;
#X obj 172 280 *~ 0.5;
#X obj 83 274 *~;
#X floatatom 127 186 5 0 0 0 - - -, f 5;
#X obj 191 209 / 20;
#X floatatom 104 38 5 0 0 0 - - -, f 5;
#X floatatom 58 124 5 0 0 0 - - -, f 5;
#X obj 111 215 phasor~;
#X obj 58 88 sub/clipscale 0 30 50 200;
#X obj 315 212 osc~;
#X floatatom 315 126 5 0 0 0 - - -, f 5;
#X obj 315 90 sub/clipscale 0 30 50 200;
#X obj 406 212 osc~;
#X obj 406 234 +~ 1;
#X obj 406 256 *~ 0.5;
#X obj 315 269 *~;
#X msg 407 186 0.7;
#X obj 265 325 *~;
#X obj 332 354 *~, f 4;
#X obj 234 261 phasor~;
#X obj 481 277 osc~;
#X obj 456 308 +~ 1;
#X obj 456 330 *~ 0.5;
#X msg 486 250 30;
#X obj 234 283 *~ 0.4;
#X obj 111 237 *~ 0.4;
#X obj 117 114 sub/scale 0 30 20 100;
#X obj 525 329 osc~;
#X msg 525 306 0.2;
#X obj 525 351 *~ 0.5;
#X obj 606 419 osc~;
#X obj 606 441 +~ 1;
#X obj 606 473 *~;
#X obj 428 393 sub/clipscale 30 50 0 1;
#X msg 606 397 400;
#X obj 499 510 *~ 0.3;
#X obj 107 14 inlet;
#X obj 206 455 outlet~;
#X obj 104 490 outlet~;
#X obj -35 396 vsl 15 128 0 1 0 0 empty empty empty 0 -9 0 10 -262144
-1 -1 12700 1;
#X obj 173 30 s amp_in_neg;
#X obj -77 312 r amp_in_neg;
#X obj 256 410 *~;
#X obj 113 429 *~;
#X obj 641 96 loadbang;
#X obj -77 356 sub/clipscale 3 30 0 1;
#X connect 0 0 5 0;
#X connect 1 0 46 0;
#X connect 1 0 45 0;
#X connect 2 0 3 0;
#X connect 3 0 4 0;
#X connect 4 0 1 1;
#X connect 5 0 1 0;
#X connect 6 0 7 0;
#X connect 6 0 10 0;
#X connect 7 0 2 0;
#X connect 8 0 11 0;
#X connect 8 0 14 0;
#X connect 8 0 29 0;
#X connect 8 0 36 0;
#X connect 9 0 0 0;
#X connect 10 0 28 0;
#X connect 11 0 9 0;
#X connect 12 0 18 0;
#X connect 13 0 12 0;
#X connect 14 0 13 0;
#X connect 15 0 16 0;
#X connect 16 0 17 0;
#X connect 17 0 18 1;
#X connect 18 0 20 0;
#X connect 18 0 21 0;
#X connect 19 0 15 0;
#X connect 20 0 45 0;
#X connect 21 0 46 0;
#X connect 22 0 27 0;
#X connect 23 0 24 0;
#X connect 24 0 25 0;
#X connect 25 0 20 1;
#X connect 26 0 23 0;
#X connect 28 0 5 1;
#X connect 29 0 6 0;
#X connect 29 0 22 0;
#X connect 30 0 32 0;
#X connect 31 0 30 0;
#X connect 32 0 21 1;
#X connect 33 0 34 0;
#X connect 34 0 35 0;
#X connect 35 0 38 0;
#X connect 35 0 21 1;
#X connect 36 0 35 1;
#X connect 37 0 33 0;
#X connect 38 0 20 0;
#X connect 39 0 8 0;
#X connect 39 0 43 0;
#X connect 42 0 46 1;
#X connect 42 0 45 1;
#X connect 44 0 48 0;
#X connect 45 0 40 0;
#X connect 46 0 41 0;
#X connect 47 0 19 0;
#X connect 47 0 26 0;
#X connect 47 0 31 0;
#X connect 47 0 37 0;
#X connect 48 0 42 0;
#X restore 144 211 pd amp_negative_2;
#X connect 5 0 13 0;
#X connect 6 0 4 0;
#X connect 6 1 4 1;
#X connect 7 0 8 0;
#X connect 9 0 10 0;
#X connect 9 1 10 1;
#X connect 12 0 15 0;
#X connect 13 0 12 0;
#X connect 13 1 9 0;
#X connect 14 0 13 0;
#X connect 15 0 10 0;
#X connect 15 0 10 1;
