#N canvas 202 184 813 444 10;
#X obj 117 -29 r amp;
#N canvas 0 50 450 300 amping_down 0;
#X restore -11 162 pd amping_down;
#X obj 143 95 dac~;
#X floatatom 117 23 5 0 0 0 - - -, f 5;
#X floatatom -10 189 5 0 0 0 - - -, f 5;
#X msg -10 208 200;
#X floatatom -10 230 5 0 0 0 - - -, f 5;
#N canvas 127 90 868 692 amping_up 1;
#X obj 122 15 inlet;
#X obj 188 598 outlet~;
#X obj 296 601 outlet~;
#X floatatom 245 277 5 0 0 0 - - -, f 5;
#X obj 245 252 +;
#X msg 264 213 1, f 1;
#X obj 188 447 sub/seq 55 64 67;
#X obj 215 343 loadbang;
#X obj 51 403 loadbang;
#X msg 215 365 40;
#X obj 348 422 line;
#X floatatom 348 447 5 0 0 0 - - -, f 5;
#X msg 382 307 0;
#X obj 348 307 * 1;
#X obj 382 280 r play_sound;
#X obj 348 345 +;
#X msg 400 380 0;
#X obj 140 201 s play_sound;
#X msg 348 367 1 \$1;
#X obj 400 355 r reset_sound;
#X obj 414 99 r play_sound;
#X obj 414 125 bng 15 250 50 0 empty empty empty 17 7 0 10 -260145
-1 -1;
#X msg 414 194 0;
#X obj 188 486 *~;
#X obj 293 492 *~;
#X obj 414 216 s reset_sound;
#X text 393 418 <- use number of "positive amp steps taken" for the
duration (volume and pitch transition) of the reward sound effect;
#X obj 302 420 * 20;
#X obj 106 534 sub/delay licketysplit 0.212 139;
#X obj 359 534 sub/delay gooddaymygooddeladylay 0.212 139;
#X msg 149 263 0;
#X floatatom 493 176 5 0 0 0 - - -, f 5;
#X obj 416 508 tgl 15 0 empty empty empty 17 7 0 10 -262144 -1 -1 0
1;
#X obj 417 452 r reset_sound;
#X msg 417 474 0;
#X obj 288 150 s activate;
#X obj 532 453 r activate;
#X msg 532 475 1;
#X obj 348 473 *~ 1;
#X obj 288 121 > 2;
#X obj 414 169 del;
#X obj 414 145 sub/only_one_bang_please;
#X obj 579 123 bng 15 250 50 0 empty empty empty 17 7 0 10 -4034 -204786
-1;
#X obj 579 100 r reset_sound;
#X msg 204 299 1000;
#X obj 446 123 + 100;
#X floatatom 141 419 5 0 0 0 - - -, f 5;
#X obj 141 397 sub/clipscale 0 1 100 40;
#X obj 199 122 moses;
#X obj 166 33 inlet;
#X text 165 15 Left inlet: amp;
#X text 210 31 Right inlet: Threshold ("amp > this" counts);
#X text 281 249 <- Counts up as long as input is above threshold;
#X connect 0 0 48 0;
#X connect 3 0 4 1;
#X connect 3 0 13 0;
#X connect 3 0 45 0;
#X connect 4 0 3 0;
#X connect 6 0 23 0;
#X connect 6 1 24 0;
#X connect 7 0 9 0;
#X connect 8 0 6 0;
#X connect 9 0 6 1;
#X connect 10 0 11 0;
#X connect 10 0 27 0;
#X connect 10 0 47 0;
#X connect 11 0 38 0;
#X connect 12 0 15 0;
#X connect 13 0 15 1;
#X connect 14 0 12 0;
#X connect 15 0 18 0;
#X connect 16 0 10 0;
#X connect 18 0 10 0;
#X connect 19 0 16 0;
#X connect 20 0 21 0;
#X connect 21 0 41 0;
#X connect 22 0 3 0;
#X connect 22 0 25 0;
#X connect 23 0 28 0;
#X connect 24 0 29 0;
#X connect 27 0 6 2;
#X connect 28 0 1 0;
#X connect 29 0 2 0;
#X connect 32 0 38 1;
#X connect 33 0 34 0;
#X connect 34 0 32 0;
#X connect 34 0 6 2;
#X connect 36 0 37 0;
#X connect 37 0 32 0;
#X connect 38 0 24 1;
#X connect 38 0 23 1;
#X connect 39 0 35 0;
#X connect 40 0 22 0;
#X connect 41 0 40 0;
#X connect 42 0 41 1;
#X connect 43 0 42 0;
#X connect 44 0 3 0;
#X connect 45 0 31 0;
#X connect 45 0 40 1;
#X connect 47 0 6 1;
#X connect 47 0 46 0;
#X connect 48 0 17 0;
#X connect 48 0 30 0;
#X connect 48 1 5 0;
#X connect 48 1 39 0;
#X connect 48 1 4 0;
#X connect 49 0 48 1;
#X restore 117 51 pd amping_up;
#X msg 174 -112 0;
#X obj 320 -35 r amp;
#X obj 320 -13 moses;
#X text 207 -113 <- Decide here the threshold for "good amp" \, i.e.
amp values that should be rewarded with pleasant sound effects;
#X obj 352 114 amp_indication_synth;
#X obj 352 20 bng 15 250 50 0 empty empty empty 17 7 0 10 -262144 -1
-1;
#X obj 352 44 sub/only_one_bang_please;
#X obj 352 88 line;
#X obj 320 20 bng 15 250 50 0 empty empty empty 17 7 0 10 -262144 -1
-1;
#X floatatom 381 11 5 0 0 0 - - -, f 5;
#X floatatom 265 -27 5 0 0 0 - - -, f 5;
#X obj 354 225 dac~;
#X msg 352 66 1 15000;
#X obj 353 197 *~;
#X obj 386 197 *~;
#X obj 294 166 line;
#X msg 294 88 0 2000;
#X msg 310 113 0.8;
#X msg 294 66 0 700;
#X connect 0 0 3 0;
#X connect 3 0 7 0;
#X connect 3 0 8 0;
#X connect 3 0 10 0;
#X connect 4 0 5 0;
#X connect 5 0 6 0;
#X connect 7 0 2 0;
#X connect 7 1 2 1;
#X connect 8 0 7 1;
#X connect 8 0 10 1;
#X connect 9 0 10 0;
#X connect 10 0 16 0;
#X connect 10 0 17 0;
#X connect 10 1 13 0;
#X connect 12 0 21 0;
#X connect 12 1 22 0;
#X connect 13 0 14 0;
#X connect 14 0 20 0;
#X connect 14 0 25 0;
#X connect 15 0 12 0;
#X connect 16 0 26 0;
#X connect 16 0 14 1;
#X connect 18 0 10 0;
#X connect 20 0 15 0;
#X connect 21 0 19 0;
#X connect 22 0 19 1;
#X connect 23 0 21 1;
#X connect 23 0 22 1;
#X connect 24 0 23 0;
#X connect 25 0 23 0;
#X connect 26 0 15 0;
#X connect 26 0 24 0;
