#N canvas 923 528 619 441 10;
#X obj 60 226 osc~;
#X obj 83 300 *~;
#X obj 82 362 dac~;
#X obj 172 236 osc~;
#X obj 172 258 +~ 1;
#X obj 172 280 *~ 0.5;
#X obj 83 274 *~;
#X obj 111 237 *~ 0.2;
#X floatatom 127 186 5 0 0 0 - - -, f 5;
#X obj 191 209 / 20;
#X floatatom 104 38 5 0 0 0 - - -, f 5;
#X floatatom 58 124 5 0 0 0 - - -, f 5;
#X obj 111 215 phasor~;
#X obj 117 114 sub/clipscale 0 30 20 100;
#X obj 58 88 sub/clipscale 0 30 50 200;
#X obj 315 212 osc~;
#X floatatom 315 126 5 0 0 0 - - -, f 5;
#X obj 315 90 sub/clipscale 0 30 50 200;
#X obj 406 212 osc~;
#X obj 406 234 +~ 1;
#X obj 406 256 *~ 0.5;
#X obj 315 269 *~;
#X msg 407 186 0.7;
#X obj 265 325 *~;
#X obj 332 354 *~;
#X obj 357 310 *~ 0.2;
#X obj 357 288 phasor~;
#X obj 483 290 osc~;
#X obj 483 312 +~ 1;
#X obj 483 334 *~ 0.5;
#X msg 488 263 30;
#X connect 0 0 6 0;
#X connect 1 0 2 0;
#X connect 1 0 2 1;
#X connect 3 0 4 0;
#X connect 4 0 5 0;
#X connect 5 0 1 1;
#X connect 6 0 1 0;
#X connect 7 0 6 1;
#X connect 8 0 9 0;
#X connect 8 0 12 0;
#X connect 9 0 3 0;
#X connect 10 0 13 0;
#X connect 10 0 14 0;
#X connect 10 0 17 0;
#X connect 11 0 0 0;
#X connect 12 0 7 0;
#X connect 13 0 8 0;
#X connect 13 0 26 0;
#X connect 14 0 11 0;
#X connect 15 0 21 0;
#X connect 16 0 15 0;
#X connect 17 0 16 0;
#X connect 18 0 19 0;
#X connect 19 0 20 0;
#X connect 20 0 21 1;
#X connect 21 0 23 0;
#X connect 21 0 24 0;
#X connect 22 0 18 0;
#X connect 23 0 2 0;
#X connect 24 0 2 1;
#X connect 26 0 25 0;
#X connect 27 0 28 0;
#X connect 28 0 29 0;
#X connect 29 0 24 1;
#X connect 29 0 23 1;
#X connect 30 0 27 0;
