#N canvas 58 28 744 588 10;
#X obj 74 396 dac~;
#X obj 543 115 loadbang;
#X msg 543 138 blip_c4.wav;
#X obj 74 294 synth/samplesynth;
#X obj -55 11 r drive_points;
#X obj 79 13 r drive_points_loss;
#X obj 246 12 r drive_points_gain;
#X obj 73 144 sub/intervalbang;
#X obj 73 166 f;
#X obj 110 167 + 1;
#X msg 117 110 0;
#X obj 74 64 t b b b;
#X obj 76 36 bng 15 250 50 0 empty empty empty 17 7 0 10 -262144 -1
-1;
#X obj 73 195 select 0 1 2;
#X obj 76 353 sub/delay hej 0.3 100;
#X msg 181 102 120;
#X obj 243 298 synth/samplesynth;
#X obj 242 148 sub/intervalbang;
#X obj 242 170 f;
#X obj 279 171 + 1;
#X msg 286 114 0;
#X obj 243 68 t b b b;
#X obj 245 40 bng 15 250 50 0 empty empty empty 17 7 0 10 -262144 -1
-1;
#X msg 245 106 3;
#X obj 242 199 select 0 1 2;
#X msg 243 274 67;
#X msg 311 238 84;
#X msg 277 251 76;
#X msg 336 114 120;
#X msg 74 270 60;
#X msg 143 234 50;
#X msg 108 247 50;
#X msg 76 100 1;
#X obj -57 211 f;
#X floatatom -41 119 5 0 0 0 - - -, f 5;
#X obj -62 325 sub/intervalbang;
#X obj -67 384 synth/samplesynth;
#X msg -67 360 60;
#X obj 11 158 loadbang;
#X obj 386 117 delay 1000;
#X msg 33 202 150;
#X obj -42 250 moses 0;
#X obj -58 460 sub/intervalbang;
#X obj -63 519 synth/samplesynth;
#X msg -63 495 50;
#X obj -57 427 abs;
#X connect 1 0 2 0;
#X connect 2 0 3 1;
#X connect 2 0 16 1;
#X connect 2 0 36 1;
#X connect 3 0 14 0;
#X connect 4 0 34 0;
#X connect 5 0 12 0;
#X connect 6 0 22 0;
#X connect 7 0 8 0;
#X connect 8 0 9 0;
#X connect 8 0 13 0;
#X connect 9 0 8 1;
#X connect 10 0 8 1;
#X connect 11 0 32 0;
#X connect 11 1 15 0;
#X connect 11 2 10 0;
#X connect 12 0 11 0;
#X connect 12 0 39 0;
#X connect 13 0 29 0;
#X connect 13 1 31 0;
#X connect 13 2 30 0;
#X connect 14 0 0 0;
#X connect 14 0 0 1;
#X connect 15 0 7 1;
#X connect 16 0 14 0;
#X connect 17 0 18 0;
#X connect 18 0 19 0;
#X connect 18 0 24 0;
#X connect 19 0 18 1;
#X connect 20 0 18 1;
#X connect 21 0 23 0;
#X connect 21 1 28 0;
#X connect 21 2 20 0;
#X connect 22 0 21 0;
#X connect 22 0 39 0;
#X connect 23 0 17 0;
#X connect 24 0 25 0;
#X connect 24 1 27 0;
#X connect 24 2 26 0;
#X connect 25 0 16 0;
#X connect 26 0 16 0;
#X connect 27 0 16 0;
#X connect 28 0 17 1;
#X connect 29 0 3 0;
#X connect 30 0 3 0;
#X connect 31 0 3 0;
#X connect 32 0 7 0;
#X connect 33 0 41 0;
#X connect 34 0 33 1;
#X connect 35 0 37 0;
#X connect 36 0 14 0;
#X connect 37 0 36 0;
#X connect 38 0 40 0;
#X connect 39 0 33 0;
#X connect 40 0 35 1;
#X connect 40 0 42 1;
#X connect 41 0 45 0;
#X connect 41 1 35 0;
#X connect 42 0 44 0;
#X connect 43 0 14 0;
#X connect 44 0 43 0;
#X connect 45 0 42 0;
