#N canvas 231 44 1052 588 10;
#X obj 156 518 dac~;
#X obj 485 218 loadbang;
#X msg 485 241 blip_c4.wav;
#X obj 188 304 synth/samplesynth;
#X obj 18 23 r drive_points;
#X obj 193 23 r drive_points_loss;
#X obj 360 22 r drive_points_gain;
#X obj 187 154 sub/intervalbang;
#X obj 187 176 f;
#X obj 224 177 + 1;
#X msg 231 120 0;
#X obj 188 74 t b b b;
#X obj 190 46 bng 15 250 50 0 empty empty empty 17 7 0 10 -262144 -1
-1;
#X obj 187 205 select 0 1 2;
#X obj 188 376 sub/delay hej 0.3 100;
#X msg 295 112 120;
#X obj 357 308 synth/samplesynth;
#X obj 356 158 sub/intervalbang;
#X obj 356 180 f;
#X obj 393 181 + 1;
#X msg 400 124 0;
#X obj 357 78 t b b b;
#X obj 359 50 bng 15 250 50 0 empty empty empty 17 7 0 10 -262144 -1
-1;
#X msg 359 116 3;
#X obj 356 209 select 0 1 2;
#X msg 357 284 67;
#X msg 425 248 84;
#X msg 391 261 76;
#X msg 450 124 120;
#X msg 188 280 60;
#X msg 257 244 50;
#X msg 222 257 50;
#X msg 190 110 1;
#X obj 2 159 f;
#X floatatom 20 132 5 0 0 0 - - -, f 5;
#X obj 48 267 sub/intervalbang;
#X obj 43 326 synth/samplesynth;
#X obj 92 139 loadbang;
#X obj 3 111 delay 1000;
#X msg 92 165 150;
#X obj 2 188 moses 0;
#X obj -16 373 sub/intervalbang;
#X obj -15 427 synth/samplesynth;
#X obj -15 340 abs;
#X obj 609 25 r amp;
#X msg 43 302 72;
#X obj 612 68 hsl 128 15 -40 40 0 0 empty empty empty -2 -8 0 10 -262144
-1 -1 5700 1;
#X obj 555 325 loadbang;
#X obj 555 345 bng 15 250 50 0 empty empty empty 17 7 0 10 -262144
-1 -1;
#X obj 463 420 *~;
#X obj 463 396 sub/delay arpleft 0.3 100;
#X obj 665 396 sub/delay arpright 0.3 100;
#X obj 463 445 *~ 0.1;
#X obj 664 448 *~ 0.1;
#X obj 665 423 *~;
#X obj 782 304 f;
#X obj 764 328 >;
#X floatatom 764 350 5 0 0 0 - - -, f 5;
#X obj 725 370 spigot;
#X obj 764 281 t f b;
#X obj 609 233 sub/clipscale 0 40 0 1;
#X obj 811 233 < 0.01;
#X msg 811 281 0;
#X obj 664 340 * 10;
#X obj 811 257 spigot;
#X obj 555 365 sub/seq 67 76 84;
#X obj 609 301 sub/scale 0 1 50 20;
#X text 619 198 amp arp;
#X msg -15 403 50;
#X connect 1 0 2 0;
#X connect 2 0 3 1;
#X connect 2 0 16 1;
#X connect 2 0 36 1;
#X connect 3 0 14 0;
#X connect 4 0 34 0;
#X connect 5 0 12 0;
#X connect 6 0 22 0;
#X connect 7 0 8 0;
#X connect 8 0 9 0;
#X connect 8 0 13 0;
#X connect 9 0 8 1;
#X connect 10 0 8 1;
#X connect 11 0 32 0;
#X connect 11 1 15 0;
#X connect 11 2 10 0;
#X connect 12 0 11 0;
#X connect 12 0 38 0;
#X connect 13 0 29 0;
#X connect 13 1 31 0;
#X connect 13 2 30 0;
#X connect 14 0 0 0;
#X connect 14 0 0 1;
#X connect 15 0 7 1;
#X connect 16 0 14 0;
#X connect 17 0 18 0;
#X connect 18 0 19 0;
#X connect 18 0 24 0;
#X connect 19 0 18 1;
#X connect 20 0 18 1;
#X connect 21 0 23 0;
#X connect 21 1 28 0;
#X connect 21 2 20 0;
#X connect 22 0 21 0;
#X connect 22 0 38 0;
#X connect 23 0 17 0;
#X connect 24 0 25 0;
#X connect 24 1 27 0;
#X connect 24 2 26 0;
#X connect 25 0 16 0;
#X connect 26 0 16 0;
#X connect 27 0 16 0;
#X connect 28 0 17 1;
#X connect 29 0 3 0;
#X connect 30 0 3 0;
#X connect 31 0 3 0;
#X connect 32 0 7 0;
#X connect 33 0 40 0;
#X connect 34 0 33 1;
#X connect 35 0 45 0;
#X connect 36 0 14 0;
#X connect 37 0 39 0;
#X connect 38 0 33 0;
#X connect 39 0 35 1;
#X connect 39 0 41 1;
#X connect 40 0 43 0;
#X connect 40 1 35 0;
#X connect 41 0 68 0;
#X connect 42 0 14 0;
#X connect 43 0 41 0;
#X connect 44 0 46 0;
#X connect 45 0 36 0;
#X connect 46 0 60 0;
#X connect 47 0 48 0;
#X connect 48 0 65 0;
#X connect 49 0 52 0;
#X connect 50 0 49 0;
#X connect 51 0 54 0;
#X connect 52 0 0 0;
#X connect 53 0 0 1;
#X connect 54 0 53 0;
#X connect 55 0 56 1;
#X connect 55 0 63 0;
#X connect 56 0 57 0;
#X connect 57 0 58 1;
#X connect 58 0 55 1;
#X connect 59 0 58 0;
#X connect 59 0 56 0;
#X connect 59 1 55 0;
#X connect 60 0 49 1;
#X connect 60 0 54 1;
#X connect 60 0 59 0;
#X connect 60 0 61 0;
#X connect 60 0 66 0;
#X connect 61 0 64 0;
#X connect 61 0 64 1;
#X connect 62 0 55 1;
#X connect 63 0 65 2;
#X connect 64 0 62 0;
#X connect 65 0 50 0;
#X connect 65 1 51 0;
#X connect 66 0 65 1;
#X connect 68 0 42 0;
