#N canvas 536 61 744 588 10;
#X obj 328 32 vsl 15 60 0 2 0 0 empty empty empty 0 -9 0 10 -262144
-1 -1 0 1;
#X obj 189 31 vsl 15 60 0 2 0 0 empty empty empty 0 -9 0 10 -262144
-1 -1 2100 1;
#X obj 189 3 r acc_threshold;
#X obj 328 4 r amp_speed_threshold;
#X obj 98 244 loadbang;
#X obj 98 268 bng 15 250 50 0 empty empty empty 17 7 0 10 -262144 -1
-1;
#X obj 182 542 dac~;
#X obj 98 291 metro;
#X floatatom 218 104 5 0 0 0 - - -, f 5;
#X obj 218 152 sub/clipscale 0 1 1 0;
#X obj 218 233 + 300;
#X obj 326 185 > 1;
#X obj 426 409 metro;
#X msg 326 249 1;
#X msg 286 249 0;
#X obj 286 185 <= 1;
#X obj 253 383 *~;
#X obj 286 207 spigot;
#X obj 326 207 spigot;
#X obj 426 364 loadbang;
#X obj 426 387 bng 15 250 50 0 empty empty empty 17 7 0 10 -262144
-1 -1;
#X obj 218 184 * 5000;
#X obj 218 123 abs;
#X obj -5 162 f;
#X obj -23 122 t f b;
#X obj -43 335 spigot;
#X obj -23 201 moses;
#X obj -23 234 <;
#X obj -23 265 &&;
#X obj 14 234 f;
#X obj 14 256 > 0;
#X msg -4 291 0;
#X floatatom 30 189 5 0 0 0 - - -, f 5;
#X floatatom -69 189 5 0 0 0 - - -, f 5;
#X obj 26 162 + 1;
#X obj 54 88 metro 0;
#X obj 53 43 loadbang;
#X obj 53 67 bng 15 250 50 0 empty empty empty 17 7 0 10 -262144 -1
-1;
#X msg 182 417 72;
#X obj 543 115 loadbang;
#X msg 543 138 blip_c4.wav;
#X obj 455 304 + 40;
#X obj 426 457 synth/samplesynth;
#X obj 182 440 synth/samplesynth;
#X msg 426 433 80;
#X obj 230 277 sub/clipscale 0 1 0 4;
#X obj 230 302 mod 4;
#X obj 96 372 sub/intervalbang;
#X obj 158 317 loadbang;
#X obj 99 414 bng 15 250 50 0 empty empty empty 17 7 0 10 -262144 -1
-1;
#X obj 233 336 f;
#X msg 159 340 200;
#X obj 183 499 sub/delay hej 0.1 100;
#X connect 0 0 8 0;
#X connect 1 0 8 0;
#X connect 2 0 1 0;
#X connect 3 0 0 0;
#X connect 4 0 5 0;
#X connect 5 0 7 0;
#X connect 7 0 50 0;
#X connect 8 0 22 0;
#X connect 9 0 21 0;
#X connect 10 0 7 1;
#X connect 10 0 24 0;
#X connect 10 0 41 0;
#X connect 11 0 18 0;
#X connect 11 0 18 1;
#X connect 12 0 44 0;
#X connect 13 0 16 1;
#X connect 14 0 16 1;
#X connect 15 0 17 0;
#X connect 15 0 17 1;
#X connect 16 0 52 0;
#X connect 17 0 14 0;
#X connect 18 0 13 0;
#X connect 19 0 20 0;
#X connect 20 0 12 0;
#X connect 21 0 10 0;
#X connect 22 0 9 0;
#X connect 22 0 15 0;
#X connect 22 0 11 0;
#X connect 22 0 45 0;
#X connect 23 0 26 1;
#X connect 23 0 27 1;
#X connect 23 0 32 0;
#X connect 23 0 34 0;
#X connect 24 0 26 0;
#X connect 24 0 33 0;
#X connect 25 0 5 0;
#X connect 25 0 20 0;
#X connect 26 0 27 0;
#X connect 26 1 29 0;
#X connect 27 0 28 0;
#X connect 28 0 31 0;
#X connect 28 0 25 0;
#X connect 28 0 25 1;
#X connect 29 0 30 0;
#X connect 30 0 28 1;
#X connect 31 0 29 0;
#X connect 31 0 23 0;
#X connect 34 0 23 1;
#X connect 35 0 23 0;
#X connect 36 0 37 0;
#X connect 37 0 35 0;
#X connect 38 0 43 0;
#X connect 39 0 40 0;
#X connect 40 0 42 1;
#X connect 40 0 43 1;
#X connect 41 0 12 1;
#X connect 42 0 16 0;
#X connect 43 0 52 0;
#X connect 44 0 42 0;
#X connect 45 0 46 0;
#X connect 46 0 50 1;
#X connect 47 0 38 0;
#X connect 47 0 49 0;
#X connect 48 0 51 0;
#X connect 50 0 47 0;
#X connect 51 0 47 1;
#X connect 52 0 6 0;
#X connect 52 0 6 1;
