#N canvas 6 125 1902 880 10;
#X obj 273 149 cnv 15 300 300 empty empty empty 20 12 0 14 -261234
-66577 0;
#X obj 1219 167 cnv 15 360 300 empty empty empty 20 12 0 14 -204786
-66577 0;
#X obj 292 257 cnv 15 90 30 empty empty empty 20 12 0 14 -258113 -66577
0;
#N canvas 971 53 709 1025 warning 0;
#X obj 124 -134 inlet;
#X obj -45 129 osc~ 200;
#X obj -45 151 *~ 0.5;
#X obj 24 151 *~ 0.5;
#X obj 24 173 +~;
#X obj 106 151 *~ 0.5;
#X obj 105 283 +~;
#X obj 24 195 *~ 0.5;
#X text -44 104 warning tone;
#X obj 411 50 loadbang;
#X obj 411 127 bng 15 250 50 0 empty empty empty 17 7 0 10 -262144
-1 -1;
#X obj 411 426 vline~;
#X obj 483 489 snapshot~;
#X floatatom 483 510 5 0 0 0 - - -, f 5;
#X obj 483 447 bng 15 250 50 0 empty empty empty 17 7 0 10 -262144
-1 -1;
#X obj 411 102 metro 1000;
#X floatatom 467 201 5 0 0 0 - - -, f 5;
#X obj 467 223 sub/only_one_bang_please;
#X obj 411 257 f;
#X obj 389 77 tgl 15 0 empty empty empty 17 7 0 10 -262144 -1 -1 0
1;
#X obj 411 327 pack;
#X obj 436 304 / 10;
#X msg 411 350 1 \$2 0 \, 0 \$2 \$1;
#X text 445 283 <- Duration;
#X text 471 304 <- Fade in/out timne;
#X obj 106 129 phasor~ 300;
#X obj 276 560 metro 48;
#X obj 24 129 osc~ 210;
#X obj 24 217 +~;
#X obj -46 200 *~ 0.5;
#X obj 24 239 *~ 0.5;
#X obj -46 178 osc~ 800;
#X text 410 27 make it periodic;
#X obj 212 178 osc~;
#X floatatom 253 179 5 0 0 0 - - -, f 5;
#X obj 483 426 loadbang;
#X obj 105 327 +~;
#X obj 212 200 *~ 0.3;
#X obj 105 305 *~ 0.7;
#X obj 212 152 expr $f1*150+100;
#X text 508 199 <- tempo for metro;
#X obj 474 530 cnv 15 100 25 empty empty empty 20 12 0 14 -261682 -66577
0;
#X obj 483 533 s beep_line;
#X obj 203 121 cnv 15 100 25 empty empty empty 20 12 0 14 -261682 -66577
0;
#X obj 212 125 r beep_line;
#X obj 276 582 tabwrite~ sound;
#X obj 105 350 *~;
#X obj 276 537 loadbang;
#X obj 175 633 cnv 15 295 135 empty empty empty 20 12 0 14 -159808
-66577 0;
#X obj 191 620 cnv 15 295 135 empty empty empty 20 12 0 14 -260736
-66577 0;
#X obj 181 626 cnv 15 297 137 empty empty empty 20 12 0 14 -232576
-66577 0;
#N canvas 0 50 450 250 (subpatch) 0;
#X array sound 1000 float 0;
#X coords 0 1 999 -1 300 140 1 0 0;
#X restore 180 624 graph;
#X obj 76 840 outlet~;
#X obj 483 467 metro 30;
#X obj 411 283 / 4, f 4;
#X msg 467 75 1500;
#X obj 124 -109 sub/clipscale 0 1 1000 100;
#X obj 75 488 -~ 0.2;
#X connect 0 0 56 0;
#X connect 1 0 2 0;
#X connect 2 0 4 1;
#X connect 3 0 4 0;
#X connect 4 0 7 0;
#X connect 5 0 6 0;
#X connect 6 0 38 0;
#X connect 7 0 28 0;
#X connect 9 0 15 0;
#X connect 9 0 55 0;
#X connect 10 0 17 1;
#X connect 10 0 18 0;
#X connect 11 0 12 0;
#X connect 11 0 46 1;
#X connect 12 0 13 0;
#X connect 13 0 42 0;
#X connect 14 0 53 0;
#X connect 14 0 53 0;
#X connect 15 0 10 0;
#X connect 16 0 17 0;
#X connect 16 0 18 1;
#X connect 17 0 18 0;
#X connect 18 0 15 1;
#X connect 18 0 21 0;
#X connect 18 0 54 0;
#X connect 19 0 15 0;
#X connect 20 0 22 0;
#X connect 21 0 20 1;
#X connect 22 0 11 0;
#X connect 25 0 5 0;
#X connect 26 0 45 0;
#X connect 27 0 3 0;
#X connect 28 0 30 0;
#X connect 29 0 28 1;
#X connect 30 0 6 1;
#X connect 31 0 29 0;
#X connect 33 0 37 0;
#X connect 35 0 14 0;
#X connect 36 0 46 0;
#X connect 37 0 36 1;
#X connect 38 0 36 0;
#X connect 39 0 33 0;
#X connect 39 0 34 0;
#X connect 44 0 39 0;
#X connect 46 0 57 0;
#X connect 47 0 26 0;
#X connect 53 0 12 0;
#X connect 53 0 12 0;
#X connect 54 0 20 0;
#X connect 55 0 16 0;
#X connect 56 0 16 0;
#X connect 57 0 45 0;
#X connect 57 0 52 0;
#X restore 299 259 pd warning;
#X obj 125 13 line;
#X msg 262 -50 0;
#X floatatom 284 12 5 0 0 0 - - -, f 5;
#X floatatom 385 60 5 0 0 0 - - -, f 5;
#X obj 907 69 sel warn none encourage;
#X obj 907 21 r state;
#X obj 444 187 bng 15 250 50 0 empty empty empty 17 7 0 10 -262144
-1 -1;
#X obj 959 145 bng 15 250 50 0 empty empty empty 17 7 0 10 -262144
-1 -1;
#X obj 316 158 s start_time;
#X obj 349 5 r start_time;
#X obj 516 -4 r reset_time;
#X obj 299 349 *~;
#X obj 375 316 line;
#X obj 299 371 sub/delay oo_oo 0.6 50;
#X obj 287 422 dac~;
#X obj 546 -59 r c_state_bang;
#X msg 622 -68 symbol none;
#X obj 536 302 spigot;
#X msg 498 235 1;
#X msg 533 233 0;
#X msg 536 324 symbol none;
#X obj 536 346 s state;
#X obj 445 312 r mute;
#X obj 981 199 s mute;
#X obj 915 -86 bng 15 250 50 0 empty empty empty 17 7 0 10 -262144
-1 -1;
#X obj 915 -66 s c_state_bang;
#X obj 798 -82 bng 15 250 50 0 empty empty empty 17 7 0 10 -262144
-1 -1;
#X obj 969 223 s reset_time;
#X obj 798 -62 s c_neg_bang;
#X msg 375 293 1 2000;
#X obj 1056 -84 bng 15 250 50 0 empty empty empty 17 7 0 10 -262144
-1 -1;
#X obj 1056 -64 s c_pos_bang;
#X obj 592 303 bng 15 250 50 0 empty empty empty 17 7 0 10 -262144
-1 -1;
#X obj 622 -46 s state;
#X obj 946 370 spigot;
#X msg 804 319 symbol encourage;
#X obj 946 392 s state;
#X msg 1006 280 1;
#X msg 955 319 0;
#X msg 830 246 symbol warn;
#X obj 919 46 print;
#X obj 1233 292 cnv 15 90 30 empty empty empty 20 12 0 14 -4034 -66577
0;
#X obj 1389 204 bng 15 250 50 0 empty empty empty 17 7 0 10 -262144
-1 -1;
#X obj 1261 175 s start_time;
#X obj 1244 366 *~;
#X obj 1328 353 line;
#X obj 1232 439 dac~;
#X obj 1481 319 spigot;
#X msg 1443 252 1;
#X msg 1496 243 0;
#X msg 1511 370 symbol none;
#X obj 1511 392 s state;
#X obj 1390 329 r mute;
#X msg 1328 330 1 2000;
#X obj 1537 320 bng 15 250 50 0 empty empty empty 17 7 0 10 -262144
-1 -1;
#X obj 1481 73 bng 15 250 50 0 empty empty empty 17 7 0 10 -262144
-1 -1;
#X obj 1244 388 sub/delay o_oo 0.6 50;
#X obj 1254 13 t b b;
#X obj 1387 292 r c_neg_bang2;
#X obj 830 223 r c_neg_bang1;
#X obj 1254 -12 r c_neg_bang;
#X obj 1254 35 s c_neg_bang2;
#X obj 1353 35 s c_neg_bang1;
#X obj 804 297 r c_pos_bang1;
#X obj 445 274 r c_pos_bang2;
#X obj 1255 93 t b b;
#X obj 1255 68 r c_pos_bang;
#X obj 1255 115 s c_pos_bang2;
#X obj 1355 115 s c_pos_bang1;
#X obj 557 -90 loadbang;
#X obj 52 124 r c_transition_time;
#X obj 55 230 s c_transition_time_adjusted;
#X obj 284 228 r c_transition_time_adjusted;
#X msg 93 -30 1 5000;
#X obj 125 59 s c_transition_time;
#X floatatom 52 146 5 0 0 0 - - -, f 5;
#X floatatom 68 204 5 0 0 0 - - -, f 5;
#X obj 299 393 sub/dirty_limiter;
#X obj 123 167 expr 1-(ln($f1)/-9);
#X obj 469 394 metro 50;
#X obj 469 372 loadbang;
#X text 133 36 <- REMOVE THIS WHEN USING IN APP;
#N canvas 142 103 1040 953 encouragement 1;
#X obj 92 294 bng 15 250 50 0 empty empty empty 17 7 0 10 -261234 -1
-1;
#X floatatom 177 240 5 0 0 0 - - -, f 5;
#X floatatom 131 124 5 0 0 0 - - -, f 5;
#X floatatom 221 240 5 0 0 0 - - -, f 5;
#X obj 65 253 loadbang;
#X floatatom 452 64 5 0 0 0 - - -, f 5;
#X floatatom 452 112 5 0 0 0 - - -, f 5;
#X obj 293 335 vsl 15 70 0 1 0 0 empty empty empty 0 -9 0 10 -262130
-1 -1 307 1;
#X text 131 103 tempo;
#X text 452 43 pitch/transpose;
#X floatatom 302 273 5 0 0 0 - - -, f 5;
#X text 59 181 floor -->;
#X floatatom 92 319 5 0 0 0 - - -, f 5;
#X obj 276 740 hip~ 600;
#X obj 95 739 hip~ 600;
#X obj 131 176 expr $f1 \; if ($f1 > 50 \, $f1 \, 50) \;;
#X obj 29 32 inlet;
#X obj 173 907 outlet~;
#X obj 710 212 r tempo;
#X obj 325 214 s tempo;
#X text 628 157 == Super harmonics? ==;
#X obj 620 267 loadbang;
#X obj 599 267 bng 15 250 50 0 empty empty empty 17 7 0 10 -262144
-1 -1;
#X obj 666 359 +~;
#X obj 667 405 *~;
#X msg 729 266 24;
#X obj 667 381 /~ 2;
#X obj 710 234 / 1.5;
#X text 576 233 Slightly faster ->;
#X text 384 213 Send ->;
#X obj 436 595 osc~;
#X obj 437 619 *~;
#X text 567 545 Only play when amp is going up;
#X obj 650 567 >;
#X obj 650 620 line;
#X msg 650 594 \$1 100;
#X text 419 509 == Play a rising sine in the background when amp is
increasing ==;
#X text 577 175 Creates a brighter "bllrlrl" for when shit really hits
the fan (i.e. amp is "really high");
#X obj 436 550 r amp_in_pos;
#X obj 730 365 r amp_in_pos;
#X obj 293 245 r amp_in_pos;
#X obj 358 63 r amp_in_pos;
#X obj 36 122 r amp_in_pos;
#X obj 760 266 loadbang;
#X obj 437 649 *~ 0.3;
#X text 285 148 <- Arp gets faster as amp gets higher;
#X text 49 292 Stop!;
#X text 346 270 Higher amp = louder;
#X text 318 335 <- volum :>;
#X text 826 265 <- transpose;
#X text 437 699 <- mix with the other sounds;
#X text 728 346 Volume: only audible when amp is high;
#X text 658 426 <- mix with the other sounds;
#X text 453 471 <- Delay sound nice;
#X obj 452 88 sub/scale 0 20 -3 3;
#X obj 95 761 sub/dirty_limiter;
#X obj 276 762 sub/dirty_limiter;
#X obj 131 149 sub/scale 5 50 300 20;
#X obj 293 296 sub/scale 5 50 0 1;
#X obj 436 572 sub/clipscale 5 100 20 1600;
#X obj 167 309 sub/seq 55 64 67;
#X obj 620 299 sub/seq 55 64 67;
#X obj 436 674 sub/delay spliffycrack 0.3 200;
#X obj 174 877 +~;
#X obj 276 784 *~ 0.5;
#X text 27 -10 THIS IS A COPY FROM amp_arp.pd SO NAMES AND COMMENTS
MAY NOT BE UP TO DATE;
#X text 78 33 deal with it;
#X obj 78 33 s amp_in_pos;
#X obj 95 783 *~ 0.7;
#X obj 729 389 sub/clipscale 30 80 0 0.6;
#X obj 94 433 *~ 1;
#X obj 275 430 *~ 1;
#X connect 0 0 12 0;
#X connect 0 0 60 0;
#X connect 1 0 60 1;
#X connect 2 0 57 0;
#X connect 3 0 60 1;
#X connect 4 0 60 0;
#X connect 5 0 54 0;
#X connect 10 0 58 0;
#X connect 12 0 7 0;
#X connect 13 0 56 0;
#X connect 14 0 55 0;
#X connect 15 1 3 0;
#X connect 15 1 19 0;
#X connect 16 0 67 0;
#X connect 18 0 27 0;
#X connect 21 0 61 0;
#X connect 22 0 61 0;
#X connect 23 0 26 0;
#X connect 24 0 14 0;
#X connect 24 0 13 0;
#X connect 25 0 61 2;
#X connect 26 0 24 0;
#X connect 27 0 61 1;
#X connect 30 0 31 0;
#X connect 31 0 44 0;
#X connect 33 0 35 0;
#X connect 34 0 31 1;
#X connect 35 0 34 0;
#X connect 38 0 33 0;
#X connect 38 0 33 1;
#X connect 38 0 59 0;
#X connect 39 0 69 0;
#X connect 40 0 58 0;
#X connect 41 0 54 0;
#X connect 42 0 57 0;
#X connect 43 0 25 0;
#X connect 44 0 62 0;
#X connect 54 0 6 0;
#X connect 55 0 68 0;
#X connect 56 0 64 0;
#X connect 57 0 15 0;
#X connect 58 0 7 0;
#X connect 59 0 30 0;
#X connect 60 0 70 0;
#X connect 60 1 71 0;
#X connect 61 0 23 0;
#X connect 61 1 23 1;
#X connect 62 0 13 0;
#X connect 62 0 14 0;
#X connect 63 0 17 0;
#X connect 64 0 63 1;
#X connect 68 0 63 0;
#X connect 69 0 24 1;
#X connect 70 0 14 0;
#X connect 71 0 13 0;
#X restore 1226 299 pd encouragement;
#X floatatom 1156 328 5 0 0 0 - - -, f 5;
#X obj 1186 260 sub/clipscale 0 1 7 50;
#X obj 1244 410 sub/dirty_limiter;
#X obj 786 549 cnv 15 295 135 empty empty empty 20 12 0 14 -159808
-66577 0;
#X obj 802 536 cnv 15 295 135 empty empty empty 20 12 0 14 -260736
-66577 0;
#X obj 792 542 cnv 15 297 137 empty empty empty 20 12 0 14 -232576
-66577 0;
#N canvas 0 50 450 250 (subpatch) 0;
#X array sound_out 1000 float 0;
#X coords 0 1 999 -1 300 140 1 0 0;
#X restore 791 540 graph;
#X obj 1413 419 metro 50;
#X obj 1413 397 loadbang;
#X obj 1413 441 tabwrite~ sound_out;
#X obj 469 415 tabwrite~ sound_out;
#X obj 1167 221 r c_transition_time;
#X floatatom 1140 260 5 0 0 0 - - -, f 5;
#X msg 1390 351 0;
#X msg 445 334 0;
#X obj 298 654 dac~;
#X msg 305 576 bang;
#X obj 1598 344 sub/wav ../fd-wavs/statechangetopos.wav;
#X obj 1611 297 spigot;
#X obj 1667 298 bng 15 250 50 0 empty empty empty 17 7 0 10 -262144
-1 -1;
#X obj 1612 256 r c_state_bang;
#X obj 1629 424 dac~;
#X obj 1740 274 bng 15 250 50 0 empty empty empty 17 7 0 10 -262144
-1 -1;
#X obj 1681 404 sub/delay OoOoOoo-__w 0.3 100;
#X obj 1619 383 sub/delay OOO--_oo 0.3 120;
#X obj 1608 465 sub/wav ../fd-wavs/stateavoidpos.wav;
#X obj 1599 593 dac~;
#X obj 1599 519 sub/delay OO45O--_oo 0.3 120;
#X obj 1650 553 sub/delay OoOoO66oo-__w 0.3 100;
#X obj 636 340 spigot;
#X obj 692 341 bng 15 250 50 0 empty empty empty 17 7 0 10 -262144
-1 -1;
#X obj 636 314 r c_state_bang;
#X obj 636 464 dac~;
#X obj 636 390 sub/delay OO779oo 0.3 120;
#X obj 687 424 sub/delay OoOgOPP_w 0.3 100;
#X obj 636 368 sub/wav ../fd-wavs/statechangetoneg.wav;
#X obj 498 592 dac~;
#X obj 498 518 sub/delay OOddddoo 0.3 120;
#X obj 550 552 sub/delay OoOoxxx 0.3 100;
#X obj 498 496 sub/wav ../fd-wavs/stateavoidneg.wav;
#X connect 3 0 15 0;
#X connect 4 0 6 0;
#X connect 4 0 78 0;
#X connect 5 0 4 0;
#X connect 8 0 10 0;
#X connect 8 1 11 0;
#X connect 8 2 46 0;
#X connect 9 0 8 0;
#X connect 9 0 44 0;
#X connect 10 0 12 0;
#X connect 10 0 33 0;
#X connect 10 0 22 0;
#X connect 10 0 42 0;
#X connect 11 0 27 0;
#X connect 11 0 31 0;
#X connect 11 0 41 0;
#X connect 11 0 23 0;
#X connect 11 0 53 0;
#X connect 13 0 77 0;
#X connect 14 0 5 0;
#X connect 15 0 17 0;
#X connect 16 0 15 1;
#X connect 17 0 81 0;
#X connect 19 0 20 0;
#X connect 20 0 37 0;
#X connect 21 0 24 0;
#X connect 21 0 36 0;
#X connect 21 0 126 0;
#X connect 22 0 21 1;
#X connect 22 0 116 1;
#X connect 23 0 21 1;
#X connect 23 0 116 1;
#X connect 24 0 25 0;
#X connect 26 0 101 0;
#X connect 28 0 29 0;
#X connect 30 0 32 0;
#X connect 33 0 16 0;
#X connect 34 0 35 0;
#X connect 38 0 40 0;
#X connect 39 0 38 0;
#X connect 41 0 38 1;
#X connect 42 0 38 1;
#X connect 43 0 38 0;
#X connect 46 0 47 0;
#X connect 46 0 57 0;
#X connect 46 0 52 0;
#X connect 46 0 42 0;
#X connect 48 0 60 0;
#X connect 49 0 48 1;
#X connect 51 0 54 0;
#X connect 51 0 58 0;
#X connect 51 0 112 0;
#X connect 52 0 51 1;
#X connect 52 0 105 1;
#X connect 53 0 51 1;
#X connect 53 0 105 1;
#X connect 54 0 55 0;
#X connect 56 0 100 0;
#X connect 57 0 49 0;
#X connect 59 0 51 0;
#X connect 60 0 89 0;
#X connect 61 0 65 0;
#X connect 61 1 66 0;
#X connect 62 0 51 0;
#X connect 63 0 43 0;
#X connect 64 0 61 0;
#X connect 67 0 39 0;
#X connect 68 0 21 0;
#X connect 69 0 71 0;
#X connect 69 1 72 0;
#X connect 70 0 69 0;
#X connect 73 0 20 0;
#X connect 74 0 79 0;
#X connect 74 0 82 0;
#X connect 76 0 3 0;
#X connect 77 0 4 0;
#X connect 81 0 18 0;
#X connect 81 0 18 1;
#X connect 81 0 97 0;
#X connect 82 0 75 0;
#X connect 82 0 80 0;
#X connect 83 0 97 0;
#X connect 84 0 83 0;
#X connect 86 0 48 0;
#X connect 88 0 86 0;
#X connect 88 0 87 0;
#X connect 89 0 50 0;
#X connect 89 0 50 1;
#X connect 89 0 96 0;
#X connect 94 0 96 0;
#X connect 95 0 94 0;
#X connect 98 0 88 0;
#X connect 98 0 99 0;
#X connect 100 0 49 0;
#X connect 101 0 16 0;
#X connect 104 0 111 0;
#X connect 104 1 110 0;
#X connect 105 0 106 0;
#X connect 105 0 104 0;
#X connect 107 0 105 0;
#X connect 109 0 104 0;
#X connect 110 0 108 1;
#X connect 111 0 108 0;
#X connect 112 0 114 0;
#X connect 112 0 115 0;
#X connect 114 0 113 0;
#X connect 115 0 113 1;
#X connect 116 0 117 0;
#X connect 116 0 122 0;
#X connect 118 0 116 0;
#X connect 120 0 119 0;
#X connect 121 0 119 1;
#X connect 122 0 120 0;
#X connect 122 1 121 0;
#X connect 124 0 123 0;
#X connect 125 0 123 1;
#X connect 126 0 124 0;
#X connect 126 1 125 0;
