#N canvas 68 83 1354 683 10;
#X obj 36 373 cnv 15 700 600 empty empty empty 20 12 0 14 -261234 -66577
0;
#X obj 1181 368 cnv 15 700 600 empty empty empty 20 12 0 14 -204786
-66577 0;
#X obj 54 516 cnv 15 90 30 empty empty empty 20 12 0 14 -258113 -66577
0;
#N canvas 971 53 709 1025 warning 0;
#X obj 124 -134 inlet;
#X obj -45 129 osc~ 200;
#X obj -45 151 *~ 0.5;
#X obj 24 151 *~ 0.5;
#X obj 24 173 +~;
#X obj 106 151 *~ 0.5;
#X obj 105 283 +~;
#X obj 24 195 *~ 0.5;
#X text -44 104 warning tone;
#X obj 411 50 loadbang;
#X obj 411 127 bng 15 250 50 0 empty empty empty 17 7 0 10 -262144
-1 -1;
#X obj 411 426 vline~;
#X obj 483 489 snapshot~;
#X floatatom 483 510 5 0 0 0 - - -, f 5;
#X obj 483 447 bng 15 250 50 0 empty empty empty 17 7 0 10 -262144
-1 -1;
#X obj 411 102 metro 1000;
#X floatatom 467 201 5 0 0 0 - - -, f 5;
#X obj 467 223 sub/only_one_bang_please;
#X obj 411 257 f;
#X obj 389 77 tgl 15 0 empty empty empty 17 7 0 10 -262144 -1 -1 0
1;
#X obj 411 327 pack;
#X obj 436 304 / 10;
#X msg 411 350 1 \$2 0 \, 0 \$2 \$1;
#X text 445 283 <- Duration;
#X text 471 304 <- Fade in/out timne;
#X obj 106 129 phasor~ 300;
#X obj 276 560 metro 48;
#X obj 24 129 osc~ 210;
#X obj 24 217 +~;
#X obj -46 200 *~ 0.5;
#X obj 24 239 *~ 0.5;
#X obj -46 178 osc~ 800;
#X text 410 27 make it periodic;
#X obj 212 178 osc~;
#X floatatom 253 179 5 0 0 0 - - -, f 5;
#X obj 483 426 loadbang;
#X obj 105 327 +~;
#X obj 212 200 *~ 0.3;
#X obj 105 305 *~ 0.7;
#X obj 212 152 expr $f1*150+100;
#X text 508 199 <- tempo for metro;
#X obj 474 530 cnv 15 100 25 empty empty empty 20 12 0 14 -261682 -66577
0;
#X obj 483 533 s beep_line;
#X obj 203 121 cnv 15 100 25 empty empty empty 20 12 0 14 -261682 -66577
0;
#X obj 212 125 r beep_line;
#X obj 276 582 tabwrite~ sound;
#X obj 105 350 *~;
#X obj 276 537 loadbang;
#X obj 175 633 cnv 15 295 135 empty empty empty 20 12 0 14 -159808
-66577 0;
#X obj 191 620 cnv 15 295 135 empty empty empty 20 12 0 14 -260736
-66577 0;
#X obj 181 626 cnv 15 297 137 empty empty empty 20 12 0 14 -232576
-66577 0;
#N canvas 0 50 450 250 (subpatch) 0;
#X array sound 1000 float 0;
#X coords 0 1 999 -1 300 140 1 0 0;
#X restore 180 624 graph;
#X obj 76 840 outlet~;
#X obj 483 467 metro 30;
#X obj 411 283 / 4;
#X msg 467 75 1500;
#X obj 124 -109 sub/clipscale 0 1 1000 100;
#X obj 75 488 -~ 0.2;
#X connect 0 0 56 0;
#X connect 1 0 2 0;
#X connect 2 0 4 1;
#X connect 3 0 4 0;
#X connect 4 0 7 0;
#X connect 5 0 6 0;
#X connect 6 0 38 0;
#X connect 7 0 28 0;
#X connect 9 0 15 0;
#X connect 9 0 55 0;
#X connect 10 0 17 1;
#X connect 10 0 18 0;
#X connect 11 0 12 0;
#X connect 11 0 46 1;
#X connect 12 0 13 0;
#X connect 13 0 42 0;
#X connect 14 0 53 0;
#X connect 14 0 53 0;
#X connect 15 0 10 0;
#X connect 16 0 17 0;
#X connect 16 0 18 1;
#X connect 17 0 18 0;
#X connect 18 0 15 1;
#X connect 18 0 21 0;
#X connect 18 0 54 0;
#X connect 19 0 15 0;
#X connect 20 0 22 0;
#X connect 21 0 20 1;
#X connect 22 0 11 0;
#X connect 25 0 5 0;
#X connect 26 0 45 0;
#X connect 27 0 3 0;
#X connect 28 0 30 0;
#X connect 29 0 28 1;
#X connect 30 0 6 1;
#X connect 31 0 29 0;
#X connect 33 0 37 0;
#X connect 35 0 14 0;
#X connect 36 0 46 0;
#X connect 37 0 36 1;
#X connect 38 0 36 0;
#X connect 39 0 33 0;
#X connect 39 0 34 0;
#X connect 44 0 39 0;
#X connect 46 0 57 0;
#X connect 47 0 26 0;
#X connect 53 0 12 0;
#X connect 53 0 12 0;
#X connect 54 0 20 0;
#X connect 55 0 16 0;
#X connect 56 0 16 0;
#X connect 57 0 45 0;
#X connect 57 0 52 0;
#X restore 61 522 pd warning;
#X obj 888 307 sel warn none encourage;
#X obj 337 418 bng 15 250 50 0 empty empty empty 17 7 0 10 -258113
-261234 -1;
#X obj 940 452 bng 15 250 50 0 empty empty empty 17 7 0 10 -191407
-99865 -1;
#X obj 242 418 s start_time;
#X obj 61 699 *~;
#X obj 137 647 line;
#X obj 61 721 sub/delay oo_oo 0.6 50;
#X obj 48 987 dac~;
#X obj 298 565 spigot;
#X msg 337 522 1;
#X msg 374 522 0;
#X msg 298 663 symbol none;
#X obj 199 624 r mute;
#X obj 971 500 s mute;
#X obj 959 527 s reset_time;
#X msg 137 624 1 2000;
#X obj 350 565 bng 15 250 50 0 empty empty empty 17 7 0 10 -262144
-1 -1;
#X obj 901 717 spigot;
#X msg 804 618 symbol encourage;
#X msg 940 553 1;
#X msg 970 591 0;
#X msg 805 671 symbol warn;
#X obj 900 284 print;
#X obj 1203 561 cnv 15 130 22 empty empty empty 20 12 0 14 -4034 -66577
0;
#X obj 1514 417 bng 15 250 50 0 empty empty empty 17 7 0 10 -4034 -204786
-1;
#X obj 1536 416 s start_time;
#X obj 1210 689 *~;
#X obj 1311 639 line;
#X obj 1199 983 dac~;
#X obj 1437 540 spigot;
#X msg 1514 499 1;
#X msg 1476 499 0;
#X msg 1437 662 symbol none;
#X obj 1373 615 r mute;
#X msg 1311 616 1 2000;
#X obj 1493 541 bng 15 250 50 0 empty empty empty 17 7 0 10 -262144
-1 -1;
#X obj 1210 711 sub/delay o_oo 0.6 50;
#X obj 61 743 sub/dirty_limiter;
#X obj 131 866 metro 50;
#X obj 131 844 loadbang;
#N canvas 142 103 1040 953 encouragement 0;
#X obj 92 294 bng 15 250 50 0 empty empty empty 17 7 0 10 -261234 -1
-1;
#X floatatom 177 240 5 0 0 0 - - -, f 5;
#X floatatom 131 124 5 0 0 0 - - -, f 5;
#X floatatom 221 240 5 0 0 0 - - -, f 5;
#X obj 65 253 loadbang;
#X floatatom 452 64 5 0 0 0 - - -, f 5;
#X floatatom 452 112 5 0 0 0 - - -, f 5;
#X obj 293 335 vsl 15 70 0 1 0 0 empty empty empty 0 -9 0 10 -262130
-1 -1 307 1;
#X text 131 103 tempo;
#X text 452 43 pitch/transpose;
#X floatatom 302 273 5 0 0 0 - - -, f 5;
#X text 59 181 floor -->;
#X floatatom 92 319 5 0 0 0 - - -, f 5;
#X obj 276 740 hip~ 600;
#X obj 95 739 hip~ 600;
#X obj 131 176 expr $f1 \; if ($f1 > 50 \, $f1 \, 50) \;;
#X obj 29 32 inlet;
#X obj 173 907 outlet~;
#X obj 710 212 r tempo;
#X obj 325 214 s tempo;
#X text 628 157 == Super harmonics? ==;
#X obj 620 267 loadbang;
#X obj 599 267 bng 15 250 50 0 empty empty empty 17 7 0 10 -262144
-1 -1;
#X obj 666 359 +~;
#X obj 667 405 *~;
#X msg 729 266 24;
#X obj 667 381 /~ 2;
#X obj 710 234 / 1.5;
#X text 576 233 Slightly faster ->;
#X text 384 213 Send ->;
#X obj 436 595 osc~;
#X obj 437 619 *~;
#X text 567 545 Only play when amp is going up;
#X obj 650 567 >;
#X obj 650 620 line;
#X msg 650 594 \$1 100;
#X text 419 509 == Play a rising sine in the background when amp is
increasing ==;
#X text 577 175 Creates a brighter "bllrlrl" for when shit really hits
the fan (i.e. amp is "really high");
#X obj 436 550 r amp_in_pos;
#X obj 730 365 r amp_in_pos;
#X obj 293 245 r amp_in_pos;
#X obj 358 63 r amp_in_pos;
#X obj 36 122 r amp_in_pos;
#X obj 760 266 loadbang;
#X obj 437 649 *~ 0.3;
#X text 285 148 <- Arp gets faster as amp gets higher;
#X text 49 292 Stop!;
#X text 346 270 Higher amp = louder;
#X text 318 335 <- volum :>;
#X text 826 265 <- transpose;
#X text 437 699 <- mix with the other sounds;
#X text 728 346 Volume: only audible when amp is high;
#X text 658 426 <- mix with the other sounds;
#X text 453 471 <- Delay sound nice;
#X obj 452 88 sub/scale 0 20 -3 3;
#X obj 95 761 sub/dirty_limiter;
#X obj 276 762 sub/dirty_limiter;
#X obj 131 149 sub/scale 5 50 300 20;
#X obj 293 296 sub/scale 5 50 0 1;
#X obj 436 572 sub/clipscale 5 100 20 1600;
#X obj 167 309 sub/seq 55 64 67;
#X obj 620 299 sub/seq 55 64 67;
#X obj 436 674 sub/delay spliffycrack 0.3 200;
#X obj 174 877 +~;
#X obj 276 784 *~ 0.5;
#X text 27 -10 THIS IS A COPY FROM amp_arp.pd SO NAMES AND COMMENTS
MAY NOT BE UP TO DATE;
#X text 78 33 deal with it;
#X obj 78 33 s amp_in_pos;
#X obj 95 783 *~ 0.7;
#X obj 729 389 sub/clipscale 30 80 0 0.6;
#X obj 94 433 *~ 1;
#X obj 275 430 *~ 1;
#X connect 0 0 12 0;
#X connect 0 0 60 0;
#X connect 1 0 60 1;
#X connect 2 0 57 0;
#X connect 3 0 60 1;
#X connect 4 0 60 0;
#X connect 5 0 54 0;
#X connect 10 0 58 0;
#X connect 12 0 7 0;
#X connect 13 0 56 0;
#X connect 14 0 55 0;
#X connect 15 1 3 0;
#X connect 15 1 19 0;
#X connect 16 0 67 0;
#X connect 18 0 27 0;
#X connect 21 0 61 0;
#X connect 22 0 61 0;
#X connect 23 0 26 0;
#X connect 24 0 14 0;
#X connect 24 0 13 0;
#X connect 25 0 61 2;
#X connect 26 0 24 0;
#X connect 27 0 61 1;
#X connect 30 0 31 0;
#X connect 31 0 44 0;
#X connect 33 0 35 0;
#X connect 34 0 31 1;
#X connect 35 0 34 0;
#X connect 38 0 33 0;
#X connect 38 0 33 1;
#X connect 38 0 59 0;
#X connect 39 0 69 0;
#X connect 40 0 58 0;
#X connect 41 0 54 0;
#X connect 42 0 57 0;
#X connect 43 0 25 0;
#X connect 44 0 62 0;
#X connect 54 0 6 0;
#X connect 55 0 68 0;
#X connect 56 0 64 0;
#X connect 57 0 15 0;
#X connect 58 0 7 0;
#X connect 59 0 30 0;
#X connect 60 0 70 0;
#X connect 60 1 71 0;
#X connect 61 0 23 0;
#X connect 61 1 23 1;
#X connect 62 0 13 0;
#X connect 62 0 14 0;
#X connect 63 0 17 0;
#X connect 64 0 63 1;
#X connect 68 0 63 0;
#X connect 69 0 24 1;
#X connect 70 0 14 0;
#X connect 71 0 13 0;
#X restore 1209 563 pd encouragement;
#X obj 1209 520 sub/clipscale 0 1 7 50;
#X obj 1210 733 sub/dirty_limiter;
#X obj 792 831 cnv 15 295 135 empty empty empty 20 12 0 14 -159808
-66577 0;
#X obj 808 818 cnv 15 295 135 empty empty empty 20 12 0 14 -260736
-66577 0;
#X obj 798 824 cnv 15 297 137 empty empty empty 20 12 0 14 -232576
-66577 0;
#N canvas 0 50 450 250 (subpatch) 0;
#X array sound_out 1000 float 0;
#X coords 0 1 999 -1 300 140 1 0 0;
#X restore 797 822 graph;
#X obj 1283 886 metro 50;
#X obj 1283 864 loadbang;
#X obj 1283 908 tabwrite~ sound_out;
#X obj 131 887 tabwrite~ sound_out;
#X obj 1209 495 r c_transition_time;
#X msg 1373 637 0;
#X msg 199 646 0;
#X obj 1421 -129 cnv 15 450 200 empty empty empty 20 12 0 14 -262130
-66577 0;
#X obj 1576 -24 line;
#X msg 1676 -56 0;
#X floatatom 1618 -24 5 0 0 0 - - -, f 5;
#X obj 1576 -80 r start_time;
#X obj 1676 -80 r reset_time;
#X obj 1447 -29 bng 15 250 50 0 empty empty empty 17 7 0 10 -228856
-99865 -1;
#X obj 1447 -9 s c_state_bang;
#X obj 1447 -74 bng 15 250 50 0 empty empty empty 17 7 0 10 -258113
-261234 -1;
#X obj 1447 -54 s c_neg_bang;
#X obj 1448 15 bng 15 250 50 0 empty empty empty 17 7 0 10 -4034 -204786
-1;
#X obj 1448 35 s c_pos_bang;
#X msg 1576 -57 1 5000;
#X obj 1585 -4 cnv 15 260 40 empty empty empty 20 12 0 14 -261304 -66577
0;
#X text 1588 -1 <- DISCONNECT HERE WHEN USING IN APP;
#X text 1477 -124 >>>>>>>>>> FOR TESTING/DEVELOPING <<<<<<<<<<<<<;
#X text 1468 -76 warn;
#X text 1467 14 encourage;
#X text 1467 -31 none;
#X obj 1045 99 cnv 15 450 160 empty empty empty 20 12 0 14 -233017
-66577 0;
#X obj 1272 215 cnv 15 100 20 empty empty empty 20 12 0 14 -109978
-66577 0;
#X obj 1372 215 cnv 15 100 20 empty empty empty 20 12 0 14 -216615
-66577 0;
#X obj 1061 214 cnv 15 100 20 empty empty empty 20 12 0 14 -260160
-66577 0;
#X obj 1162 213 cnv 15 100 20 empty empty empty 20 12 0 14 -232576
-66577 0;
#X obj 1061 193 t b b;
#X obj 1061 168 r c_neg_bang;
#X obj 1062 216 s c_neg_bang2;
#X obj 1163 216 s c_neg_bang1;
#X obj 1272 194 t b b;
#X obj 1272 169 r c_pos_bang;
#X obj 1272 216 s c_pos_bang2;
#X obj 1376 215 s c_pos_bang1;
#X text 1058 109 c_neg_bang and c_pos_bang are received here;
#X text 1056 125 They need to be distributed to the patch in the right
order for the state changes to work properly.;
#X obj 298 486 cnv 15 100 20 empty empty empty 20 12 0 14 -109978 -66577
0;
#X obj 298 488 r c_pos_bang2;
#X obj 803 594 cnv 15 100 20 empty empty empty 20 12 0 14 -216615 -66577
0;
#X obj 804 596 r c_pos_bang1;
#X obj 1435 463 cnv 15 100 20 empty empty empty 20 12 0 14 -260160
-66577 0;
#X obj 805 648 cnv 15 100 20 empty empty empty 20 12 0 14 -232576 -66577
0;
#X obj 1437 465 r c_neg_bang2;
#X obj 805 648 r c_neg_bang1;
#X obj 519 101 cnv 15 270 180 empty empty empty 20 12 0 14 -233017
-66577 0;
#X floatatom 551 178 5 0 0 0 - - -, f 5;
#X floatatom 550 225 5 0 0 0 - - -, f 5;
#X obj 534 199 expr 1-(ln($f1)/-9);
#X text 530 110 Time is received here and changed;
#X text 530 124 to a logarithmic function (kind of);
#X obj 806 100 cnv 15 220 130 empty empty empty 20 12 0 14 -233017
-66577 0;
#X obj 895 156 r c_state_bang;
#X msg 853 182 symbol none;
#X obj 853 205 s state;
#X obj 853 134 loadbang;
#X text 815 108 Set initial state to "none";
#X obj 401 561 cnv 15 310 190 empty empty empty 20 12 0 14 -261819
-66577 0;
#X obj 411 627 spigot;
#X obj 462 627 bng 15 250 50 0 empty empty empty 17 7 0 10 -262144
-1 -1;
#X obj 411 605 r c_state_bang;
#X obj 411 718 dac~;
#X obj 411 671 sub/delay OO779oo 0.3 120;
#X obj 437 694 sub/delay OoOgOPP_w 0.3 100;
#X text 409 568 Play a "disappointment" sound effect when;
#X text 408 581 the driver loses a level.;
#X obj 401 757 cnv 15 310 190 empty empty empty 20 12 0 14 -261819
-66577 0;
#X obj 416 904 dac~;
#X obj 416 830 sub/delay OOddddoo 0.3 120;
#X obj 468 864 sub/delay OoOoxxx 0.3 100;
#X text 415 772 Play a "phew \, close!" sound effect when;
#X text 414 785 the driver almost lost a level.;
#X obj 183 382 cnv 15 400 20 empty empty empty 20 12 0 14 -261883 -66577
0;
#X text 220 383 >>>>>>>>>>>>>>>>>>> WARN <<<<<<<<<<<<<<<<<<<;
#X text 1280 844 display sound graph;
#X text 1324 598 Sets volume;
#X text 147 521 <- the warning sound;
#X text 403 486 <- positive bang in this state changes state;
#X text 406 519 <- ... but should be ignored otherwise;
#X text 1435 642 state :> none;
#X text 1026 500 Mute all sound;
#X text 1050 527 (dev);
#X text 969 552 enable this state;
#X text 356 417 <- activates state;
#X text 1378 416 activates state ->;
#X obj 1360 380 cnv 15 400 20 empty empty empty 20 12 0 14 -241659
-66577 0;
#X obj 1557 543 cnv 15 310 190 empty empty empty 20 12 0 14 -241659
-66577 0;
#X obj 1567 607 spigot;
#X obj 1623 608 bng 15 250 50 0 empty empty empty 17 7 0 10 -262144
-1 -1;
#X obj 1567 585 r c_state_bang;
#X obj 1568 694 dac~;
#X obj 1592 671 sub/delay OoOoOoo-__w 0.3 100;
#X obj 1567 650 sub/delay OOO--_oo 0.3 120;
#X text 1565 550 Play a "yay congrats" sound effect when;
#X text 1564 563 the driver gains a level.;
#X obj 1556 751 cnv 15 310 160 empty empty empty 20 12 0 14 -241659
-66577 0;
#X obj 1572 875 dac~;
#X obj 1572 829 sub/delay OO45O--_oo 0.3 120;
#X obj 1596 852 sub/delay OoOoO66oo-__w 0.3 100;
#X text 1570 766 Play an "aw \, too bad!" sound effect when;
#X text 1569 779 the driver almost gained a level.;
#X text 155 601 Sets volume;
#X text 1214 544 Play happy sounds;
#X text 295 642 state :> none;
#X text 129 825 display sound graph;
#X text 1545 497 <- ... but should be ignored otherwise;
#X text 1542 464 <- negative bang in this state changes state;
#X text 1397 381 >>>>>>>>>>>>>>>>> ENCOURAGE <<<<<<<<<<<<<<<<<;
#X obj 797 380 cnv 15 300 20 empty empty empty 20 12 0 14 -233017 -66577
0;
#X text 804 382 >>>>>>>>>>>>>>>>> NONE <<<<<<<<<<<<<<<<<;
#X obj 527 247 cnv 15 215 24 empty empty empty 20 12 0 14 -203904 -66577
0;
#X obj 534 250 s c_transition_time_adjusted;
#X obj 58 484 cnv 15 215 24 empty empty empty 20 12 0 14 -203904 -66577
0;
#X obj 61 488 r c_transition_time_adjusted;
#X obj 882 252 cnv 15 70 25 empty empty empty 20 12 0 14 -261549 -66577
0;
#X obj 888 256 r state;
#X obj 894 736 cnv 15 70 25 empty empty empty 20 12 0 14 -261549 -66577
0;
#X obj 289 682 cnv 15 70 25 empty empty empty 20 12 0 14 -261549 -66577
0;
#X obj 901 739 s state;
#X obj 298 685 s state;
#X obj 1431 681 cnv 15 70 25 empty empty empty 20 12 0 14 -261549 -66577
0;
#X obj 1437 684 s state;
#X obj 1085 -41 cnv 15 200 60 empty empty empty 20 12 0 14 -170036
-66577 0;
#X obj 1085 -16 cnv 15 200 60 empty empty empty 20 12 0 14 -231229
-66577 0;
#X obj 1085 -29 cnv 15 200 60 empty empty empty 20 12 0 14 -232576
-66577 0;
#X text 1102 -17 ==== FINE DRIVING ====;
#X text 1167 1 2014;
#X text 960 450 <- disable other states;
#X obj 529 147 cnv 15 150 24 empty empty empty 20 12 0 14 -203904 -66577
0;
#X obj 534 150 r c_transition_time;
#X obj 1573 38 cnv 15 150 24 empty empty empty 20 12 0 14 -203904 -66577
0;
#X obj 1576 42 s c_transition_time;
#X obj 29 -66 cnv 15 920 140 empty empty empty 20 12 0 14 -262134 -66577
0;
#X text 48 -35 This patch is used with the "Fine Driver" game.;
#X text 48 -18 It is basically a finite state machine with three states:
"warn" \, "none" and "encourage". The state changes as the car is about
to change mode in the Fine Driver game - e.g. going from "normal" to
"bad" when using too much energy. As the state is about to change \,
this patch produces sound to inform the driver of the potential state
change.;
#X text 533 -32 "warn": The driver's mode is about to change negatively
\, i.e. good -> normal or normal -> bad.;
#X text 530 -1 "none": The driver is not about to change mode \, i.e.
uses the right amount of energy to stay in the current mode.;
#X text 534 31 "encourage": The driver's mode is about to change positively
\, i.e. bad -> normal or normal -> bad;
#X text 48 -56 ======= DESCRIPTION;
#X text 537 -50 ======= THE STATES;
#X obj 105 112 r fine_driving;
#X obj 104 214 dac~;
#X obj 225 110 bng 15 250 50 0 empty empty empty 17 7 0 10 -262144
-1 -1;
#X obj 103 297 dac~;
#X obj 224 244 bng 15 250 50 0 empty empty empty 17 7 0 10 -262144
-1 -1;
#X obj 104 246 r foul_driving;
#X obj 411 649 sub/wav ../fd-wavs/statechangetoneg.wav;
#X obj 416 808 sub/wav ../fd-wavs/stateavoidneg.wav;
#X obj 1567 628 sub/wav ../fd-wavs/statechangetopos.wav;
#X obj 1571 806 sub/wav ../fd-wavs/stateavoidpos.wav;
#X obj 205 162 sub/wav ../wav/fine-driving.wav;
#X obj 104 272 sub/wav ../wav/failure_1.wav;
#X obj 105 135 sub/wav ../wav/success_2.wav;
#X text 1620 14 (connect when testing in pd);
#X connect 3 0 8 0;
#X connect 4 0 5 0;
#X connect 4 1 6 0;
#X connect 4 2 28 0;
#X connect 5 0 7 0;
#X connect 5 0 19 0;
#X connect 5 0 13 0;
#X connect 5 0 24 0;
#X connect 6 0 17 0;
#X connect 6 0 18 0;
#X connect 6 0 23 0;
#X connect 6 0 14 0;
#X connect 6 0 35 0;
#X connect 8 0 10 0;
#X connect 9 0 8 1;
#X connect 10 0 41 0;
#X connect 12 0 15 0;
#X connect 12 0 20 0;
#X connect 12 0 202 0;
#X connect 13 0 12 1;
#X connect 13 0 113 1;
#X connect 14 0 12 1;
#X connect 14 0 113 1;
#X connect 15 0 174 0;
#X connect 16 0 57 0;
#X connect 19 0 9 0;
#X connect 21 0 173 0;
#X connect 22 0 21 0;
#X connect 23 0 21 1;
#X connect 24 0 21 1;
#X connect 25 0 21 0;
#X connect 28 0 29 0;
#X connect 28 0 38 0;
#X connect 28 0 34 0;
#X connect 28 0 24 0;
#X connect 30 0 40 0;
#X connect 31 0 30 1;
#X connect 33 0 36 0;
#X connect 33 0 39 0;
#X connect 33 0 204 0;
#X connect 34 0 33 1;
#X connect 34 0 142 1;
#X connect 35 0 33 1;
#X connect 35 0 142 1;
#X connect 36 0 176 0;
#X connect 37 0 56 0;
#X connect 38 0 31 0;
#X connect 40 0 46 0;
#X connect 41 0 11 0;
#X connect 41 0 11 1;
#X connect 41 0 54 0;
#X connect 42 0 54 0;
#X connect 43 0 42 0;
#X connect 44 0 30 0;
#X connect 45 0 44 0;
#X connect 46 0 32 0;
#X connect 46 0 32 1;
#X connect 46 0 53 0;
#X connect 51 0 53 0;
#X connect 52 0 51 0;
#X connect 55 0 45 0;
#X connect 56 0 31 0;
#X connect 57 0 9 0;
#X connect 59 0 61 0;
#X connect 59 0 186 0;
#X connect 60 0 59 0;
#X connect 62 0 70 0;
#X connect 63 0 60 0;
#X connect 64 0 65 0;
#X connect 66 0 67 0;
#X connect 68 0 69 0;
#X connect 70 0 59 0;
#X connect 82 0 84 0;
#X connect 82 1 85 0;
#X connect 83 0 82 0;
#X connect 86 0 88 0;
#X connect 86 1 89 0;
#X connect 87 0 86 0;
#X connect 93 0 12 0;
#X connect 95 0 22 0;
#X connect 98 0 33 0;
#X connect 99 0 25 0;
#X connect 103 0 102 0;
#X connect 103 0 166 0;
#X connect 107 0 108 0;
#X connect 108 0 109 0;
#X connect 110 0 108 0;
#X connect 113 0 114 0;
#X connect 113 0 201 0;
#X connect 115 0 113 0;
#X connect 117 0 116 0;
#X connect 118 0 116 1;
#X connect 123 0 122 0;
#X connect 124 0 122 1;
#X connect 142 0 143 0;
#X connect 142 0 203 0;
#X connect 144 0 142 0;
#X connect 146 0 145 1;
#X connect 147 0 145 0;
#X connect 152 0 151 0;
#X connect 153 0 151 1;
#X connect 168 0 3 0;
#X connect 170 0 4 0;
#X connect 170 0 26 0;
#X connect 184 0 101 0;
#X connect 184 0 103 0;
#X connect 195 0 207 0;
#X connect 197 0 207 0;
#X connect 199 0 206 0;
#X connect 200 0 206 0;
#X connect 201 0 117 0;
#X connect 201 1 118 0;
#X connect 202 0 123 0;
#X connect 202 1 124 0;
#X connect 203 0 147 0;
#X connect 203 1 146 0;
#X connect 204 0 152 0;
#X connect 204 0 153 0;
#X connect 205 0 196 0;
#X connect 205 1 196 1;
#X connect 206 0 198 0;
#X connect 206 1 198 1;
#X connect 207 0 196 0;
#X connect 207 1 196 1;
#X connect 207 2 205 0;
