#N canvas 79 159 1720 671 10;
#X obj 347 122 cnv 15 300 300 empty empty empty 20 12 0 14 -261234
-66577 0;
#X obj 1219 167 cnv 15 360 300 empty empty empty 20 12 0 14 -204786
-66577 0;
#X obj 366 230 cnv 15 90 30 empty empty empty 20 12 0 14 -258113 -66577
0;
#N canvas 971 53 709 1025 warning 1;
#X obj 124 -134 inlet;
#X obj -45 129 osc~ 200;
#X obj -45 151 *~ 0.5;
#X obj 24 151 *~ 0.5;
#X obj 24 173 +~;
#X obj 106 151 *~ 0.5;
#X obj 105 283 +~;
#X obj 24 195 *~ 0.5;
#X text -44 104 warning tone;
#X obj 411 50 loadbang;
#X obj 411 127 bng 15 250 50 0 empty empty empty 17 7 0 10 -262144
-1 -1;
#X obj 411 426 vline~;
#X obj 483 489 snapshot~;
#X floatatom 483 510 5 0 0 0 - - -, f 5;
#X obj 483 447 bng 15 250 50 0 empty empty empty 17 7 0 10 -262144
-1 -1;
#X obj 411 102 metro 1000;
#X floatatom 467 201 5 0 0 0 - - -, f 5;
#X obj 467 223 sub/only_one_bang_please;
#X obj 411 257 f;
#X obj 389 77 tgl 15 0 empty empty empty 17 7 0 10 -262144 -1 -1 0
1;
#X obj 411 327 pack;
#X obj 436 304 / 10;
#X msg 411 350 1 \$2 0 \, 0 \$2 \$1;
#X text 445 283 <- Duration;
#X text 471 304 <- Fade in/out timne;
#X obj 106 129 phasor~ 300;
#X obj 276 560 metro 48;
#X obj 24 129 osc~ 210;
#X obj 24 217 +~;
#X obj -46 200 *~ 0.5;
#X obj 24 239 *~ 0.5;
#X obj -46 178 osc~ 800;
#X text 410 27 make it periodic;
#X obj 212 178 osc~;
#X floatatom 253 179 5 0 0 0 - - -, f 5;
#X obj 483 426 loadbang;
#X obj 105 327 +~;
#X obj 212 200 *~ 0.3;
#X obj 105 305 *~ 0.7;
#X obj 212 152 expr $f1*150+100;
#X text 508 199 <- tempo for metro;
#X obj 474 530 cnv 15 100 25 empty empty empty 20 12 0 14 -261682 -66577
0;
#X obj 483 533 s beep_line;
#X obj 203 121 cnv 15 100 25 empty empty empty 20 12 0 14 -261682 -66577
0;
#X obj 212 125 r beep_line;
#X obj 276 582 tabwrite~ sound;
#X obj 105 350 *~;
#X obj 276 537 loadbang;
#X obj 175 633 cnv 15 295 135 empty empty empty 20 12 0 14 -159808
-66577 0;
#X obj 191 620 cnv 15 295 135 empty empty empty 20 12 0 14 -260736
-66577 0;
#X obj 181 626 cnv 15 297 137 empty empty empty 20 12 0 14 -232576
-66577 0;
#N canvas 0 50 450 250 (subpatch) 0;
#X array sound 1000 float 0;
#X coords 0 1 999 -1 300 140 1 0 0;
#X restore 180 624 graph;
#X obj 76 840 outlet~;
#X obj 483 467 metro 30;
#X obj 411 283 / 4, f 4;
#X msg 467 75 1500;
#X obj 124 -109 sub/clipscale 0 1 1000 100;
#X obj 75 488 -~ 0.2;
#X connect 0 0 56 0;
#X connect 1 0 2 0;
#X connect 2 0 4 1;
#X connect 3 0 4 0;
#X connect 4 0 7 0;
#X connect 5 0 6 0;
#X connect 6 0 38 0;
#X connect 7 0 28 0;
#X connect 9 0 15 0;
#X connect 9 0 55 0;
#X connect 10 0 17 1;
#X connect 10 0 18 0;
#X connect 11 0 12 0;
#X connect 11 0 46 1;
#X connect 12 0 13 0;
#X connect 13 0 42 0;
#X connect 14 0 53 0;
#X connect 14 0 53 0;
#X connect 15 0 10 0;
#X connect 16 0 17 0;
#X connect 16 0 18 1;
#X connect 17 0 18 0;
#X connect 18 0 15 1;
#X connect 18 0 21 0;
#X connect 18 0 54 0;
#X connect 19 0 15 0;
#X connect 20 0 22 0;
#X connect 21 0 20 1;
#X connect 22 0 11 0;
#X connect 25 0 5 0;
#X connect 26 0 45 0;
#X connect 27 0 3 0;
#X connect 28 0 30 0;
#X connect 29 0 28 1;
#X connect 30 0 6 1;
#X connect 31 0 29 0;
#X connect 33 0 37 0;
#X connect 35 0 14 0;
#X connect 36 0 46 0;
#X connect 37 0 36 1;
#X connect 38 0 36 0;
#X connect 39 0 33 0;
#X connect 39 0 34 0;
#X connect 44 0 39 0;
#X connect 46 0 57 0;
#X connect 47 0 26 0;
#X connect 53 0 12 0;
#X connect 53 0 12 0;
#X connect 54 0 20 0;
#X connect 55 0 16 0;
#X connect 56 0 16 0;
#X connect 57 0 45 0;
#X connect 57 0 52 0;
#X restore 373 232 pd warning;
#X obj 125 13 line;
#X msg 262 -50 0;
#X floatatom 284 12 5 0 0 0 - - -, f 5;
#X floatatom 385 60 5 0 0 0 - - -, f 5;
#X obj 907 69 sel warn none encourage;
#X obj 907 21 r state;
#X obj 518 160 bng 15 250 50 0 empty empty empty 17 7 0 10 -262144
-1 -1;
#X obj 959 145 bng 15 250 50 0 empty empty empty 17 7 0 10 -262144
-1 -1;
#X obj 390 131 s start_time;
#X obj 349 5 r start_time;
#X obj 516 -4 r reset_time;
#X obj 373 322 *~;
#X obj 449 289 line;
#X obj 373 344 sub/delay oo_oo 0.6 50;
#X obj 361 395 dac~;
#X obj 622 -90 r c_state_bang;
#X msg 622 -68 symbol none;
#X obj 610 275 spigot;
#X msg 572 208 1;
#X msg 607 206 0;
#X msg 610 297 symbol none;
#X obj 610 319 s state;
#X obj 519 285 r mute;
#X msg 519 307 0 100;
#X obj 981 199 s mute;
#X obj 794 -79 bng 15 250 50 0 empty empty empty 17 7 0 10 -262144
-1 -1;
#X obj 794 -59 s c_state_bang;
#X obj 941 -83 bng 15 250 50 0 empty empty empty 17 7 0 10 -262144
-1 -1;
#X obj 969 223 s reset_time;
#X obj 941 -63 s c_neg_bang;
#X msg 449 266 1 2000;
#X obj 1056 -84 bng 15 250 50 0 empty empty empty 17 7 0 10 -262144
-1 -1;
#X obj 1056 -64 s c_pos_bang;
#X obj 666 276 bng 15 250 50 0 empty empty empty 17 7 0 10 -262144
-1 -1;
#X obj 622 -46 s state;
#X obj 946 370 spigot;
#X msg 804 319 symbol encourage;
#X obj 946 392 s state;
#X msg 1006 280 1;
#X msg 955 319 0;
#X msg 830 246 symbol warn;
#X obj 919 46 print;
#X obj 1233 292 cnv 15 90 30 empty empty empty 20 12 0 14 -4034 -66577
0;
#X obj 1389 204 bng 15 250 50 0 empty empty empty 17 7 0 10 -262144
-1 -1;
#X obj 1261 175 s start_time;
#X obj 1244 366 *~;
#X obj 1328 353 line;
#X obj 1232 439 dac~;
#X obj 1481 319 spigot;
#X msg 1443 252 1;
#X msg 1478 250 0;
#X msg 1481 341 symbol none;
#X obj 1481 363 s state;
#X obj 1390 329 r mute;
#X msg 1390 351 0 100;
#X msg 1328 330 1 2000;
#X obj 1537 320 bng 15 250 50 0 empty empty empty 17 7 0 10 -262144
-1 -1;
#N canvas 0 50 450 300 encouragement 0;
#X obj 79 51 inlet;
#X obj 55 154 outlet~;
#X restore 1226 296 pd encouragement;
#X obj 1481 73 bng 15 250 50 0 empty empty empty 17 7 0 10 -262144
-1 -1;
#X obj 1244 388 sub/delay o_oo 0.6 50;
#X obj 869 269 print agaga2;
#X obj 1041 189 print agaga1;
#X obj 1254 13 t b b;
#X obj 1387 292 r c_neg_bang2;
#X obj 830 223 r c_neg_bang1;
#X obj 1254 -12 r c_neg_bang;
#X obj 1254 35 s c_neg_bang2;
#X obj 1353 35 s c_neg_bang1;
#X obj 804 297 r c_pos_bang1;
#X obj 519 247 r c_pos_bang2;
#X obj 1255 93 t b b;
#X obj 1255 68 r c_pos_bang;
#X obj 1255 115 s c_pos_bang2;
#X obj 1355 115 s c_pos_bang1;
#X obj 557 -90 loadbang;
#X obj 52 124 r c_transition_time;
#X obj 55 230 s c_transition_time_adjusted;
#X obj 358 201 r c_transition_time_adjusted;
#X obj 1228 259 r c_transition_time_adjusted;
#X msg 93 -30 1 5000;
#X obj 125 59 s c_transition_time;
#X floatatom 52 146 5 0 0 0 - - -, f 5;
#X floatatom 68 204 5 0 0 0 - - -, f 5;
#X obj 373 366 sub/dirty_limiter;
#X obj 108 170 expr 1-(ln($f1)/-9);
#X obj 515 487 metro 50;
#X obj 515 509 tabwrite~ warning_sound;
#X obj 515 465 loadbang;
#X obj 11 421 cnv 15 295 135 empty empty empty 20 12 0 14 -159808 -66577
0;
#X obj 27 408 cnv 15 295 135 empty empty empty 20 12 0 14 -260736 -66577
0;
#X obj 17 414 cnv 15 297 137 empty empty empty 20 12 0 14 -232576 -66577
0;
#N canvas 0 50 450 250 (subpatch) 0;
#X array warning_sound 1000 float 0;
#X coords 0 1 999 -1 300 140 1 0 0;
#X restore 16 412 graph;
#X text 133 36 <- REMOVE THIS WHEN USING IN APP;
#X connect 3 0 15 0;
#X connect 4 0 6 0;
#X connect 5 0 4 0;
#X connect 8 0 10 0;
#X connect 8 1 11 0;
#X connect 8 2 47 0;
#X connect 9 0 8 0;
#X connect 9 0 45 0;
#X connect 10 0 12 0;
#X connect 10 0 34 0;
#X connect 10 0 22 0;
#X connect 10 0 43 0;
#X connect 11 0 28 0;
#X connect 11 0 32 0;
#X connect 11 0 42 0;
#X connect 11 0 23 0;
#X connect 11 0 54 0;
#X connect 11 0 65 0;
#X connect 13 0 83 0;
#X connect 14 0 5 0;
#X connect 15 0 17 0;
#X connect 16 0 15 1;
#X connect 17 0 87 0;
#X connect 19 0 20 0;
#X connect 20 0 38 0;
#X connect 21 0 24 0;
#X connect 21 0 37 0;
#X connect 22 0 21 1;
#X connect 23 0 21 1;
#X connect 24 0 25 0;
#X connect 26 0 27 0;
#X connect 27 0 16 0;
#X connect 29 0 30 0;
#X connect 31 0 33 0;
#X connect 34 0 16 0;
#X connect 35 0 36 0;
#X connect 39 0 41 0;
#X connect 40 0 39 0;
#X connect 42 0 39 1;
#X connect 43 0 39 1;
#X connect 44 0 39 0;
#X connect 44 0 64 0;
#X connect 47 0 48 0;
#X connect 47 0 59 0;
#X connect 47 0 53 0;
#X connect 47 0 43 0;
#X connect 49 0 63 0;
#X connect 50 0 49 1;
#X connect 52 0 55 0;
#X connect 52 0 60 0;
#X connect 53 0 52 1;
#X connect 54 0 52 1;
#X connect 55 0 56 0;
#X connect 57 0 58 0;
#X connect 58 0 50 0;
#X connect 59 0 50 0;
#X connect 61 0 49 0;
#X connect 62 0 52 0;
#X connect 63 0 51 0;
#X connect 63 0 51 1;
#X connect 66 0 70 0;
#X connect 66 1 71 0;
#X connect 67 0 52 0;
#X connect 68 0 44 0;
#X connect 69 0 66 0;
#X connect 72 0 40 0;
#X connect 73 0 21 0;
#X connect 74 0 76 0;
#X connect 74 1 77 0;
#X connect 75 0 74 0;
#X connect 78 0 20 0;
#X connect 79 0 85 0;
#X connect 79 0 88 0;
#X connect 81 0 3 0;
#X connect 82 0 61 0;
#X connect 83 0 4 0;
#X connect 87 0 18 0;
#X connect 87 0 18 1;
#X connect 87 0 90 0;
#X connect 88 0 80 0;
#X connect 88 0 86 0;
#X connect 89 0 90 0;
#X connect 91 0 89 0;
