#N canvas 275 415 1556 597 10;
#X obj -159 47 cnv 15 300 300 empty empty empty 20 12 0 14 -261234
-66577 0;
#X obj 161 47 cnv 15 360 300 empty empty empty 20 12 0 14 -204786 -66577
0;
#X obj 365 147 cnv 15 130 30 empty empty empty 20 12 0 14 -4034 -66577
0;
#X obj -153 141 cnv 15 90 30 empty empty empty 20 12 0 14 -258113 -66577
0;
#N canvas 1126 46 709 1025 warning 1;
#X obj 124 -134 inlet;
#X obj -45 129 osc~ 200;
#X obj -45 151 *~ 0.5;
#X obj 24 151 *~ 0.5;
#X obj 24 173 +~;
#X obj 106 151 *~ 0.5;
#X obj 105 283 +~;
#X obj 24 195 *~ 0.5;
#X text -44 104 warning tone;
#X obj 411 50 loadbang;
#X obj 411 127 bng 15 250 50 0 empty empty empty 17 7 0 10 -262144
-1 -1;
#X obj 411 426 vline~;
#X obj 483 489 snapshot~;
#X floatatom 483 510 5 0 0 0 - - -, f 5;
#X obj 483 447 bng 15 250 50 0 empty empty empty 17 7 0 10 -262144
-1 -1;
#X obj 411 102 metro 1000;
#X floatatom 467 201 5 0 0 0 - - -, f 5;
#X obj 411 283 / 2, f 4;
#X obj 467 223 sub/only_one_bang_please;
#X obj 411 257 f;
#X obj 389 77 tgl 15 0 empty empty empty 17 7 0 10 -262144 -1 -1 0
1;
#X obj 411 327 pack;
#X obj 436 304 / 10;
#X msg 411 350 1 \$2 0 \, 0 \$2 \$1;
#X text 445 283 <- Duration;
#X text 471 304 <- Fade in/out timne;
#X obj 106 129 phasor~ 300;
#X obj 276 560 metro 48;
#X obj 75 488 -~ 0.3;
#X obj 24 129 osc~ 210;
#X obj 24 217 +~;
#X obj -46 200 *~ 0.5;
#X obj 24 239 *~ 0.5;
#X obj -46 178 osc~ 800;
#X text 410 27 make it periodic;
#X obj 212 178 osc~;
#X floatatom 253 179 5 0 0 0 - - -, f 5;
#X obj 483 426 loadbang;
#X obj 105 327 +~;
#X obj 75 467 sub/dirty_limiter;
#X obj 212 200 *~ 0.3;
#X obj 105 305 *~ 0.7;
#X obj 212 152 expr $f1*150+100;
#X msg 467 75 2000;
#X text 508 199 <- tempo for metro;
#X obj 474 530 cnv 15 100 25 empty empty empty 20 12 0 14 -261682 -66577
0;
#X obj 483 533 s beep_line;
#X obj 203 121 cnv 15 100 25 empty empty empty 20 12 0 14 -261682 -66577
0;
#X obj 212 125 r beep_line;
#X obj 276 582 tabwrite~ sound;
#X obj 105 350 *~;
#X obj 276 537 loadbang;
#X obj 175 633 cnv 15 295 135 empty empty empty 20 12 0 14 -159808
-66577 0;
#X obj 191 620 cnv 15 295 135 empty empty empty 20 12 0 14 -260736
-66577 0;
#X obj 181 626 cnv 15 297 137 empty empty empty 20 12 0 14 -232576
-66577 0;
#N canvas 0 50 450 250 (subpatch) 0;
#X array sound 1000 float 0;
#X coords 0 1 999 -1 300 140 1 0 0;
#X restore 180 624 graph;
#X obj 76 840 outlet~;
#X obj 483 467 metro 30;
#X obj 124 -109 sub/clipscale 0 1 2000 0;
#X connect 0 0 58 0;
#X connect 1 0 2 0;
#X connect 2 0 4 1;
#X connect 3 0 4 0;
#X connect 4 0 7 0;
#X connect 5 0 6 0;
#X connect 6 0 41 0;
#X connect 7 0 30 0;
#X connect 9 0 15 0;
#X connect 9 0 43 0;
#X connect 10 0 18 1;
#X connect 10 0 19 0;
#X connect 11 0 12 0;
#X connect 11 0 50 1;
#X connect 12 0 13 0;
#X connect 13 0 46 0;
#X connect 14 0 57 0;
#X connect 14 0 57 0;
#X connect 15 0 10 0;
#X connect 16 0 18 0;
#X connect 16 0 19 1;
#X connect 17 0 21 0;
#X connect 18 0 19 0;
#X connect 19 0 17 0;
#X connect 19 0 15 1;
#X connect 19 0 22 0;
#X connect 20 0 15 0;
#X connect 21 0 23 0;
#X connect 22 0 21 1;
#X connect 23 0 11 0;
#X connect 26 0 5 0;
#X connect 27 0 49 0;
#X connect 28 0 49 0;
#X connect 28 0 56 0;
#X connect 29 0 3 0;
#X connect 30 0 32 0;
#X connect 31 0 30 1;
#X connect 32 0 6 1;
#X connect 33 0 31 0;
#X connect 35 0 40 0;
#X connect 37 0 14 0;
#X connect 38 0 50 0;
#X connect 39 0 28 0;
#X connect 40 0 38 1;
#X connect 41 0 38 0;
#X connect 42 0 35 0;
#X connect 42 0 36 0;
#X connect 43 0 16 0;
#X connect 48 0 42 0;
#X connect 50 0 39 0;
#X connect 51 0 27 0;
#X connect 57 0 12 0;
#X connect 57 0 12 0;
#X connect 58 0 16 0;
#X restore 484 231 pd warning;
#X obj 44 114 r c_pos_bang;
#X obj -48 114 r c_neg_bang;
#X obj -145 61 r c_transition_time;
#X obj -145 286 dac~;
#X obj -145 206 *~;
#X msg -48 158 1;
#X msg 44 158 0;
#X obj 372 67 r c_transition_time;
#X obj 372 292 dac~;
#X obj 372 212 *~;
#N canvas 373 83 405 231 encouragement 0;
#X obj 40 23 inlet;
#X obj 44 157 outlet~;
#X restore 372 153 pd encouragement;
#X obj 262 120 r c_pos_bang;
#X obj 170 120 r c_neg_bang;
#X msg 170 164 0;
#X msg 262 164 1;
#X obj -28 -3 line;
#X msg 39 -33 0;
#X floatatom 131 -4 5 0 0 0 - - -, f 5;
#X floatatom 64 53 5 0 0 0 - - -, f 5;
#X msg -28 -33 1 10000;
#X obj 102 199 r c_state_bang;
#X obj 135 242 line;
#X msg 115 220 1 0 \, 0 200;
#X obj -28 21 expr 1-(ln($f1)/-3);
#X obj 797 73 sel warn none encourage;
#X obj 797 38 r state;
#X obj 629 159 bng 15 250 50 0 empty empty empty 17 7 0 10 -262144
-1 -1;
#X obj 849 135 bng 15 250 50 0 empty empty empty 17 7 0 10 -262144
-1 -1;
#X obj 972 136 bng 15 250 50 0 empty empty empty 17 7 0 10 -262144
-1 -1;
#X msg 736 -35 warn;
#X obj 736 -13 s state;
#X obj -28 43 s temp_time;
#X obj 484 207 r temp_time;
#X obj 552 94 s start_time;
#X obj 196 -11 r start_time;
#X obj 363 -20 r reset_time;
#X obj 484 321 *~;
#X obj 560 288 line;
#X obj 484 343 sub/delay oo_oo 0.6 50;
#X obj 472 394 dac~;
#X obj 931 -2 r c_state_bang;
#X obj 931 42 s state;
#X msg 931 20 symbol none;
#X obj 721 274 spigot;
#X obj 718 183 r c_state_bang;
#X msg 683 207 1;
#X msg 718 205 0;
#X obj 630 253 r c_pos_bang;
#X msg 721 296 symbol none;
#X obj 721 318 s state;
#X obj 630 284 r mute;
#X msg 630 306 0 100;
#X obj 861 159 s mute;
#X obj 916 -93 bng 15 250 50 0 empty empty empty 17 7 0 10 -262144
-1 -1;
#X obj 916 -73 s c_state_bang;
#X obj 1063 -97 bng 15 250 50 0 empty empty empty 17 7 0 10 -262144
-1 -1;
#X obj 849 183 s reset_time;
#X obj 1063 -77 s c_neg_bang;
#X obj 578 -72 r c_neg_bang;
#X msg 578 -50 symbol warn;
#X obj 578 -28 s state;
#X msg 560 265 1 2000;
#X connect 4 0 41 0;
#X connect 5 0 11 0;
#X connect 6 0 10 0;
#X connect 9 0 8 0;
#X connect 9 0 8 1;
#X connect 10 0 9 1;
#X connect 11 0 9 1;
#X connect 12 0 15 0;
#X connect 14 0 13 0;
#X connect 14 0 13 1;
#X connect 15 0 14 0;
#X connect 16 0 19 0;
#X connect 17 0 18 0;
#X connect 18 0 14 1;
#X connect 19 0 14 1;
#X connect 20 0 22 0;
#X connect 20 0 28 0;
#X connect 21 0 20 0;
#X connect 24 0 20 0;
#X connect 25 0 27 0;
#X connect 26 0 9 1;
#X connect 26 0 14 1;
#X connect 27 0 26 0;
#X connect 28 0 23 0;
#X connect 28 0 36 0;
#X connect 29 0 31 0;
#X connect 29 1 32 0;
#X connect 29 2 33 0;
#X connect 30 0 29 0;
#X connect 31 0 38 0;
#X connect 31 0 66 0;
#X connect 31 0 50 0;
#X connect 32 0 57 0;
#X connect 32 0 61 0;
#X connect 34 0 35 0;
#X connect 37 0 4 0;
#X connect 39 0 24 0;
#X connect 40 0 21 0;
#X connect 41 0 43 0;
#X connect 42 0 41 1;
#X connect 43 0 44 0;
#X connect 43 0 44 1;
#X connect 45 0 47 0;
#X connect 47 0 46 0;
#X connect 48 0 53 0;
#X connect 49 0 51 0;
#X connect 50 0 48 1;
#X connect 51 0 48 1;
#X connect 52 0 48 0;
#X connect 53 0 54 0;
#X connect 55 0 56 0;
#X connect 56 0 42 0;
#X connect 58 0 59 0;
#X connect 60 0 62 0;
#X connect 63 0 64 0;
#X connect 64 0 65 0;
#X connect 66 0 42 0;
