#N canvas 591 359 611 538 10;
#X obj 31 12 r amp_acc;
#X obj 34 40 hsl 128 15 0 60 0 0 empty empty empty -2 -8 0 10 -262144
-1 -1 0 1;
#X obj 22 446 dac~;
#X obj 21 189 phasor~;
#X obj 22 321 lop~;
#X obj 53 282 sub/scale 0 1 0 2000;
#X obj 22 380 +~;
#X obj 22 402 *~ 0.5;
#X obj 250 210 moses 30;
#X obj 249 333 &&;
#X obj 277 270 f;
#X msg 248 361 0;
#X obj 267 306 > 0;
#X obj 247 260 < 30;
#X floatatom 257 169 5 0 0 0 - - -, f 5;
#X obj 198 361 spigot;
#X obj 31 110 sub/clipscale 0 40 0 1;
#X obj 31 77 sub/lerp;
#X msg 351 383 open loss_1.wav;
#X obj 184 422 readsf~ 2;
#X msg 184 390 start;
#X obj 253 386 t b b;
#X obj 22 343 *~ 0.4;
#X obj 24 152 sub/scale 0 1 120 50;
#X obj 128 202 phasor~;
#X obj 22 239 +~;
#X obj 22 271 *~ 0.5;
#X obj 87 174 sub/scale 0 1 121 70;
#X connect 0 0 1 0;
#X connect 1 0 17 0;
#X connect 3 0 25 0;
#X connect 4 0 22 0;
#X connect 5 0 4 1;
#X connect 6 0 7 0;
#X connect 7 0 2 0;
#X connect 7 0 2 1;
#X connect 8 0 13 0;
#X connect 8 1 10 0;
#X connect 9 0 11 0;
#X connect 9 0 15 0;
#X connect 9 0 15 1;
#X connect 10 0 12 0;
#X connect 11 0 10 0;
#X connect 12 0 9 1;
#X connect 13 0 9 0;
#X connect 15 0 21 0;
#X connect 16 0 5 0;
#X connect 16 0 23 0;
#X connect 16 0 27 0;
#X connect 17 0 16 0;
#X connect 17 0 8 0;
#X connect 17 0 14 0;
#X connect 18 0 19 0;
#X connect 19 0 6 1;
#X connect 20 0 19 0;
#X connect 21 0 20 0;
#X connect 21 1 18 0;
#X connect 22 0 6 0;
#X connect 23 0 3 0;
#X connect 24 0 25 1;
#X connect 25 0 26 0;
#X connect 26 0 4 0;
#X connect 27 0 24 0;
