#N canvas 134 50 812 644 10;
#X obj -276 -36 r speed;
#X obj -74 -36 r amp;
#X obj 119 -36 r acceleration;
#X obj -294 513 dac~;
#X obj 146 368 loadbang;
#X obj -276 -6 vsl 15 80 0 100 0 0 empty empty empty 0 -9 0 10 -262144
-1 -1 0 1;
#X obj -291 403 *~ 0.5;
#X obj -74 -7 vsl 15 80 -40 40 0 0 empty empty empty 0 -9 0 10 -262144
-1 -1 6700 1;
#X obj -292 356 +~;
#X obj 216 332 *~;
#X obj 217 515 *~;
#X obj -292 435 *~;
#X obj 119 -7 vsl 15 80 -10 10 0 0 empty empty empty 0 -9 0 10 -262144
-1 -1 4600 1;
#X obj 216 203 f;
#X obj 253 203 + 1;
#X obj 216 252 select 0 1 2;
#X obj 216 227 mod 3;
#X obj 146 418 mtof~;
#X msg 289 277 71;
#X msg 252 277 68;
#X msg 216 277 64;
#X msg 146 394 59;
#X obj 216 491 phasor~;
#X obj 256 443 * 50;
#X obj 216 467 +;
#X msg 216 443 130;
#X text 214 135 Arpeggio;
#X obj 216 156 loadbang;
#X obj 216 417 loadbang;
#X obj -74 185 s amp_low_val;
#X obj 30 185 s amp_high_val;
#X text 214 393 Bad buzz;
#X obj -293 472 sub/delay sine 0.2 200;
#X obj -74 106 sub/clipscale -40 40 -1 1;
#X obj 119 105 sub/clipscale -3 3 -1 1;
#X obj 251 332 r amp_high_val;
#X obj 256 515 r amp_low_val;
#X obj 216 307 synth/samplesynth_1;
#X obj 216 180 metro 100;
#X obj -74 129 moses 0;
#X msg -63 157 0;
#X msg -27 157 0;
#X obj 135 478 +~;
#X obj 131 520 *~ 0.5;
#X obj 147 442 phasor~;
#X obj -293 379 lop~;
#X obj -276 106 sub/clipscale 0 100 0 10000;
#X obj 119 82 sub/lerp;
#X obj -74 82 sub/lerp;
#X obj -276 83 sub/lerp;
#X connect 0 0 5 0;
#X connect 1 0 7 0;
#X connect 2 0 12 0;
#X connect 4 0 21 0;
#X connect 5 0 49 0;
#X connect 6 0 11 0;
#X connect 7 0 48 0;
#X connect 8 0 45 0;
#X connect 9 0 8 1;
#X connect 10 0 43 0;
#X connect 11 0 32 0;
#X connect 12 0 47 0;
#X connect 13 0 14 0;
#X connect 13 0 16 0;
#X connect 14 0 13 1;
#X connect 15 0 20 0;
#X connect 15 1 19 0;
#X connect 15 2 18 0;
#X connect 16 0 15 0;
#X connect 17 0 44 0;
#X connect 18 0 37 0;
#X connect 19 0 37 0;
#X connect 20 0 37 0;
#X connect 21 0 17 0;
#X connect 22 0 42 1;
#X connect 23 0 25 0;
#X connect 23 0 24 1;
#X connect 24 0 22 0;
#X connect 25 0 24 0;
#X connect 27 0 38 0;
#X connect 28 0 25 0;
#X connect 32 0 3 0;
#X connect 32 0 3 1;
#X connect 33 0 39 0;
#X connect 34 0 11 1;
#X connect 35 0 9 1;
#X connect 36 0 10 1;
#X connect 36 0 23 0;
#X connect 37 0 9 0;
#X connect 38 0 13 0;
#X connect 39 0 29 0;
#X connect 39 0 41 0;
#X connect 39 1 30 0;
#X connect 39 1 40 0;
#X connect 40 0 29 0;
#X connect 41 0 30 0;
#X connect 42 0 10 0;
#X connect 43 0 8 0;
#X connect 44 0 42 0;
#X connect 45 0 6 0;
#X connect 46 0 45 1;
#X connect 47 0 34 0;
#X connect 48 0 33 0;
#X connect 49 0 46 0;
