#N canvas 994 301 450 300 10;
#X obj 116 -13 r fan;
#X obj 54 -13 r speed;
#X obj 7 -13 r soc;
#X obj 165 -13 r climate;
#X obj 57 145 osc~;
#X obj 58 195 dac~;
#X floatatom 109 131 5 0 0 0 - - -;
#X floatatom 114 29 5 0 0 0 - - -;
#X obj 56 72 maxlib/scale 0 100 300 600;
#X connect 1 0 8 0;
#X connect 4 0 5 0;
#X connect 4 0 5 1;
#X connect 7 0 8 0;
#X connect 8 0 4 0;
#X connect 8 0 6 0;
