#N canvas 387 266 773 490 10;
#X obj 116 -13 r fan;
#X obj 54 -13 r speed;
#X obj 7 -13 r soc;
#X obj 165 -13 r climate;
#X obj 34 326 dac~;
#X obj 50 202 osc~;
#X obj 100 188 phasor~;
#X obj -5 94 metro 1000;
#X floatatom 277 245 5 0 0 0 - - -, f 5;
#X text 280 221 for testing;
#X obj 49 156 float;
#X floatatom -72 234 5 0 0 0 - - -, f 5;
#X obj 277 49 scale 0 100 400 800;
#X obj 53 54 scale 0 60 1000 100;
#X obj 282 271 print;
#X obj -15 190 float 0.1;
#X obj 0 252 *~ 1;
#X obj -82 125 delay 200;
#X obj 101 237 *~ 1, f 9;
#X floatatom -46 271 5 0 0 0 - - -, f 5;
#X obj -45 154 delay 100;
#X obj 206 117 / 5;
#X connect 1 0 12 0;
#X connect 1 0 13 0;
#X connect 5 0 16 0;
#X connect 6 0 18 0;
#X connect 7 0 10 0;
#X connect 7 0 15 0;
#X connect 7 0 17 0;
#X connect 7 0 20 0;
#X connect 8 0 12 0;
#X connect 8 0 13 0;
#X connect 10 0 5 0;
#X connect 10 0 6 0;
#X connect 11 0 16 1;
#X connect 12 0 10 1;
#X connect 12 0 21 0;
#X connect 13 0 7 1;
#X connect 15 0 16 1;
#X connect 15 0 18 1;
#X connect 16 0 4 0;
#X connect 17 0 11 0;
#X connect 18 0 4 1;
#X connect 19 0 18 1;
#X connect 20 0 19 0;
#X connect 21 0 20 1;
