#N canvas 533 181 793 432 10;
#X obj 21 9 inlet;
#X obj 21 387 outlet;
#X obj 21 364 line;
#X msg 196 347 0;
#X obj 21 34 t b b;
#X obj 118 47 loadbang;
#X obj 118 84 f \$1;
#X obj 155 84 f \$2;
#X obj 21 58 t b b;
#X obj 21 106 list;
#X obj 53 130 delay;
#X obj 192 84 f \$3;
#X obj 229 84 f \$4;
#X obj 266 84 f \$5;
#X text 116 106 att;
#X text 154 106 hold;
#X text 191 106 dec;
#X text 228 106 sus;
#X text 264 106 rel;
#X obj 21 82 1;
#X obj 53 82 \$1;
#X obj 53 174 delay;
#X obj 53 152 \$2;
#X obj 53 197 t b b;
#X obj 53 242 list;
#X obj 85 265 delay;
#X obj 85 287 t b b;
#X obj 85 333 list;
#X obj 85 310 0;
#X obj 117 310 \$5;
#X obj 53 220 \$4;
#X obj 85 220 \$3;
#X text 116 7 ADSR. Send a bang to start. Patched John Turesson.;
#X connect 0 0 4 0;
#X connect 2 0 1 0;
#X connect 3 0 2 0;
#X connect 4 0 8 0;
#X connect 4 1 3 0;
#X connect 5 0 6 0;
#X connect 5 0 7 0;
#X connect 5 0 11 0;
#X connect 5 0 12 0;
#X connect 5 0 13 0;
#X connect 8 0 19 0;
#X connect 8 1 20 0;
#X connect 9 0 2 0;
#X connect 10 0 22 0;
#X connect 19 0 9 0;
#X connect 20 0 9 1;
#X connect 20 0 10 0;
#X connect 21 0 23 0;
#X connect 22 0 21 0;
#X connect 23 0 30 0;
#X connect 23 1 31 0;
#X connect 24 0 2 0;
#X connect 25 0 26 0;
#X connect 26 0 28 0;
#X connect 26 1 29 0;
#X connect 27 0 2 0;
#X connect 28 0 27 0;
#X connect 29 0 27 1;
#X connect 30 0 24 0;
#X connect 31 0 24 1;
#X connect 31 0 25 0;
