#N canvas 1038 185 680 574 10;
#X obj 197 67 f;
#X obj 234 67 + 1;
#X obj 197 20 loadbang;
#X obj 175 20 tgl 15 0 empty empty empty 17 7 0 10 -262144 -1 -1 0
1;
#X obj 198 116 select 0 1;
#X obj 197 91 mod 2;
#X msg 197 141 54;
#X msg 233 141 58;
#X obj 197 44 metro 900;
#X obj 216 228 lop~;
#X floatatom -21 137 5 0 0 0 - - -, f 5;
#X obj 179 227 lop~;
#X obj -21 -83 inlet;
#X obj 81 303 outlet~;
#X obj 312 306 outlet~;
#X obj -21 -31 vsl 15 128 1 90 0 0 empty empty empty 0 -9 0 10 -204800
-1 -1 0 1;
#X obj -21 110 expr pow($f1 \, 2)-1;
#X obj 197 171 ../synth/samplesynth_1;
#X obj -21 -58 clipscale 0 1 0 90;
#X obj 82 279 ./delay dedasfdaly 0.45 260;
#X obj 311 279 ./delay dedadaly 0.4 300;
#X text -86 -157 Plays two positive notes to indicate positive amp
(or something else perhaps). Inlet is a float from 0-1 that changes
volume and the LPF.;
#X text -2 12 LPF level;
#X text 287 83 <- play two notes over and over again;
#X connect 0 0 1 0;
#X connect 0 0 5 0;
#X connect 1 0 0 1;
#X connect 2 0 8 0;
#X connect 3 0 8 0;
#X connect 4 0 6 0;
#X connect 4 1 7 0;
#X connect 5 0 4 0;
#X connect 6 0 17 0;
#X connect 7 0 17 0;
#X connect 8 0 0 0;
#X connect 9 0 20 0;
#X connect 10 0 9 1;
#X connect 10 0 11 1;
#X connect 11 0 19 0;
#X connect 12 0 18 0;
#X connect 15 0 16 0;
#X connect 16 0 10 0;
#X connect 17 0 11 0;
#X connect 17 0 9 0;
#X connect 18 0 15 0;
#X connect 19 0 13 0;
#X connect 20 0 14 0;
