#N canvas 751 140 519 357 10;
#X obj 166 97 loadbang;
#X obj 24 60 inlet;
#X obj 198 300 outlet;
#X obj 166 125 f \$3;
#X obj 236 126 f \$4;
#X obj 24 189 scale \$1 \$2 \$3 \$4;
#X obj 166 188 moses;
#X obj 236 188 moses;
#X obj 198 275 clip;
#X text 20 11 Scales a number from an input scale to an output scale
\, and clips the output to the boundaries of the output scale.;
#X text 265 154 <- To support scales where \$3 < \$4;
#X text 236 274 Clip to output boundaries;
#X obj 52 88 inlet;
#X obj 54 111 inlet;
#X obj 109 105 inlet;
#X obj 122 152 inlet;
#X connect 0 0 3 0;
#X connect 0 0 4 0;
#X connect 1 0 5 0;
#X connect 3 0 6 0;
#X connect 3 0 7 1;
#X connect 4 0 6 1;
#X connect 4 0 7 0;
#X connect 5 0 8 0;
#X connect 6 0 8 1;
#X connect 6 1 8 2;
#X connect 7 0 8 1;
#X connect 7 1 8 2;
#X connect 8 0 2 0;
#X connect 12 0 5 1;
#X connect 13 0 5 2;
#X connect 14 0 5 3;
#X connect 14 0 6 0;
#X connect 14 0 7 1;
#X connect 15 0 5 4;
#X connect 15 0 6 1;
#X connect 15 0 7 0;
