#N canvas 1102 185 450 397 10;
#X obj 147 67 loadbang;
#X obj 147 158 f \$1;
#X obj 78 67 inlet;
#X obj 317 338 outlet;
#X obj 216 158 f \$2;
#X obj 285 158 f \$3;
#X obj 355 158 f \$4;
#X obj 78 196 scale \$1 \$2 \$3 \$4;
#X obj 285 196 moses;
#X obj 355 196 moses;
#X obj 317 307 clip;
#X connect 0 0 1 0;
#X connect 0 0 4 0;
#X connect 0 0 5 0;
#X connect 0 0 6 0;
#X connect 2 0 7 0;
#X connect 5 0 8 0;
#X connect 5 0 9 1;
#X connect 6 0 8 1;
#X connect 6 0 9 0;
#X connect 7 0 10 0;
#X connect 8 0 10 1;
#X connect 8 1 10 2;
#X connect 9 0 10 1;
#X connect 9 1 10 2;
#X connect 10 0 3 0;
