#N canvas 656 349 454 359 10;
#X obj 41 262 *~;
#X obj 71 140 env~;
#X obj 71 162 dbtorms;
#X obj 71 206 -;
#X obj 71 228 lop~ 20;
#X obj 208 156 vsl 15 128 0 1 0 0 empty empty empty 0 -9 0 10 -262144
-1 -1 12700 1;
#X msg 71 184 1 \$1;
#X obj 40 104 inlet~;
#X text -11 13 Originally from http://forum.pdpatchrepo.info/topic/5179/how-to-make-a-limiter-with-pd-vanilla-objects-and-no-expr/4
;
#X obj 41 284 outlet~;
#X connect 0 0 9 0;
#X connect 1 0 2 0;
#X connect 2 0 6 0;
#X connect 3 0 4 0;
#X connect 3 0 5 0;
#X connect 4 0 0 1;
#X connect 6 0 3 0;
#X connect 7 0 1 0;
#X connect 7 0 0 0;
