#N canvas 649 307 326 296 10;
#X obj -116 15 inlet;
#X obj -16 15 inlet;
#X obj -117 195 metro;
#X obj -16 90 *;
#X obj -115 54 t b b f;
#X obj -111 249 outlet;
#X obj -76 142 bng 15 250 50 0 empty empty empty 17 7 0 10 -262144
-1 -1;
#X obj -51 192 bng 15 250 50 0 empty empty empty 17 7 0 10 -262144
-1 -1;
#X obj -76 118 delay 500;
#X obj -100 168 tgl 15 0 empty empty empty 17 7 0 10 -262144 -1 -1
0 1;
#X obj -230 118 only_one_bang_please;
#X connect 0 0 4 0;
#X connect 1 0 3 1;
#X connect 1 0 2 1;
#X connect 2 0 5 0;
#X connect 2 0 7 0;
#X connect 3 0 8 1;
#X connect 4 0 8 0;
#X connect 4 1 10 0;
#X connect 4 2 3 0;
#X connect 6 0 9 0;
#X connect 8 0 6 0;
#X connect 8 0 10 1;
#X connect 9 0 2 0;
#X connect 10 0 9 0;
