#N canvas 636 221 450 396 10;
#X floatatom -14 78 5 0 0 0 - - -, f 5;
#X obj -47 66 bng 15 250 50 0 empty empty empty 17 7 0 10 -262144 -1
-1;
#X obj -14 55 realtime;
#X obj -29 100 pack f f;
#X msg -29 122 \$1 \$2;
#X obj -29 32 t f b;
#X obj -29 144 line;
#X obj -29 166 outlet;
#X obj -29 10 inlet;
#X connect 0 0 1 0;
#X connect 0 0 3 1;
#X connect 1 0 2 0;
#X connect 2 0 0 0;
#X connect 3 0 4 0;
#X connect 4 0 6 0;
#X connect 5 0 3 0;
#X connect 5 1 2 1;
#X connect 6 0 7 0;
#X connect 8 0 5 0;
