#N canvas 1102 185 450 300 10;
#X obj 147 67 loadbang;
#X obj 147 158 f \$1;
#X obj 78 67 inlet;
#X obj 78 222 outlet;
#X obj 216 158 f \$2;
#X obj 285 158 f \$3;
#X obj 355 158 f \$4;
#X obj 78 197 expr (($f1-$f2)/($f3-$f2))*($f5-$f4)+$f4;
#X connect 0 0 1 0;
#X connect 0 0 4 0;
#X connect 0 0 5 0;
#X connect 0 0 6 0;
#X connect 1 0 7 1;
#X connect 2 0 7 0;
#X connect 4 0 7 2;
#X connect 5 0 7 3;
#X connect 6 0 7 4;
#X connect 7 0 3 0;
