#N canvas 207 59 994 878 10;
#X obj 164 80 tgl 15 0 empty empty empty 17 7 0 10 -262144 -1 -1 -29
-29;
#X obj 164 126 metro 300;
#X floatatom 224 80 5 0 0 0 - - -, f 5;
#X obj 164 148 float;
#X floatatom 164 170 5 0 0 0 - - -, f 5;
#X obj 92 289 mod 3;
#X obj 92 320 hradio 15 1 0 3 empty empty empty 0 -8 0 10 -262130 -1
-1 1;
#X obj 92 350 select 0 1 2;
#X obj 272 482 float;
#X obj 221 481 float;
#X obj 253 337 vsl 15 128 0 127 0 0 empty empty empty 0 -9 0 10 -262130
-1 -1 6400 1;
#X obj 304 337 vsl 15 128 0 127 0 0 empty empty empty 0 -9 0 10 -262130
-1 -1 6700 1;
#X obj 201 336 vsl 15 128 0 127 0 0 empty empty empty 0 -9 0 10 -262130
-1 -1 5500 1;
#X obj 221 556 mtof;
#X floatatom 304 314 5 0 0 0 - - -, f 5;
#X floatatom 253 313 5 0 0 0 - - -, f 5;
#X floatatom 201 311 5 0 0 0 - - -, f 5;
#X obj 221 637 osc~;
#X obj 475 492 float;
#X obj 424 491 float;
#X obj 372 491 float;
#X obj 456 337 vsl 15 128 0 127 0 0 empty empty empty 0 -9 0 10 -204786
-1 -1 6000 1;
#X obj 507 337 vsl 15 128 0 127 0 0 empty empty empty 0 -9 0 10 -204786
-1 -1 6400 1;
#X obj 404 337 vsl 15 128 0 127 0 0 empty empty empty 0 -9 0 10 -204786
-1 -1 5000 1;
#X floatatom 510 315 5 0 0 0 - - -, f 5;
#X floatatom 458 314 5 0 0 0 - - -, f 5;
#X floatatom 404 313 5 0 0 0 - - -, f 5;
#X obj 406 288 - 5;
#X obj 458 288 - 4;
#X obj 453 559 mtof;
#X obj 453 640 osc~;
#X obj 623 316 hradio 15 1 0 4 empty empty empty 0 -8 0 10 -204786
-1 -1 0;
#X obj 623 284 mod 4;
#X obj 623 345 select 0 1 2 3;
#X obj 529 492 float;
#X obj 561 338 vsl 15 128 0 127 0 0 empty empty empty 0 -9 0 10 -204786
-1 -1 7200 1;
#X floatatom 562 315 5 0 0 0 - - -, f 5;
#X obj 512 288 - 3;
#X floatatom 823 508 5 0 0 0 - - -, f 5;
#X text 865 507 Transpose?;
#X obj 529 521 +, f 2;
#X obj 475 521 +;
#X obj 424 521 +;
#X obj 372 521 +;
#X obj 272 519 +;
#X obj 169 519 +;
#X obj 221 519 +;
#X obj 563 288 + 8;
#X obj 207 147 + 1;
#X text 4 288 Triplets :);
#X text 669 255 Quadruplets :);
#X text 263 289 Harmonies/bass --->;
#X obj 224 57 inlet;
#X obj 164 57 inlet;
#X text 163 38 BANG!;
#X obj 823 54 inlet;
#X text 820 34 Transpose;
#X obj 222 756 outlet~;
#X obj 454 750 outlet~;
#X obj 201 239 loadbang;
#X obj 201 267 f \$1;
#X obj 253 267 f \$2;
#X obj 304 268 f \$3;
#X text -7 -36 ---------------------------------;
#X text 225 40 Pauses (ms) \, i.e. tempo;
#X text -7 -19 Input arguments (three) are the notes for the sequencer.
Middle inlet sets tempot (pause between each note) \, right inlet transposes
the notes.;
#X text -9 305 These are the;
#X text -5 318 ground notes;
#X text 669 269 These are based on;
#X text 670 280 the three ground;
#X text 671 290 notes;
#X text -5 -48 A 3+2 counterpoint harmonic midi sequencer.;
#X obj 169 481 float;
#X floatatom 221 460 5 0 0 0 - - -, f 5;
#X floatatom 272 457 5 0 0 0 - - -, f 5;
#X floatatom 316 460 5 0 0 0 - - -, f 5;
#X obj 221 608 line~;
#X msg 221 584 \$1 5;
#X obj 453 609 line~;
#X msg 453 587 \$1 5;
#X connect 0 0 1 0;
#X connect 1 0 3 0;
#X connect 2 0 1 1;
#X connect 3 0 4 0;
#X connect 3 0 48 0;
#X connect 4 0 5 0;
#X connect 4 0 32 0;
#X connect 5 0 6 0;
#X connect 6 0 7 0;
#X connect 7 0 72 0;
#X connect 7 1 9 0;
#X connect 7 2 8 0;
#X connect 8 0 44 0;
#X connect 9 0 46 0;
#X connect 10 0 9 1;
#X connect 10 0 28 0;
#X connect 10 0 74 0;
#X connect 11 0 8 1;
#X connect 11 0 37 0;
#X connect 11 0 75 0;
#X connect 12 0 27 0;
#X connect 12 0 72 1;
#X connect 12 0 73 0;
#X connect 13 0 77 0;
#X connect 14 0 11 0;
#X connect 15 0 10 0;
#X connect 16 0 12 0;
#X connect 17 0 57 0;
#X connect 18 0 41 0;
#X connect 19 0 42 0;
#X connect 20 0 43 0;
#X connect 21 0 19 1;
#X connect 22 0 18 1;
#X connect 23 0 20 1;
#X connect 24 0 22 0;
#X connect 24 0 47 0;
#X connect 25 0 21 0;
#X connect 26 0 23 0;
#X connect 27 0 26 0;
#X connect 28 0 25 0;
#X connect 29 0 79 0;
#X connect 30 0 58 0;
#X connect 31 0 33 0;
#X connect 32 0 31 0;
#X connect 33 0 20 0;
#X connect 33 1 19 0;
#X connect 33 2 18 0;
#X connect 33 3 34 0;
#X connect 34 0 40 0;
#X connect 35 0 34 1;
#X connect 36 0 35 0;
#X connect 37 0 24 0;
#X connect 38 0 40 1;
#X connect 38 0 41 1;
#X connect 38 0 42 1;
#X connect 38 0 43 1;
#X connect 38 0 44 1;
#X connect 38 0 46 1;
#X connect 38 0 45 1;
#X connect 40 0 29 0;
#X connect 41 0 29 0;
#X connect 42 0 29 0;
#X connect 43 0 29 0;
#X connect 44 0 13 0;
#X connect 45 0 13 0;
#X connect 46 0 13 0;
#X connect 47 0 36 0;
#X connect 48 0 3 1;
#X connect 52 0 2 0;
#X connect 53 0 0 0;
#X connect 55 0 38 0;
#X connect 59 0 60 0;
#X connect 59 0 61 0;
#X connect 59 0 62 0;
#X connect 60 0 16 0;
#X connect 61 0 15 0;
#X connect 62 0 14 0;
#X connect 72 0 45 0;
#X connect 76 0 17 0;
#X connect 77 0 76 0;
#X connect 78 0 30 0;
#X connect 79 0 78 0;
