#N canvas 617 127 612 441 10;
#X obj 13 147 outlet~;
#X obj 13 124 readsf~;
#X obj 13 10 inlet;
#X msg 45 101 open \$1;
#X obj 45 79 symbol \$1;
#X obj 13 32 t b b;
#X msg 13 55 start;
#X connect 1 0 0 0;
#X connect 2 0 5 0;
#X connect 3 0 1 0;
#X connect 4 0 3 0;
#X connect 5 0 6 0;
#X connect 5 1 4 0;
#X connect 6 0 1 0;
