#N canvas 746 137 612 441 10;
#X obj -45 188 outlet~;
#X obj -46 9 inlet;
#X msg -14 141 open \$1;
#X obj -14 117 symbol \$1;
#X obj -46 70 t b b;
#X msg -46 93 start;
#X text 0 8 play bang;
#X text 142 9 loop toggle;
#X obj 97 11 inlet;
#X obj 58 182 spigot;
#X obj 58 55 bng 15 250 50 0 empty empty empty 17 7 0 10 -262144 -1
-1;
#X obj -46 161 readsf~ 2;
#X obj -17 219 outlet~;
#X connect 1 0 4 0;
#X connect 2 0 11 0;
#X connect 3 0 2 0;
#X connect 4 0 5 0;
#X connect 4 1 3 0;
#X connect 5 0 11 0;
#X connect 8 0 9 1;
#X connect 9 0 10 0;
#X connect 10 0 4 0;
#X connect 11 0 0 0;
#X connect 11 1 12 0;
#X connect 11 2 9 0;
