#N canvas 617 127 612 441 10;
#X obj 42 167 outlet~;
#X obj 13 10 inlet;
#X msg 45 101 open \$1;
#X obj 45 79 symbol \$1;
#X obj 13 32 t b b;
#X msg 13 55 start;
#X obj 12 203 outlet~;
#X obj 13 124 readsf~ 2;
#X connect 1 0 4 0;
#X connect 2 0 7 0;
#X connect 3 0 2 0;
#X connect 4 0 5 0;
#X connect 4 1 3 0;
#X connect 5 0 7 0;
#X connect 7 0 6 0;
#X connect 7 1 0 0;
