#N canvas 74 342 685 510 10;
#X obj 442 94 metro 1000;
#X obj 479 131 + 1;
#X obj 442 130 f;
#X obj 442 167 mod 10;
#X obj 442 64 tgl 15 0 empty empty empty 17 7 0 10 -262144 -1 -1 0
1;
#X obj 442 207 list;
#X obj 442 302 print;
#X obj 492 207 list split;
#X msg 549 79 10;
#X text 580 79 List size;
#X obj 549 104 - 1;
#X obj 65 114 list;
#X obj 115 114 list split;
#X msg 172 54 10;
#X text 203 54 List size;
#X obj 172 79 - 1;
#X obj 65 16 r amp;
#X obj 442 254 average;
#X obj 65 274 osc~;
#X obj 65 333 dac~;
#X obj 64 229 + 300;
#X obj 64 160 average;
#X obj 172 33 bng 15 250 50 0 empty empty empty 17 7 0 10 -262144 -1
-1;
#X connect 0 0 2 0;
#X connect 1 0 2 1;
#X connect 2 0 1 0;
#X connect 2 0 3 0;
#X connect 3 0 5 0;
#X connect 4 0 0 0;
#X connect 4 0 8 0;
#X connect 5 0 7 0;
#X connect 5 0 17 0;
#X connect 7 0 5 1;
#X connect 7 2 5 1;
#X connect 8 0 10 0;
#X connect 10 0 7 1;
#X connect 11 0 12 0;
#X connect 11 0 21 0;
#X connect 12 0 11 1;
#X connect 12 2 11 1;
#X connect 13 0 15 0;
#X connect 15 0 12 1;
#X connect 16 0 11 0;
#X connect 16 0 22 0;
#X connect 17 0 6 0;
#X connect 18 0 19 0;
#X connect 18 0 19 1;
#X connect 20 0 18 0;
#X connect 21 0 20 0;
#X connect 22 0 13 0;
