#N canvas 1146 490 450 370 10;
#X obj 79 69 metro 1000;
#X obj 79 124 bng 15 250 50 0 empty empty empty 17 7 0 10 -262144 -1
-1;
#X obj 79 39 loadbang;
#N canvas 673 553 450 300 external 1;
#X obj 18 59 tgl 15 0 empty empty empty 17 7 0 10 -262144 -1 -1 1 1
;
#X obj 18 36 bng 15 250 50 0 empty empty empty 17 7 0 10 -262144 -1
-1;
#X obj 18 83 sel 0;
#X obj 18 123 bng 15 250 50 0 empty empty empty 17 7 0 10 -262144 -1
-1;
#X obj 50 123 bng 15 250 50 0 empty empty empty 17 7 0 10 -262144 -1
-1;
#X obj 19 6 inlet;
#X obj 17 223 osc~ 440;
#X msg 17 162 440;
#X msg 65 161 880;
#X obj 18 276 dac~;
#X floatatom 18 196 5 0 0 0 - - -, f 5;
#X connect 0 0 2 0;
#X connect 1 0 0 0;
#X connect 2 0 3 0;
#X connect 2 1 4 0;
#X connect 3 0 7 0;
#X connect 4 0 8 0;
#X connect 5 0 1 0;
#X connect 6 0 9 0;
#X connect 6 0 9 1;
#X connect 7 0 10 0;
#X connect 8 0 10 0;
#X connect 10 0 6 0;
#X restore 80 181 pd external;
#X connect 0 0 1 0;
#X connect 1 0 3 0;
#X connect 2 0 0 0;
