#N canvas 415 378 841 490 10;
#X obj 58 20 r fan;
#X obj -4 20 r speed;
#X obj -51 20 r soc;
#X obj 107 20 r climate;
#X obj -14 271 dac~;
#N canvas 169 138 805 600 speed 1;
#X obj 29 305 osc~;
#X obj 154 319 phasor~;
#X obj 9 147 metro 1000;
#X floatatom 319 325 5 0 0 0 - - -, f 5;
#X text 313 304 for testing;
#X obj 76 253 float;
#X floatatom -44 318 5 0 0 0 - - -, f 5;
#X obj 226 119 scale 0 100 400 800;
#X obj 75 122 scale 0 60 1000 100;
#X obj 318 344 print;
#X obj 28 336 *~ 1;
#X obj -89 198 delay 200;
#X obj 93 386 *~ 1, f 9;
#X floatatom -18 355 5 0 0 0 - - -, f 5;
#X obj 156 171 / 5;
#X obj -47 113 loadbang;
#X obj 3 230 float 1;
#X obj 106 48 inlet;
#X obj 35 472 outlet~;
#X obj 96 469 outlet~;
#X obj 124 286 pipe 1000;
#X obj 135 351 pipe 500;
#X obj -8 181 delay 800;
#X connect 0 0 10 0;
#X connect 1 0 12 0;
#X connect 2 0 11 0;
#X connect 2 0 9 0;
#X connect 2 0 16 0;
#X connect 2 0 5 0;
#X connect 2 0 22 0;
#X connect 3 0 7 0;
#X connect 3 0 8 0;
#X connect 5 0 0 0;
#X connect 5 0 20 0;
#X connect 6 0 10 1;
#X connect 7 0 14 0;
#X connect 7 0 5 1;
#X connect 8 0 2 1;
#X connect 10 0 18 0;
#X connect 11 0 6 0;
#X connect 12 0 19 0;
#X connect 13 0 12 1;
#X connect 14 0 22 1;
#X connect 15 0 2 0;
#X connect 16 0 10 1;
#X connect 16 0 21 0;
#X connect 17 0 8 0;
#X connect 17 0 7 0;
#X connect 20 0 1 0;
#X connect 21 0 12 1;
#X connect 22 0 13 0;
#X restore -8 71 pd speed;
#X connect 1 0 5 0;
#X connect 5 0 4 0;
#X connect 5 1 4 1;
