#N canvas 749 240 693 597 10;
#X obj -183 114 readsf~ 2;
#X obj -182 146 dac~;
#X msg -183 82 start;
#X obj -117 11 r amp_high;
#X obj 14 11 r amp_low;
#X obj -117 49 t b b;
#X obj 14 49 t b b;
#X msg 41 80 open loss_1.wav;
#X msg -90 80 open gain_1.wav;
#X connect 0 0 1 0;
#X connect 0 0 1 1;
#X connect 2 0 0 0;
#X connect 3 0 5 0;
#X connect 4 0 6 0;
#X connect 5 0 2 0;
#X connect 5 1 8 0;
#X connect 6 0 2 0;
#X connect 6 1 7 0;
#X connect 7 0 0 0;
#X connect 8 0 0 0;
