#N canvas 455 322 450 300 10;
#X obj 72 149 inlet;
#X obj 72 237 outlet;
#X obj 128 122 loadbang;
#X obj 119 188 expr ($f1/($f3-$f2))*($f5-$f4)+$f4 \;;
#X obj 188 121 loadbang;
#X obj 249 122 loadbang;
#X obj 317 118 loadbang;
#X obj 128 151 f \$1;
#X obj 188 150 f \$2;
#X obj 249 151 f \$3;
#X obj 318 146 f \$4;
#X text 26 22 Scales an input value to a different range. Inlet: Input
value p1: input ramge min | p2: input range max p3: output range min
| p4: output range max;
#X connect 0 0 3 0;
#X connect 2 0 7 0;
#X connect 3 0 1 0;
#X connect 4 0 8 0;
#X connect 5 0 9 0;
#X connect 6 0 10 0;
#X connect 7 0 3 1;
#X connect 8 0 3 2;
#X connect 9 0 3 3;
#X connect 10 0 3 4;
