#N canvas 415 175 450 312 10;
#X obj 116 -13 r fan;
#X obj 54 -13 r speed;
#X obj 7 -13 r soc;
#X obj 165 -13 r climate;
#X obj 54 105 osc~;
#X obj 54 170 dac~;
#X obj 54 70 +~ 300;
#X obj 66 28 *~ 10;
#X obj 149 108 phasor~;
#X connect 1 0 7 0;
#X connect 4 0 5 0;
#X connect 4 0 5 1;
#X connect 6 0 4 0;
#X connect 6 0 8 0;
#X connect 7 0 6 0;
#X connect 8 0 5 0;
#X connect 8 0 5 1;
